<?xml  version="1.0" encoding="UTF-8"?>
<!DOCTYPE svg PUBLIC "-//W3C//DTD SVG 1.0//EN" "http://www.w3.org/TR/2001/REC-SVG-20010904/DTD/svg10.dtd" >
<svg xmlns="http://www.w3.org/2000/svg" >
<metadata>
<version>1.0</version>
<id><![CDATA[Neo Sans W01 Medium Italic]]></id>
<vendor>Monotype Imaging Inc.</vendor>
<credits>
<name>Fonts.com WebFonts</name>
<URL>http://webfonts.fonts.com</URL>
<role>Home of the Web fonts</role>
</credits>
<license>
<URL>http://webfonts.fonts.com/Legal</URL>
</license>
<copyright><![CDATA[Copyright 2004 Monotype Imaging Inc. All Rights Reserved. Neo Sans is designed by Sebastian Lester.]]></copyright>
<trademark><![CDATA[Neo Sans is a trademark of Monotype Imaging Inc. and may be registered in certain jurisdictions.]]></trademark>
<licensee>
<name></name>
</licensee>
</metadata>
<defs >
<font horiz-adv-x="539" id="d8104530-e31f-4ad8-ae41-c65113c59931">
<font-face font-family="" panose-1="2 11 6 4 3 5 4 9 2 4" ascent="1000" descent="-216" units-per-em="1000" alphabetic="0">
</font-face>
<missing-glyph horiz-adv-x="0" />

<glyph unicode="&#xA;" />
<glyph unicode="&#xD;" horiz-adv-x="0" />
<glyph unicode=" " horiz-adv-x="268" />
<glyph unicode="!" horiz-adv-x="256" d="M327 741L222 234Q220 226 214 220T199 214H134Q126 214 121 219T116 231V234L191 741Q193 749 200 755T215 761H310Q327 761 327 745V741ZM215 130L195 17Q193 9 187 3T172 -3H82Q67 -3 67 13V17L87 130Q90 149 109 149H199Q215 149 215 134V130Z"  />
<glyph unicode="&quot;" horiz-adv-x="420" d="M539 753Q539 748 536 742L431 535Q426 524 422 520T409 516H329Q321 516 321 523Q321 529 324 535L412 742Q420 761 435 761H529Q539 761 539 753ZM339 753Q339 748 336 742L231 535Q226 524 222 520T209 516H129Q121 516 121 523Q121 529 124 535L212 742Q220 761 235 761H329Q339 761 339 753Z"  />
<glyph unicode="#" horiz-adv-x="684" d="M727 529Q727 527 727 527T726 524L713 478Q711 470 705 464T690 458H601L553 280H639Q646 280 651 276T656 265Q656 263 656 263T655 260L642 215Q640 207 633 201T618 195H530L484 19Q482 11 477 6T463 0H384Q370 0 370 14Q370 15 370 16T371 19L417 195H287L241 19Q239 11 234 6T220 0H140Q126 0 126 14Q126 16 126 16T127 19L173 195H90Q83 195 78 199T73 210Q73 212 73 212T74 215L87 260Q89 268 96 274T111 280H196L244 458H163Q155 458 150 462T145 474Q145 475 145 476T146 478L159 524Q161 532 168 538T183 544H266L314 724Q316 732 322 737T336 743H416Q429 743 429 729Q429 728 429 727T428 724L380 544H510L558 724Q560 732 566 737T580 743H659Q672 743 672 730Q672 726 671 724L623 544H710Q717 544 722 540T727 529ZM358 458L310 280H440L488 458H358Z"  />
<glyph unicode="$" horiz-adv-x="630" d="M659 714L646 640Q643 622 626 622H624Q575 627 526 629T428 632Q407 632 386 629T348 616T321 590T310 548Q310 528 324 512T377 472L485 405Q543 369 567 324T591 234Q591 185 575 145T529 75T461 26T374 -1L358 -92Q356 -100 349 -106T334 -112H243Q227 -112 227 -96V-92L242 -7Q204 -5 173 -1T115 10Q99 14 99 27V30L112 102Q114 110 120 115T134 121H136Q151 119 175 118T225 115T274 112T312 111Q339 111 363 116T405 133T434 166T445 217Q445 239 430 256T376 299L258 378Q232 395 215 415T188 455T174 496T170 534Q170 582 185 618T228 680T292 722T374 745L389 829Q391 837 397 843T412 849H503Q520 849 520 832V829L506 749Q548 747 586 743T644 733Q650 731 654 727T659 717V714Z"  />
<glyph unicode="%" horiz-adv-x="811" d="M820 286Q820 275 819 264T816 242L802 160Q786 70 745 31T630 -8Q573 -8 543 26T513 118Q513 140 517 160L531 242Q539 289 554 321T592 372T642 400T704 409Q761 409 790 376T820 286ZM804 737Q804 733 797 723L256 18Q248 7 243 2T229 -3H145Q137 -3 137 4Q137 10 143 18L684 723Q692 734 698 738T712 743H796Q804 743 804 737ZM431 625Q431 614 430 603T427 581L413 499Q397 409 356 370T241 331Q184 331 154 365T124 456Q124 466 125 477T128 499L142 581Q150 628 165 660T203 711T253 739T315 748Q372 748 401 715T431 625ZM735 283Q735 312 724 323T691 335Q664 335 645 315T616 242L602 160Q598 140 598 121Q598 90 610 78T643 66Q670 66 689 86T717 160L731 242Q733 254 734 264T735 283ZM346 621Q346 650 335 662T302 674Q275 674 256 654T227 581L213 499Q209 479 209 460Q209 429 221 417T254 405Q281 405 300 425T328 499L342 581Q344 593 345 603T346 621Z"  />
<glyph unicode="&amp;" horiz-adv-x="652" d="M689 358L686 346Q670 283 648 227T588 125L667 21Q670 16 670 13Q670 0 656 0H544Q539 0 536 1T529 8L499 47Q457 21 407 7T299 -8Q246 -8 203 3T130 36T82 87T65 155Q65 198 79 232T117 293T173 342T240 384L235 392Q199 450 184 485T169 547Q169 604 191 643T249 706T332 740T431 751Q476 751 511 741T570 712T606 668T619 612Q619 569 603 534T560 471T500 420T432 378L405 363L527 203Q546 234 557 270T578 346L581 358Q583 366 588 372T601 378H674Q689 378 689 362V358ZM499 600Q499 627 478 642T414 657Q387 657 364 652T324 634T297 602T287 552Q287 534 297 512T338 451L345 442L379 460Q400 471 421 483T460 512T488 550T499 600ZM300 306Q255 282 229 250T203 164Q203 126 232 108T316 90Q354 90 385 98T443 120L300 306Z"  />
<glyph unicode="&apos;" horiz-adv-x="220" d="M339 753Q339 748 336 742L231 535Q226 524 222 520T209 516H129Q121 516 121 523Q121 529 124 535L212 742Q220 761 235 761H329Q339 761 339 753Z"  />
<glyph unicode="(" horiz-adv-x="333" d="M432 735Q432 728 424 717Q397 679 369 634T316 534T271 418T240 283L237 264Q222 166 222 87Q222 8 233 -55T264 -169Q266 -173 266 -181Q266 -195 253 -195H191Q167 -195 159 -181Q124 -117 108 -36T92 131Q92 165 94 198T102 264L105 283Q117 356 135 418T179 534T237 636T310 729Q317 737 326 740T346 743H422Q432 743 432 735Z"  />
<glyph unicode=")" horiz-adv-x="333" d="M340 434Q340 356 328 283L325 264Q313 191 295 129T253 13T196 -88T124 -181Q117 -189 108 -192T88 -195H4Q-6 -195 -6 -187Q-6 -182 -4 -177T1 -169Q28 -131 57 -86T111 13T158 129T190 264L193 283Q200 327 203 366T206 443Q206 528 193 595T159 717Q157 725 157 729Q157 734 160 738T171 743H246Q270 743 278 729Q310 668 325 592T340 434Z"  />
<glyph unicode="*" horiz-adv-x="473" d="M532 583Q532 572 517 567L398 531L472 430Q477 423 477 416Q477 409 471 405L430 375Q425 372 421 372Q413 372 406 382L334 484L262 382Q255 372 247 372Q242 372 238 375L196 405Q190 409 190 416Q190 423 195 430L270 531L152 567Q136 572 136 583Q136 586 137 588L153 637Q156 647 166 647Q170 647 176 645L295 606L293 731Q293 739 296 744T308 750H360Q368 750 371 744T375 730L374 606L492 645Q498 647 502 647Q512 647 515 637L531 588Q532 586 532 583Z"  />
<glyph unicode="+" horiz-adv-x="610" d="M616 356Q616 348 610 344T596 340H434V179Q434 171 430 165T418 159H348Q340 159 336 165T332 179V340H171Q163 340 157 344T151 356V426Q151 434 157 438T171 442H332V604Q332 612 336 618T348 624H418Q426 624 430 618T434 604V442H596Q604 442 610 438T616 426V356H616Z"  />
<glyph unicode="&#x2c;" horiz-adv-x="259" d="M227 143Q227 139 224 133L100 -77Q95 -86 91 -91T78 -97H9Q-4 -97 -4 -85Q-4 -83 -2 -77L96 133Q105 152 120 152H216Q227 152 227 143Z"  />
<glyph unicode="-" horiz-adv-x="321" d="M338 339L327 276Q325 268 319 263T304 258H108Q92 258 92 272V276L103 339Q105 347 111 352T126 358H322Q338 358 338 343V339Z"  />
<glyph unicode="." horiz-adv-x="259" d="M217 133L198 20Q196 12 189 6T174 0H85Q69 0 69 16V20L88 133Q90 141 97 146T112 152H201Q217 152 217 137V133Z"  />
<glyph unicode="/" horiz-adv-x="385" d="M498 731Q498 729 496 723L156 21Q152 13 147 7T133 0H32Q18 0 18 14Q18 15 20 21L361 723Q365 731 370 737T384 743H485Q498 743 498 731Z"  />
<glyph unicode="0" horiz-adv-x="630" d="M658 517Q658 492 656 465T648 408L635 334Q618 238 591 173T524 67T432 10T314 -8Q266 -8 228 7T161 52T118 127T103 232Q103 255 105 280T113 334L126 408Q144 507 173 573T242 678T333 734T447 751Q543 751 600 695T658 517ZM519 511Q519 548 512 572T493 611T464 632T427 638Q401 638 377 628T332 591T294 521T265 408L252 334Q242 275 242 231Q242 195 249 171T268 132T297 111T334 105Q360 105 384 115T429 152T467 222T496 334L509 408Q519 467 519 511Z"  />
<glyph unicode="1" horiz-adv-x="630" d="M129 0Q121 0 116 6T112 20L125 96Q127 104 134 109T149 114H283L369 606L231 566Q226 564 219 564Q207 564 210 576L227 670Q228 678 236 681L423 739Q428 741 433 742T447 743H513Q531 743 528 724L421 114H555Q574 114 571 96L558 20Q556 12 550 6T535 0H129Z"  />
<glyph unicode="2" horiz-adv-x="630" d="M656 598Q656 557 646 525T616 466T566 415T494 366L393 306Q349 279 321 259T274 219T247 175T230 114H545Q553 114 558 111T562 96L549 20Q547 12 543 6T525 0H101Q82 0 85 20L102 118Q111 169 127 208T167 278T225 336T300 388L411 454Q434 468 455 479T491 504T516 535T526 579Q526 618 499 630T420 642Q398 642 372 640T320 636T267 631T218 627Q197 625 201 647L212 707Q215 721 234 726Q254 731 279 735T332 743T387 749T439 751Q548 751 602 712T656 598Z"  />
<glyph unicode="3" horiz-adv-x="630" d="M646 585Q646 564 642 545L639 529Q629 476 604 441T527 381Q559 358 573 325T587 256V248Q587 243 587 239T586 229L583 208Q574 148 551 107T490 41T404 4T294 -8Q238 -8 193 -1T106 17Q100 19 95 23T90 33V36L101 98Q104 116 122 116H124Q183 111 230 107T313 102Q372 102 404 131T444 208L447 229Q449 237 449 244T449 260Q449 289 434 309T373 330H196Q181 330 181 345V348V349L192 412Q195 431 214 431H391Q443 431 467 456T500 529L503 545Q506 560 506 574Q506 605 485 623T408 641Q381 641 361 640T319 637T274 633T215 627H213Q198 627 198 641V645L209 707Q211 715 217 719T231 726Q276 737 323 744T427 751Q472 751 512 741T581 710T628 658T646 585Z"  />
<glyph unicode="4" horiz-adv-x="630" d="M639 269L627 199Q625 191 619 185T604 179H530L502 20Q500 12 494 6T480 0H377Q370 0 367 4T363 15V20L391 179H91Q74 179 74 196V199L88 280Q91 296 105 312L486 725Q493 733 500 738T518 743H609Q625 743 625 727V723L549 289H623Q639 289 639 273V269ZM456 546Q456 549 454 549Q452 549 446 543L228 300Q224 296 224 293Q224 289 231 289H411L456 543V546Z"  />
<glyph unicode="5" horiz-adv-x="630" d="M653 724L639 648Q637 640 631 635T616 629H345L301 463H324Q379 463 429 455T517 425T577 362T599 259Q599 200 582 151T528 67T433 12T294 -8Q249 -8 198 -1T106 17Q97 20 93 24T91 39L101 98Q103 106 107 112T124 116Q182 108 223 105T307 102Q355 102 384 116T430 152T453 201T459 257Q459 293 446 312T410 341T359 352T300 354H166Q158 354 156 359T155 369L250 725Q252 733 258 738T273 743H636Q653 743 653 727V725V724Z"  />
<glyph unicode="6" horiz-adv-x="630" d="M469 751Q535 751 581 744T651 732Q662 730 667 726T670 711L659 649Q657 638 652 632T633 628Q619 630 597 632T550 637T499 640T450 641Q412 641 384 631T336 600T301 543T277 459Q302 464 337 467T403 470Q454 470 495 460T566 426T611 367T627 280Q627 214 606 161T544 71T448 13T321 -8Q275 -8 236 6T167 48T122 118T105 218Q105 236 107 258T113 301L133 416Q149 510 177 574T247 677T344 734T469 751ZM491 279Q491 327 462 348T372 369Q361 369 347 368T317 366T286 362T259 358L249 301Q244 272 242 251T239 218Q239 180 246 157T266 121T298 104T340 100Q407 100 449 146T491 279Z"  />
<glyph unicode="7" horiz-adv-x="630" d="M209 629Q189 629 192 647L206 724Q209 743 229 743H646Q668 743 675 734T679 703L671 658Q669 650 664 639T643 603L270 19Q262 8 256 4T240 0H131Q119 0 119 12Q119 19 123 24L516 622Q520 629 512 629H209Z"  />
<glyph unicode="8" horiz-adv-x="630" d="M654 581Q654 513 624 468T534 387Q599 337 599 255Q599 186 576 136T513 54T417 7T299 -8H289Q247 -8 208 3T137 36T87 91T68 168Q68 253 103 305T193 387Q161 411 146 442T131 508Q131 574 153 620T215 696T308 738T422 751H429Q473 751 514 742T586 713T635 660T654 581ZM523 569Q523 607 496 628T411 649H404Q338 649 299 615T260 514Q260 479 281 458T352 436H393Q422 436 446 446T487 474T513 516T523 569ZM463 247Q463 263 459 278T444 306T417 326T375 334H334Q302 334 278 322T238 290T214 244T205 188Q205 143 227 120T307 96H317Q392 96 427 138T463 247Z"  />
<glyph unicode="9" horiz-adv-x="630" d="M291 -7Q225 -7 179 0T109 12Q98 14 93 18T90 33L101 95Q103 106 108 112T127 116Q141 114 163 112T210 107T261 104T310 103Q348 103 376 113T424 144T459 200T483 285Q458 280 423 277T357 274Q306 274 265 284T194 318T149 377T133 464Q133 530 154 583T216 673T312 731T439 752Q485 752 524 740T593 702T638 636T655 537Q655 511 653 488T647 443L627 328Q611 234 583 170T513 67T416 10T291 -7ZM269 465Q269 417 298 396T388 375Q399 375 413 376T443 378T474 382T501 386L511 443Q516 472 518 495T521 536Q521 570 515 591T497 624T465 640T420 644Q353 644 311 598T269 465Z"  />
<glyph unicode=":" horiz-adv-x="259" d="M287 527L267 414Q265 406 259 401T244 395H155Q138 395 138 411V414L158 527Q160 535 166 541T181 547H270Q287 547 287 530V527ZM217 133L198 20Q196 12 189 6T174 0H85Q69 0 69 16V20L88 133Q90 141 97 146T112 152H201Q217 152 217 137V133Z"  />
<glyph unicode=";" horiz-adv-x="259" d="M287 527L267 414Q265 406 259 401T244 395H155Q138 395 138 411V414L158 527Q160 535 166 541T181 547H270Q287 547 287 530V527ZM220 143Q220 139 217 133L93 -77Q88 -86 84 -91T71 -97H2Q-11 -97 -11 -85Q-11 -83 -9 -77L89 133Q98 152 113 152H209Q220 152 220 143Z"  />
<glyph unicode="&lt;" horiz-adv-x="610" d="M558 153Q558 148 555 144T546 139H436Q428 139 424 142T414 150L183 352Q171 363 166 371T160 391Q160 403 165 411T183 430L414 632Q419 637 423 640T436 643H546Q551 643 554 639T558 629Q558 621 552 617L292 391L552 165Q558 160 558 153Z"  />
<glyph unicode="=" horiz-adv-x="610" d="M612 477Q612 469 606 465T592 461H187Q179 461 173 465T167 477V547Q167 555 173 559T187 563H592Q600 563 606 559T612 547V477ZM612 235Q612 227 606 223T592 219H187Q179 219 173 223T167 235V305Q167 313 173 317T187 321H592Q600 321 606 317T612 305V235Z"  />
<glyph unicode="&gt;" horiz-adv-x="610" d="M608 391Q608 379 603 371T585 352L354 150Q349 145 345 142T332 139H222Q217 139 214 143T210 153Q210 160 216 165L476 391L216 617Q210 621 210 629Q210 634 213 638T222 643H332Q340 643 344 640T354 632L585 430Q597 419 602 411T608 391Z"  />
<glyph unicode="?" horiz-adv-x="437" d="M513 620Q513 614 513 608T511 595L509 579Q505 547 484 511T413 425L339 353Q314 329 298 312T277 271L270 233Q268 225 262 220T247 214H164Q148 214 148 229V233L155 271Q159 295 165 313T180 347T203 380T238 418L315 492Q337 513 348 534T362 579L364 595V597V602Q364 618 353 625T312 632Q275 632 235 629T161 621H160H157Q142 621 142 636Q142 638 142 639T143 643L154 705Q156 717 159 723T177 733Q210 741 252 746T333 751Q419 751 466 719T513 620ZM256 132L236 19Q234 11 228 6T213 0H123Q106 0 106 16V18V19L126 132Q128 140 135 146T150 152H240Q256 152 256 136V133V132Z"  />
<glyph unicode="@" horiz-adv-x="772" d="M778 395Q778 387 778 379T776 362Q766 269 736 209T654 112T533 62T373 48Q302 48 260 79T217 172Q217 182 218 190T221 209L243 326Q259 411 315 451T454 491Q464 491 480 490T515 487T551 482T585 476Q605 472 605 454Q605 449 604 446L543 144Q582 150 610 168T656 215T684 281T699 362Q700 370 700 378T701 395Q701 437 688 473T649 536T581 577T483 592Q351 592 271 527T166 344L134 186Q130 169 128 155T126 124Q126 41 182 -4T357 -49Q375 -49 394 -49T433 -47T471 -45T503 -42H509Q515 -42 515 -48V-51L511 -88Q509 -100 496 -101Q473 -104 436 -107T350 -111Q282 -111 227 -96T133 -50T72 23T50 123Q50 139 52 154T57 186L89 349Q119 501 220 580T491 660Q563 660 617 638T706 580T760 495T778 395ZM488 397Q474 399 461 400T434 402Q396 402 377 384T348 322L325 210Q323 204 323 196T322 182Q322 157 338 147T390 137H410Q418 137 424 137T438 138L488 397Z"  />
<glyph unicode="A" horiz-adv-x="646" d="M630 20Q630 12 626 6T609 0H507Q496 0 494 5T491 17L479 207H249L169 17Q166 10 162 5T147 0H37Q22 0 22 13Q22 16 24 22L298 649Q313 684 332 704T371 734T413 748T455 751Q474 751 494 747T532 732T561 700T576 649L630 22V20ZM452 618Q451 627 449 630T439 634Q431 634 428 631T420 618L296 321H472L452 618Z"  />
<glyph unicode="B" horiz-adv-x="650" d="M251 741Q271 744 315 747T419 751Q555 751 625 707T696 565Q696 537 690 509T668 457T629 412T569 377Q607 360 624 326T642 253Q642 181 618 132T549 51T440 6T295 -8Q234 -8 191 -5T124 3Q104 7 94 15T83 41Q83 45 83 48T85 57L196 687Q201 714 213 725T251 741ZM290 431H417Q458 431 485 441T528 469T550 510T557 560Q557 601 521 618T399 636Q381 636 362 636T326 634L290 431ZM233 109Q252 109 264 109T285 108T300 107T315 107Q411 107 458 136T505 246Q505 263 500 278T483 304T450 322T399 329H272L233 109Z"  />
<glyph unicode="C" horiz-adv-x="568" d="M470 751Q528 751 571 745T626 735Q638 732 642 727T644 712L632 645Q630 635 627 629T606 624Q593 625 575 626T536 629T493 631T451 632Q377 632 334 590T273 445L248 298Q242 260 242 232Q242 197 249 174T272 136T309 117T360 111Q380 111 402 112T445 114T484 116T517 119Q533 121 535 115T535 98L523 31Q521 20 515 16T497 8Q491 6 476 4T440 -1T393 -6T337 -8Q292 -8 250 3T174 42T121 114T101 225Q101 242 103 260T108 298L133 445Q150 545 184 605T264 698T363 741T470 751Z"  />
<glyph unicode="D" horiz-adv-x="667" d="M696 513Q696 481 690 445L665 298Q639 143 548 68T297 -8Q270 -8 241 -7T184 -4T135 0T102 4Q80 7 80 27Q80 32 81 35L200 708Q203 723 210 730T231 739Q243 741 265 743T315 747T373 750T430 751Q558 751 627 688T696 513ZM558 508Q558 546 548 570T518 609T471 628T410 634Q382 634 362 633T325 631L234 112Q250 111 269 110T317 109Q354 109 388 118T450 149T498 207T527 298L552 445Q558 481 558 508Z"  />
<glyph unicode="E" horiz-adv-x="576" d="M438 751Q483 751 513 750T565 746T600 742T626 737Q638 735 641 731T642 716L631 652Q629 644 625 638T607 632H403Q359 632 339 614T309 546L290 438H561Q569 438 574 435T578 418L565 346Q563 338 558 332T541 326H270L248 197Q245 177 245 164Q245 134 261 123T312 111H516Q524 111 529 107T532 91L521 27Q519 16 514 12T497 6Q485 4 470 2T433 -3T381 -6T305 -8Q263 -8 227 0T163 28T121 77T106 150Q106 174 110 197L171 546Q183 613 207 653T265 716T343 744T438 751Z"  />
<glyph unicode="F" horiz-adv-x="576" d="M438 751Q476 751 504 750T553 747T592 743T626 737Q640 735 642 731T642 716L631 652Q629 644 625 638T607 632H403Q359 632 339 614T309 546L290 438H561Q575 438 577 432T578 418L565 346Q563 338 559 332T541 326H270L217 20Q215 12 208 6T193 0H95Q79 0 79 16V20L171 546Q182 610 204 650T260 712T337 743T438 751Z"  />
<glyph unicode="G" horiz-adv-x="635" d="M458 751Q494 751 527 749T588 744T637 738T670 733Q682 731 685 726T686 712L674 645Q672 634 667 628T647 624Q613 627 568 629T460 632Q416 632 385 622T331 588T296 529T273 443L248 299Q242 261 242 234Q242 198 251 174T274 136T306 117T343 111Q371 111 395 111T442 114L487 369Q489 377 493 383T510 389H609Q617 389 622 385T625 369L566 33Q563 13 543 9Q504 1 452 -3T322 -8Q291 -8 253 3T181 42T124 114T101 227Q101 244 102 261T108 299L133 443Q150 540 185 600T264 694T359 739T458 751Z"  />
<glyph unicode="H" horiz-adv-x="712" d="M748 743Q761 743 764 738T765 724L641 20Q639 12 635 6T617 0H518Q499 0 502 20L555 326H271L218 20Q216 12 212 6T194 0H95Q76 0 79 20L203 724Q205 732 209 737T226 743H325Q345 743 342 724L293 448H577L626 724Q629 743 649 743H748Z"  />
<glyph unicode="I" horiz-adv-x="289" d="M325 743Q345 743 342 724L218 20Q216 12 212 6T194 0H95Q84 0 81 6T79 20L203 724Q206 743 226 743H325Z"  />
<glyph unicode="J" horiz-adv-x="289" d="M325 743Q333 743 338 739T342 724L210 -21Q196 -101 151 -134T25 -167Q14 -167 1 -166T-23 -164T-42 -161T-54 -159Q-63 -156 -62 -145L-49 -74Q-47 -66 -43 -61T-26 -56H40Q54 -56 60 -50T71 -21L203 724Q206 743 226 743H325Z"  />
<glyph unicode="K" horiz-adv-x="643" d="M744 733Q744 725 734 715L412 383L606 21Q609 15 609 11Q609 0 592 0H466Q450 0 445 11L276 352L218 20Q216 7 209 4T194 0H95Q76 0 79 20L202 724Q204 732 208 737T226 743H325Q334 743 338 740T341 724L287 416L580 735Q585 740 591 741T605 743H727Q744 743 744 733Z"  />
<glyph unicode="L" horiz-adv-x="516" d="M512 91L501 27Q499 16 494 12T477 6Q465 3 445 1T400 -4T350 -7T305 -8Q272 -8 237 -2T173 23T126 71T107 150Q107 161 107 172T110 197L202 723Q204 731 208 737T226 743H325Q344 743 341 723L249 197Q246 177 246 163Q246 134 261 123T312 111H496Q512 111 512 95V91Z"  />
<glyph unicode="M" horiz-adv-x="792" d="M808 743Q829 743 836 732T841 703L720 15Q718 7 713 4T700 0H599Q591 0 588 6T587 20L669 485Q670 490 670 492Q670 495 668 495Q665 495 661 489L532 298Q527 290 521 286T497 281H396Q382 281 376 285T367 298L303 489Q301 495 299 495Q296 495 295 485L213 20Q211 12 208 6T193 0H92Q85 0 81 3T78 15L199 703Q202 720 215 731T246 743H323Q339 743 346 737T356 719L453 413Q455 406 456 403T461 399Q466 399 468 402T475 413L680 719Q687 730 698 736T721 743H808Z"  />
<glyph unicode="N" horiz-adv-x="712" d="M749 743Q757 743 762 739T765 724L644 40Q641 23 628 12T597 0H503Q485 0 471 4T448 36L305 523Q302 531 298 531Q292 531 291 523L203 20Q201 12 198 6T180 0H95Q87 0 82 4T79 20L199 703Q202 720 215 731T246 743H347Q363 743 371 737T385 711L535 197Q537 189 541 189Q546 189 548 198L641 724Q644 743 663 743H749Z"  />
<glyph unicode="O" horiz-adv-x="678" d="M709 513Q709 496 707 478T702 439L679 304Q664 217 634 157T560 61T461 8T339 -8Q285 -8 242 7T167 51T119 125T102 227Q102 245 103 264T109 304L132 439Q147 527 177 586T251 682T350 735T472 751Q526 751 569 736T644 690T692 615T709 513ZM569 513Q569 578 540 604T451 630Q373 630 331 586T272 439L249 304Q242 263 242 229Q242 164 271 139T360 113Q440 113 481 159T539 304L562 439Q566 460 567 478T569 513Z"  />
<glyph unicode="P" horiz-adv-x="626" d="M200 708Q203 723 212 729T237 738Q277 744 328 747T435 751Q565 751 625 700T686 548Q686 490 667 441T606 355T502 298T352 277Q332 277 307 278T264 281L218 20Q216 12 212 6T195 0H95Q83 0 80 6T79 20L200 708ZM283 394Q289 394 301 394T327 393T353 392T372 391Q417 391 450 402T506 435T538 485T549 548Q549 599 517 617T415 636Q407 636 395 636T369 635T344 634T325 632L283 394Z"  />
<glyph unicode="Q" horiz-adv-x="679" d="M709 513Q709 496 707 478T702 439L679 304Q666 228 641 173T581 81T501 24T403 -4L400 -24Q399 -28 399 -34Q399 -48 406 -52T424 -56H521Q532 -56 538 -58T542 -72L531 -134Q528 -149 506 -155Q498 -157 486 -159T460 -162T432 -165T405 -166Q342 -166 303 -141T264 -57Q264 -43 267 -26L271 -1Q193 16 148 73T102 227Q102 245 103 264T109 304L132 439Q147 527 177 586T251 682T350 735T472 751Q526 751 569 736T644 690T692 615T709 513ZM569 513Q569 578 540 604T451 630Q373 630 331 586T272 439L249 304Q242 263 242 229Q242 164 271 139T360 113Q440 113 481 159T539 304L562 439Q566 460 567 478T569 513Z"  />
<glyph unicode="R" horiz-adv-x="653" d="M688 557Q688 517 677 479T643 409T588 351T511 312L617 20Q621 10 616 5T603 0H488Q480 0 476 5T469 20L374 287H354Q334 287 313 288T265 291L218 20Q216 12 213 6T195 0H95Q76 0 79 20L200 708Q203 723 212 729T237 738Q277 744 328 747T435 751Q491 751 537 740T617 705T669 645T688 557ZM548 551Q548 597 514 614T414 632Q406 632 394 632T368 631T344 630T325 628L285 403Q291 403 303 403T329 402T355 401T374 400Q413 400 445 407T500 433T535 480T548 551Z"  />
<glyph unicode="S" horiz-adv-x="570" d="M427 751Q452 751 480 750T534 745T582 739T616 733Q623 731 628 728T631 714L618 640Q616 630 613 625T596 622Q546 627 501 629T400 632Q379 632 358 629T320 617T293 594T282 557Q282 531 296 513T349 472L457 405Q518 367 540 325T563 225Q563 163 539 119T474 46T377 5T261 -8Q204 -8 163 -3T87 10Q80 12 75 15T71 30L84 102Q86 110 90 116T108 121Q123 119 147 118T197 115T246 112T284 111Q310 111 334 116T376 132T405 160T416 204Q416 232 402 252T348 299L230 378Q204 395 188 415T161 458T146 503T142 547Q142 607 166 646T231 709T322 742T427 751Z"  />
<glyph unicode="T" horiz-adv-x="579" d="M363 20Q361 12 357 6T339 0H240Q221 0 224 20L331 627H156Q148 627 143 630T139 645L153 724Q155 736 161 739T176 743H665Q678 743 681 738T682 724L668 645Q666 634 660 631T645 627H470L363 20Z"  />
<glyph unicode="U" horiz-adv-x="690" d="M732 743Q751 743 748 724L668 275Q653 191 624 137T554 50T461 5T346 -8Q293 -8 250 4T176 43T129 108T112 202Q112 219 113 237T118 275L198 724Q200 732 206 737T221 743H320Q340 743 337 724L257 275Q249 229 249 200Q249 149 275 128T364 107Q404 107 432 116T479 146T509 199T529 275L609 724Q612 743 632 743H732Z"  />
<glyph unicode="V" horiz-adv-x="656" d="M745 743Q757 743 759 736T758 721L484 94Q469 59 449 39T407 9T364 -5T327 -8Q311 -8 291 -5T253 8T222 39T206 94L152 721Q151 734 157 738T173 743H276Q291 743 292 726L331 125Q332 116 334 113T344 109Q352 109 355 112T363 125L614 726Q617 733 622 738T636 743H745Z"  />
<glyph unicode="W" horiz-adv-x="862" d="M952 743Q971 743 966 726L757 73Q742 26 717 9T653 -8H602Q568 -8 552 10T533 72L512 402Q511 409 511 411T508 413Q504 413 499 402L362 72Q344 28 322 10T265 -8H208Q176 -8 153 10T132 73L153 726Q153 734 159 738T173 743H275Q281 743 285 740T289 725L256 128Q256 113 261 113Q264 113 266 117T271 128L418 479Q426 497 441 510T489 524H558Q590 524 600 511T613 479L638 128Q640 113 642 113Q644 113 649 128L826 725Q828 733 832 738T846 743H952Z"  />
<glyph unicode="X" horiz-adv-x="640" d="M731 743Q739 743 741 737T739 724L461 365L616 20Q617 18 617 15Q617 9 612 5T598 0H497Q483 0 475 20L367 261L185 20Q170 0 155 0H40Q32 0 30 3T27 11Q27 15 30 20L312 384L159 724Q155 732 158 737T176 743H277Q288 743 292 737T300 724L407 486L586 724Q595 736 601 739T620 743H731Z"  />
<glyph unicode="Y" horiz-adv-x="615" d="M718 730Q718 726 715 720L502 373Q482 340 464 323T428 298L379 20Q377 12 371 6T356 0H256Q238 0 241 20L290 298Q275 305 263 322T242 373L152 720Q145 743 170 743H275Q289 743 293 727L361 429Q364 416 366 414T374 411Q382 411 385 413T396 429L568 727Q577 743 593 743H704Q718 743 718 730Z"  />
<glyph unicode="Z" horiz-adv-x="598" d="M200 622Q181 622 184 640L199 724Q202 743 221 743H624Q676 743 670 705L660 647Q658 636 653 626T639 606L249 139Q243 131 243 127Q243 122 251 122H555Q574 122 571 104L557 20Q555 9 551 5T533 0H96Q46 0 52 37L61 92Q63 101 67 110T81 130L478 605Q483 612 483 616Q483 622 474 622H200Z"  />
<glyph unicode="[" horiz-adv-x="356" d="M456 727L443 654Q440 637 421 637H316L188 -88H293Q309 -88 309 -102V-105L297 -178Q294 -194 275 -194H53Q46 -194 43 -190T39 -179V-175L198 724Q200 732 205 737T218 743H440Q456 743 456 730V727Z"  />
<glyph unicode="\" horiz-adv-x="385" d="M369 11Q369 3 364 -2T350 -8H255Q247 -8 244 -2T240 13L146 723V725Q146 732 152 737T166 743H260Q268 743 271 737T276 723L369 13V11H369Z"  />
<glyph unicode="]" horiz-adv-x="356" d="M414 724L255 -175Q253 -183 248 -188T235 -194H13Q-3 -194 -3 -181V-178L9 -105Q12 -88 31 -88H136L264 637H159Q143 637 143 650V653L156 726Q159 743 178 743H400Q407 743 410 739T414 728V724Z"  />
<glyph unicode="^" horiz-adv-x="610" d="M608 573Q608 564 596 564H494Q483 564 478 568T464 580L375 682L286 580Q278 572 273 568T256 564H154Q142 564 142 573Q142 578 147 585L260 733Q268 744 274 747T292 751H458Q470 751 476 748T490 733L603 585Q608 578 608 573Z"  />
<glyph unicode="_" horiz-adv-x="523" d="M544 -59L537 -98Q535 -106 529 -110T514 -114H-31Q-48 -114 -48 -101V-98L-41 -59Q-38 -43 -19 -43H526Q534 -43 539 -46T544 -56V-59Z"  />
<glyph unicode="`" horiz-adv-x="415" d="M379 636Q379 627 369 627H295Q286 627 283 630T274 640L177 764Q174 768 174 771Q174 779 186 779H280Q290 779 294 776T304 764L377 644Q379 641 379 636Z"  />
<glyph unicode="a" horiz-adv-x="561" d="M379 571Q427 571 478 564T575 545Q589 541 594 537T597 518L510 20Q508 12 501 6T486 0H406Q397 0 393 6T390 20L394 49Q352 17 314 5T239 -8Q204 -8 175 3T123 36T89 91T76 169Q76 191 78 212T83 249L95 320Q115 438 186 504T379 571ZM454 456Q440 459 414 461T360 463Q328 463 305 452T267 422T242 377T227 320L212 236Q207 210 207 196T206 172Q206 129 225 115T274 100Q303 100 334 111T399 142L454 456Z"  />
<glyph unicode="b" horiz-adv-x="577" d="M593 381Q593 367 592 352T588 320L575 243Q554 117 486 55T292 -8Q244 -8 192 -1T95 18Q79 23 75 28T73 45L196 741Q198 749 202 755T219 761H311Q319 761 324 757T328 741L296 564Q325 568 350 569T394 571Q445 571 482 557T544 518T581 458T593 381ZM462 379Q462 420 443 441T375 463Q357 463 328 461T277 456L216 107Q230 104 257 102T311 100Q343 100 366 112T404 143T429 189T443 243L456 320Q462 353 462 379Z"  />
<glyph unicode="c" horiz-adv-x="468" d="M379 571Q425 571 456 567T505 558Q517 555 520 550T522 532L510 467Q508 459 504 455T487 452Q463 455 436 457T359 459Q341 459 323 453T289 433T260 393T240 328L223 235Q220 221 219 209T218 185Q218 159 224 144T241 119T266 107T296 104Q320 104 338 104T372 106T400 108T427 111Q448 114 445 96L433 31Q431 19 427 14T408 5Q390 0 357 -4T277 -8Q234 -8 199 6T139 45T100 106T86 184Q86 196 87 208T91 235L108 328Q121 399 147 446T208 520T286 559T379 571Z"  />
<glyph unicode="d" horiz-adv-x="577" d="M626 761Q634 761 639 757T643 741L520 45Q518 34 512 29T488 18Q439 6 385 -1T283 -8Q231 -8 193 7T131 48T95 111T83 188Q83 202 84 215T88 243L101 320Q112 388 135 435T194 513T277 557T385 571Q403 571 427 570T479 564L511 741Q513 749 517 755T534 761H626ZM460 456Q440 459 412 461T366 463Q334 463 312 455T274 428T249 383T233 320L220 243Q214 207 214 181Q214 139 233 120T302 100Q329 100 356 102T399 107L460 456Z"  />
<glyph unicode="e" horiz-adv-x="574" d="M585 366Q585 352 584 338T580 309L572 261Q567 236 548 236H222Q220 225 219 216T217 195Q217 154 240 130T319 105Q374 105 423 109T504 116Q526 118 523 101L511 35Q509 23 505 17T486 9Q461 4 439 1T394 -4T345 -7T285 -8Q252 -8 217 2T154 35T107 97T88 193Q88 207 89 222T93 253L104 315Q116 385 140 434T201 513T284 557T389 571Q439 571 476 556T537 513T573 448T585 366ZM455 368Q455 412 433 434T369 457Q309 457 279 421T239 330H451Q453 340 454 349T455 368Z"  />
<glyph unicode="f" horiz-adv-x="395" d="M416 773Q442 773 464 771T492 766Q502 764 505 761T507 750L497 690Q494 673 479 673H434Q416 673 404 671T385 662T372 643T364 613L355 564H451Q463 564 466 560T468 544L457 484Q455 476 451 471T434 465H338L255 -6Q246 -59 228 -91T185 -139T129 -161T60 -166Q41 -166 25 -165T-5 -158Q-11 -156 -16 -153T-20 -142L-10 -83Q-7 -66 8 -66H53Q71 -66 83 -64T102 -55T115 -36T123 -6L206 465L119 479Q100 482 103 498L111 544Q113 552 117 558T134 564H223L232 613Q242 667 259 698T301 746T354 768T416 773Z"  />
<glyph unicode="g" horiz-adv-x="577" d="M385 571Q433 571 487 564T581 545Q597 540 601 536T603 518L512 2Q502 -53 485 -91T437 -154T362 -189T252 -200Q179 -200 133 -191T69 -176Q57 -171 54 -167T53 -152L63 -99Q66 -82 85 -82H87Q103 -84 127 -86T178 -89T228 -92T270 -94Q327 -94 350 -75T380 -5L381 3Q358 -2 335 -4T290 -7Q246 -7 209 3T143 37T99 95T83 182Q83 196 84 211T88 243L101 320Q113 390 136 438T194 515T277 558T385 571ZM460 454Q446 457 420 460T366 463Q304 463 275 428T233 320L220 243Q217 225 215 210T213 180Q213 140 232 120T302 100Q320 100 348 102T399 108L460 454Z"  />
<glyph unicode="h" horiz-adv-x="592" d="M595 409Q595 380 591 361L531 21Q529 8 522 4T507 0H415Q395 0 399 21L459 361Q461 371 462 380T463 398Q463 432 443 446T374 461Q346 461 321 459T277 452L201 21Q199 13 194 7T177 0H85Q66 0 69 21L196 741Q198 749 203 755T219 761H311Q332 761 328 741L296 561Q319 566 344 568T394 571Q496 571 545 527T595 409Z"  />
<glyph unicode="i" horiz-adv-x="268" d="M318 767Q338 767 335 747L319 659Q317 651 311 645T296 639H199Q191 639 185 645T181 659L197 747Q199 755 204 761T221 767H318ZM279 564Q287 564 292 560T296 544L204 21Q202 13 198 7T180 0H88Q69 0 72 21L164 544Q166 552 171 558T187 564H279Z"  />
<glyph unicode="j" horiz-adv-x="268" d="M317 767Q339 767 335 747L319 659Q317 651 313 645T295 639H199Q190 639 185 645T182 659L198 747Q200 755 205 761T221 767H317ZM296 544L193 -42Q185 -88 171 -118T135 -167T84 -192T17 -200Q0 -200 -15 -199T-48 -194Q-67 -191 -64 -176L-53 -111Q-50 -95 -29 -95H16Q40 -95 48 -84T61 -42L164 544Q166 552 172 558T187 564H279Q296 564 296 547V544Z"  />
<glyph unicode="k" horiz-adv-x="549" d="M611 555Q611 549 605 543L365 296L520 20Q524 13 521 7T510 0H391Q383 0 379 3T366 20L243 258L201 21Q199 13 194 7T177 0H85Q66 0 69 21L196 741Q198 749 204 755T219 761H311Q319 761 324 757T328 741L256 337L454 552Q465 564 479 564H597Q611 564 611 555Z"  />
<glyph unicode="l" horiz-adv-x="272" d="M317 761Q337 761 333 741L206 21Q204 13 200 7T183 0H90Q71 0 74 21L201 741Q203 749 208 755T224 761H317Z"  />
<glyph unicode="m" horiz-adv-x="848" d="M853 425Q853 395 847 361L787 21Q785 13 781 7T763 0H671Q652 0 655 21L715 361Q717 375 718 386T720 407Q720 436 706 447T660 458Q646 458 618 453T559 433Q560 417 559 399T554 361L494 21Q492 13 488 7T470 0H378Q358 0 362 21L422 361Q425 376 426 388T427 410Q427 438 414 448T370 458Q339 458 272 425L201 21Q199 13 195 7T177 0H85Q66 0 69 21L161 544Q163 552 169 558T184 564H271Q281 564 285 558T288 544L284 523Q319 543 353 557T432 571Q475 571 500 557T539 522Q577 547 620 559T715 571Q787 571 820 532T853 425Z"  />
<glyph unicode="n" horiz-adv-x="592" d="M595 421Q595 404 594 386T588 347L531 21Q529 13 525 7T507 0H415Q407 0 402 5T399 21L456 347Q459 366 461 380T463 407Q463 436 449 447T401 459Q368 459 338 450T272 423L201 21Q199 13 195 7T177 0H85Q77 0 72 5T69 21L161 544Q163 552 169 558T189 564H269Q279 564 284 561T288 544L284 523Q332 551 373 561T450 571Q491 571 518 560T563 528T587 481T595 421Z"  />
<glyph unicode="o" horiz-adv-x="574" d="M588 374Q588 350 583 322L568 241Q521 -8 286 -8Q235 -8 198 8T135 53T98 117T86 193Q86 205 87 217T90 241L105 322Q128 446 199 508T388 571Q439 571 477 555T539 512T576 449T588 374ZM455 366Q455 457 368 457Q322 457 286 427T237 322L222 241Q220 229 219 218T218 197Q218 106 306 106Q359 106 391 138T436 241L451 322Q453 334 454 345T455 366Z"  />
<glyph unicode="p" horiz-adv-x="577" d="M593 378Q593 364 592 350T588 320L575 243Q553 112 483 52T292 -8Q274 -8 249 -7T197 -1L166 -178Q164 -186 160 -192T142 -198H50Q42 -198 37 -194T34 -178L156 518Q158 529 164 534T188 545Q237 557 291 564T394 571Q444 571 481 557T543 518T580 457T593 378ZM462 379Q462 420 443 441T375 463Q348 463 320 461T277 456L216 107Q236 104 264 102T311 100Q343 100 366 111T404 142T429 188T443 243L456 320Q462 353 462 379Z"  />
<glyph unicode="q" horiz-adv-x="577" d="M383 571Q431 571 483 564T581 545Q597 540 601 535T603 518L481 -178Q479 -186 475 -192T457 -198H365Q346 -198 349 -178L380 -1Q351 -5 326 -6T283 -8Q191 -8 137 41T83 185Q83 199 84 213T88 243L101 320Q113 388 135 435T193 513T275 557T383 571ZM460 456Q446 459 420 461T366 463Q334 463 312 455T274 428T249 383T233 320L220 243Q214 211 214 185Q214 143 233 122T302 100Q320 100 348 102T399 107L460 456Z"  />
<glyph unicode="r" horiz-adv-x="375" d="M452 551L439 479Q437 471 433 465T416 459Q392 459 358 454T272 423L201 21Q199 13 195 7T177 0H85Q65 0 69 21L161 544Q163 552 168 558T184 564H271Q292 564 288 544L284 523Q327 556 365 563T436 571Q446 571 449 567T452 555V551Z"  />
<glyph unicode="s" horiz-adv-x="489" d="M328 571Q373 571 418 566T505 550Q513 548 517 544T519 527L509 470Q507 459 503 454T486 451Q476 452 458 454T418 458T373 461T328 463Q314 463 301 462T276 457T258 444T251 422Q251 409 256 400T281 376L398 296Q443 265 457 234T472 170Q472 123 454 90T406 34T336 2T251 -8Q239 -8 218 -8T172 -5T121 2T71 12Q53 17 56 35L67 95Q69 103 73 108T91 111Q109 109 132 107T177 104T220 101T251 100Q288 100 312 110T337 156Q337 168 330 179T304 204L199 276Q156 305 137 337T117 419Q117 464 136 493T186 540T254 564T328 571Z"  />
<glyph unicode="t" horiz-adv-x="405" d="M367 682Q378 684 382 679T385 667L366 564H456Q464 564 469 561T473 544L463 485Q461 475 456 470T439 465H349L294 151Q289 126 289 116Q289 102 296 99T323 95H376Q384 95 390 93T394 80L383 17Q380 2 361 -1Q342 -4 326 -6T292 -8Q226 -8 191 17T156 102Q156 113 157 125T161 151L216 465L124 479Q105 482 108 499L116 544Q118 552 122 558T139 564H233L248 646Q250 654 256 659T271 666L367 682Z"  />
<glyph unicode="u" horiz-adv-x="592" d="M605 564Q626 564 622 543L530 20Q528 12 522 6T507 0H421Q413 0 409 5T404 18V20L407 41Q370 20 330 6T247 -9Q218 -9 191 -1T142 25T109 72T96 143Q96 160 97 178T103 217L160 543Q162 551 167 557T184 564H276Q296 564 292 543L235 217Q232 198 230 184T228 157Q228 125 241 115T289 105Q306 105 325 109T361 118T394 130T419 141L490 543Q492 551 497 557T513 564H605Z"  />
<glyph unicode="v" horiz-adv-x="551" d="M607 564Q621 564 623 557T621 541L415 86Q403 58 387 40T352 12T313 -3T274 -8Q255 -8 237 -4T204 11T179 40T166 86L120 541Q117 564 139 564H235Q250 564 252 544L274 125Q275 111 279 106T289 100Q295 100 300 105T312 125L482 544Q487 558 494 561T509 564H607Z"  />
<glyph unicode="w" horiz-adv-x="819" d="M870 564Q881 564 886 560T886 541L716 81Q708 58 699 43T679 17T651 2T612 -3H585Q544 -3 526 16T504 75L479 381Q479 386 477 386Q475 386 473 381L340 75Q323 36 298 17T231 -3H204Q158 -3 145 16T130 81L120 541Q120 550 124 557T144 564H237Q245 564 248 559T252 546L243 123Q243 109 246 109Q249 109 255 123L397 459Q403 474 409 482T422 495T439 501T461 502H531Q557 502 567 495T579 459L603 123Q604 109 607 109Q610 109 615 123L753 546Q755 553 759 558T774 564H870Z"  />
<glyph unicode="x" horiz-adv-x="587" d="M431 0Q423 0 419 3T408 20L321 196L181 20Q170 7 164 4T150 0H41Q31 0 31 8Q31 13 36 20L270 300L149 544Q146 551 150 557T163 564H267Q275 564 279 560T289 544L365 390L486 544Q497 558 502 561T519 564H623Q636 564 636 555Q636 548 632 544L417 285L548 20Q551 13 548 7T535 0H431H431Z"  />
<glyph unicode="y" horiz-adv-x="559" d="M616 564Q627 564 630 558T629 541L359 -43Q340 -84 321 -113T276 -162T215 -191T128 -200Q103 -200 72 -196T24 -187Q16 -185 10 -182T6 -170L17 -106Q19 -95 23 -91T42 -88Q52 -89 67 -90T98 -92T128 -93T154 -94Q186 -94 205 -82T241 -30L254 0H243Q232 0 221 2T200 12T182 37T171 83L120 541Q118 556 124 560T142 564H234Q248 564 251 560T255 546L285 139Q286 126 288 122T298 117H304L487 547Q490 554 494 559T510 564H616Z"  />
<glyph unicode="z" horiz-adv-x="490" d="M507 564Q533 564 538 552T540 523L530 466Q529 462 528 455T521 443L238 124Q235 121 235 119Q235 117 241 117H453Q461 117 465 115T468 101L454 20Q452 12 448 6T430 0H80Q60 0 52 9T47 40L53 75Q56 89 60 97T73 115L368 448Q371 451 371 454Q371 457 367 457H149Q141 457 136 460T133 473L146 544Q148 558 154 561T169 564H507Z"  />
<glyph unicode="{" horiz-adv-x="363" d="M481 726L468 653Q465 637 446 637H399Q361 637 349 624T331 576L304 425Q298 391 289 367T267 326T237 297T199 273Q231 252 242 221T254 158Q254 137 251 121L225 -31Q222 -48 222 -60Q222 -78 232 -85T272 -92H318Q334 -92 334 -105V-107V-108L321 -181Q318 -198 299 -198H243Q201 -198 171 -189T123 -162T96 -122T87 -70Q87 -60 88 -51T91 -31L117 121Q120 137 120 153Q120 179 110 197T78 233L92 313Q127 334 144 359T170 425L197 576Q207 630 221 663T259 713T319 737T408 743H465Q481 743 481 729V727V726Z"  />
<glyph unicode="|" horiz-adv-x="274" d="M276 -174Q276 -182 271 -188T257 -194H162Q154 -194 148 -188T142 -174V723Q142 731 148 737T162 743H257Q265 743 270 737T276 723V-174H276Z"  />
<glyph unicode="}" horiz-adv-x="363" d="M367 233Q332 212 314 187T288 121L262 -31Q254 -79 241 -111T204 -162T143 -190T50 -198H-6Q-22 -198 -22 -184V-182V-181L-9 -108Q-6 -92 13 -92H59Q97 -92 109 -79T128 -31L154 121Q163 173 187 210T260 273Q231 293 218 318T204 379Q204 390 205 401T209 425L236 576Q239 592 239 604Q239 623 228 630T188 637H141Q125 637 125 650V652V653L138 726Q141 743 160 743H217Q300 743 337 707T374 614Q374 605 373 596T370 576L343 425Q340 407 340 392Q340 366 350 348T381 313L367 233Z"  />
<glyph unicode="~" horiz-adv-x="610" d="M614 475Q614 399 582 367T485 334Q468 334 447 337T410 352L322 413Q300 428 283 428Q267 428 257 420T247 388V362Q247 342 230 342H159Q141 342 141 362V388Q141 463 173 496T271 530Q288 530 309 526T345 511L433 451Q445 443 455 440T473 436Q491 436 499 444T508 475V501Q508 521 525 521H595Q614 521 614 501V475H614Z"  />
<glyph unicode="&#xA0;" horiz-adv-x="268" />
<glyph unicode="&#xA1;" horiz-adv-x="256" d="M290 544L270 431Q267 412 248 412H158Q142 412 142 427V431L162 544Q164 552 170 558T185 564H275Q290 564 290 548V544ZM241 327L166 -180Q164 -188 157 -194T142 -200H47Q30 -200 30 -184V-180L135 327Q137 335 143 341T158 347H223Q231 347 236 342T241 330V327Z"  />
<glyph unicode="&#xA2;" horiz-adv-x="630" d="M571 541Q571 539 571 537T570 532L558 467Q556 459 551 456T538 452H535Q520 454 508 455T481 457T449 458T407 459Q389 459 371 453T337 433T308 393T288 328L271 235Q267 212 267 191Q267 165 273 149T291 122T315 108T344 104Q368 104 386 104T418 105T446 107T475 111H478Q484 111 488 108T493 99V96L481 31Q479 19 475 14T456 5Q442 2 420 -1T369 -7L355 -87Q353 -95 346 -101T331 -107H249Q233 -107 233 -91V-87L249 3Q196 20 165 68T134 184Q134 196 135 208T139 235L156 328Q166 385 184 424T226 490T281 533T347 560L362 648Q364 656 371 662T386 668H468Q484 668 484 652V648L471 570Q500 568 520 565T553 558Q571 554 571 541Z"  />
<glyph unicode="&#xA3;" horiz-adv-x="630" d="M682 709Q682 707 682 706T681 702L668 629Q665 611 649 611H646Q616 614 579 617T486 621Q430 621 401 603T363 533L346 437H531Q548 437 548 421V418L534 343Q531 325 512 325H326L304 200Q299 169 289 149T265 111H556Q573 111 573 97V94L559 18Q557 10 551 5T536 0H109Q101 0 98 5T95 16Q95 23 96 26L105 77Q107 85 110 90T117 100Q131 117 147 144T168 200L190 325H140Q124 325 124 340V343L138 418Q140 426 146 431T161 437H210L227 533Q237 588 255 626T305 689T386 724T506 735Q525 735 548 734T593 730T635 726T666 721Q676 719 679 716T682 709Z"  />
<glyph unicode="&#xA4;" horiz-adv-x="630" d="M641 562Q641 554 634 547L549 463Q575 420 575 372Q575 320 548 277L631 193Q638 186 638 178Q638 172 633 167L586 119Q581 114 575 114Q567 114 560 121L474 207Q433 183 386 183Q336 183 295 208L210 124Q206 121 203 119T194 116Q189 116 184 121L137 169Q132 176 132 181Q132 189 139 196L223 279Q196 323 196 372Q196 419 220 460L136 544Q129 551 129 559Q129 566 134 571L182 619Q187 624 192 624Q200 624 208 616L290 534Q312 548 336 554T386 561Q435 561 478 535L562 619Q569 626 577 626Q583 626 588 621L636 573Q641 568 641 562ZM479 374Q479 393 472 409T453 438T423 458T387 465Q368 465 351 458T322 439T302 410T294 374Q294 355 301 338T321 309T351 289T387 281Q406 281 423 288T452 308T472 338T479 374Z"  />
<glyph unicode="&#xA5;" horiz-adv-x="630" d="M734 733Q734 728 729 720L575 493H668Q685 493 685 478V475L674 412Q672 404 666 399T651 394H508L441 295L439 283H631Q648 283 648 268V265L637 202Q635 194 629 189T614 184H421L393 20Q391 12 385 6T370 0H267Q253 0 253 16V20L281 184H87Q72 184 72 198V202L83 265Q85 273 91 278T106 283H299L301 295L268 394H124Q109 394 109 408V412L120 475Q122 483 128 488T143 493H237L163 720Q162 723 162 727Q162 743 180 743H289Q296 743 299 738T304 727L390 433L580 727Q584 733 589 738T602 743H720Q734 743 734 733Z"  />
<glyph unicode="&#xA6;" horiz-adv-x="274" d="M269 363Q269 355 264 349T250 342H155Q147 342 141 348T135 363V708Q135 716 141 722T155 728H250Q258 728 263 722T269 708V363ZM269 -190Q269 -198 264 -204T250 -211H155Q147 -211 141 -205T135 -190V155Q135 163 141 169T155 175H250Q258 175 263 169T269 155V-190Z"  />
<glyph unicode="&#xA7;" horiz-adv-x="573" d="M635 714L621 635Q619 627 616 622T603 617H599Q554 621 505 624T406 628Q383 628 361 626T323 615T296 591T286 547Q286 528 300 512T352 472L460 405Q517 370 542 328T568 237Q568 203 553 162T508 89Q514 78 519 57T525 15Q525 -44 504 -87T444 -159T352 -202T234 -216Q177 -216 130 -211T48 -197Q42 -195 37 -191T32 -181V-178L45 -100Q47 -92 54 -87T69 -82H71Q116 -86 160 -90T252 -94Q310 -94 345 -69T380 12Q380 36 366 51T314 91L202 162Q154 193 130 239T105 334Q105 368 120 405T162 473Q154 493 150 511T145 547Q145 605 168 644T229 707T318 741T424 751Q449 751 478 750T534 745T584 739T619 733Q625 731 630 728T635 717V715V714ZM443 228Q443 254 426 276T363 326L296 367Q282 376 268 385T246 401Q231 385 226 372T220 333Q220 310 236 292T294 247L359 206Q379 193 397 179T423 157Q431 168 437 185T443 228Z"  />
<glyph unicode="&#xA8;" horiz-adv-x="415" d="M497 747L481 659Q479 651 472 645T457 639H385Q377 639 372 643T367 656V659L383 747Q385 755 392 761T407 767H479Q487 767 492 762T497 750V747ZM297 747L281 659Q279 651 272 645T257 639H185Q177 639 172 643T167 656V659L183 747Q185 755 192 761T207 767H279Q287 767 292 762T297 750V747Z"  />
<glyph unicode="&#xA9;" horiz-adv-x="750" d="M787 374Q787 306 761 246T690 142T585 71T456 45Q388 45 328 71T224 141T153 246T127 374Q127 442 153 502T223 608T328 679T456 706Q524 706 584 680T690 608T761 503T787 374ZM738 374Q738 432 716 483T655 573T566 634T456 657Q398 657 347 635T258 574T197 484T175 374Q175 316 197 265T257 176T347 116T456 94Q514 94 565 116T655 176T715 265T738 374ZM559 183Q559 172 545 169Q533 166 512 163T459 160Q385 160 341 204T296 347V407Q296 505 340 549T459 594Q490 594 512 591T545 585Q551 583 555 581T559 572V523Q559 515 555 513T546 511H544Q527 513 508 514T459 516Q444 516 430 511T406 494T389 460T383 407V347Q383 314 389 293T405 260T430 243T459 238Q485 238 506 239T544 243H546Q551 243 555 241T559 231V183Z"  />
<glyph unicode="&#xAA;" horiz-adv-x="335" d="M411 653Q411 638 408 622L374 431Q372 418 362 415Q303 400 244 400Q120 400 120 486V487Q120 492 120 496T121 506L122 513Q130 569 174 589T291 609H317L320 622Q322 627 322 631T322 641Q322 659 313 666T282 674Q253 674 229 673T188 669H187Q175 669 175 681V683L182 721Q185 732 199 736Q216 740 242 744T296 748Q352 748 381 725T411 653ZM308 557Q306 557 300 557T289 558Q276 558 263 557T237 550T217 537T206 513L205 506Q204 502 204 495Q204 478 215 471T255 464Q266 464 276 465T293 468L308 557Z"  />
<glyph unicode="&#xAB;" horiz-adv-x="689" d="M749 488Q749 483 745 480L518 282L664 84Q666 82 666 79Q666 74 662 70T649 66H565Q552 66 547 69T537 79L406 257Q396 272 396 284Q396 300 410 313L598 485Q606 492 611 495T630 498H736Q749 498 749 488ZM451 488Q451 483 447 480L220 282L366 84Q368 82 368 79Q368 74 364 70T351 66H267Q254 66 249 69T239 79L108 257Q98 272 98 284Q98 300 112 313L300 485Q308 492 313 495T332 498H438Q451 498 451 488Z"  />
<glyph unicode="&#xAC;" horiz-adv-x="630" d="M608 203Q608 195 602 189T588 183H526Q518 183 512 189T506 203V462H183Q175 462 169 466T163 478V548Q163 556 169 560T183 564H590Q598 564 603 560T608 547V203H608Z"  />
<glyph unicode="&#xAD;" horiz-adv-x="321" d="M338 339L327 276Q325 268 319 263T304 258H108Q92 258 92 272V276L103 339Q105 347 111 352T126 358H322Q338 358 338 343V339Z"  />
<glyph unicode="&#xAE;" horiz-adv-x="598" d="M667 484Q667 427 645 377T586 290T498 231T391 209Q334 209 284 230T197 289T138 377T116 484Q116 541 137 591T196 678T284 737T391 759Q448 759 498 738T585 679T645 591T667 484ZM620 484Q620 531 602 573T553 646T480 695T391 713Q344 713 303 695T230 646T181 573T163 484Q163 437 181 396T230 323T302 274T391 256Q438 256 480 274T553 323T602 395T620 484ZM524 330Q524 326 522 323T513 319H462Q455 319 451 327L381 445Q378 450 371 450H351H340V332Q340 327 337 323T328 319H282Q277 319 274 323T270 332V629Q270 643 275 648T292 656Q298 657 308 657T330 658T354 659T376 660Q440 660 476 637T512 555V549Q512 512 495 492T450 461L522 338Q524 334 524 330ZM445 555Q445 580 430 590T381 600H350H338V504Q341 504 347 504T360 504T373 503T381 503Q416 503 430 514T445 549V555Z"  />
<glyph unicode="&#xAF;" horiz-adv-x="415" d="M513 737L503 680Q501 672 495 667T480 662H170Q153 662 153 677V680L163 737Q165 745 171 750T186 755H496Q513 755 513 740V737Z"  />
<glyph unicode="&#xB0;" horiz-adv-x="353" d="M434 602Q434 571 422 544T390 497T343 465T285 453Q254 453 227 464T180 496T148 544T136 602Q136 633 147 660T179 707T227 739T285 751Q316 751 343 739T390 707T422 660T434 602ZM364 602Q364 634 341 657T285 681Q253 681 230 658T207 602Q207 570 230 547T285 524Q317 524 340 547T364 602Z"  />
<glyph unicode="&#xB1;" horiz-adv-x="610" d="M576 356Q576 348 570 344T556 340H394V179Q394 171 390 165T378 159H308Q300 159 296 165T292 179V340H131Q123 340 117 344T111 356V426Q111 434 117 438T131 442H292V604Q292 612 296 618T308 624H378Q386 624 390 618T394 604V442H556Q564 442 570 438T576 426V356ZM576 1Q576 -7 570 -11T556 -15H131Q123 -15 117 -11T111 1V57Q111 65 117 69T131 73H556Q564 73 570 69T576 57V1Z"  />
<glyph unicode="&#xB2;" horiz-adv-x="347" d="M189 744Q211 750 243 754T302 758Q360 758 392 738T425 673Q425 632 404 601T334 541L281 508Q243 485 219 465T187 414H359Q366 414 370 410T374 398L366 357Q365 350 359 345T346 340H117Q110 340 106 345T103 357L113 410Q128 500 224 556L284 592Q313 609 327 623T342 661Q342 675 330 681T290 687Q267 687 237 685T180 679Q172 679 169 684T166 696L172 728Q174 741 189 744Z"  />
<glyph unicode="&#xB3;" horiz-adv-x="347" d="M276 585Q307 585 319 604T331 652Q331 666 322 676T283 687Q255 687 231 685T177 679Q171 679 167 683T164 695L170 728Q171 733 176 737T189 744Q212 750 239 754T295 758Q349 758 384 736T419 659Q419 633 408 604T360 552Q389 531 389 482Q389 407 343 372T221 336Q192 336 167 339T119 349Q104 353 106 366L112 399Q114 407 117 412T133 415Q165 411 190 409T233 407Q248 407 260 410T282 421T297 444T302 482Q302 496 296 507T264 519H169Q152 519 155 535L161 569Q163 577 166 581T181 585H276Z"  />
<glyph unicode="&#xB4;" horiz-adv-x="415" d="M525 773Q525 768 519 764L379 640Q371 633 367 630T353 627H257Q249 627 249 633Q249 638 255 644L371 764Q379 772 384 775T399 779H514Q525 779 525 773Z"  />
<glyph unicode="&#xB5;" horiz-adv-x="587" d="M623 543L534 42Q532 32 526 26T503 16Q464 6 412 -1T296 -8Q262 -8 238 0T198 23L164 -172Q162 -180 156 -186T142 -192H45Q30 -192 30 -176V-173V-172L156 543Q158 551 164 557T179 564H272Q280 564 284 559T289 546V544V543L228 197Q226 190 226 184T226 171Q226 101 315 101Q339 101 366 104T413 112L489 543Q491 551 497 557T512 564H605Q613 564 618 559T623 546V544V543Z"  />
<glyph unicode="&#xB6;" horiz-adv-x="644" d="M713 731Q713 729 713 728T712 724L553 -176Q551 -184 546 -189T533 -195H498Q484 -195 484 -179V-176L634 676H573L423 -176Q421 -184 416 -189T403 -195H368Q354 -195 354 -179V-176L429 250H330Q284 250 246 261T181 295T139 350T124 426Q124 437 125 449T128 473L137 520Q147 574 173 615T236 685T319 728T417 743H699Q713 743 713 731Z"  />
<glyph unicode="&#xB7;" horiz-adv-x="259" d="M272 442L252 329Q250 321 244 315T229 309H140Q123 309 123 326V329L143 442Q145 450 151 455T166 461H255Q272 461 272 445V442Z"  />
<glyph unicode="&#xB8;" horiz-adv-x="403" d="M289 -40Q289 -43 283 -49L143 -172Q135 -179 131 -182T117 -186H26Q18 -186 18 -180Q18 -175 24 -169L137 -49Q145 -41 150 -38T166 -34H279Q289 -34 289 -40Z"  />
<glyph unicode="&#xB9;" horiz-adv-x="254" d="M245 751Q248 753 254 753T266 754H302Q312 754 315 749T316 737L249 357Q248 350 242 345T229 340H176Q169 340 165 345T162 357L217 664L157 645Q150 643 143 644T138 656L148 709Q149 716 158 720L245 751Z"  />
<glyph unicode="&#xBA;" horiz-adv-x="357" d="M432 627Q432 610 429 591L423 557Q408 471 364 436T250 400Q194 400 161 432T128 522Q128 539 131 557L137 591Q152 676 196 712T311 748Q368 748 400 716T432 627ZM343 624Q343 673 298 673Q268 673 251 654T225 591L219 557Q216 539 216 525Q216 474 263 474Q293 474 309 494T334 557L340 591Q343 610 343 624Z"  />
<glyph unicode="&#xBB;" horiz-adv-x="689" d="M700 280Q700 264 686 251L498 79Q490 72 485 69T466 66H360Q347 66 347 76Q347 81 351 84L578 282L432 480Q430 482 430 485Q430 490 434 494T447 498H531Q544 498 549 495T559 485L690 307Q700 292 700 280ZM402 280Q402 264 388 251L200 79Q192 72 187 69T168 66H62Q49 66 49 76Q49 81 53 84L280 282L134 480Q132 482 132 485Q132 490 136 494T149 498H233Q246 498 251 495T261 485L392 307Q402 292 402 280Z"  />
<glyph unicode="&#xBC;" horiz-adv-x="702" d="M245 751Q248 753 254 753T266 754H302Q312 754 315 749T316 737L249 357Q248 350 242 345T229 340H176Q169 340 165 345T162 357L217 664L157 645Q150 643 143 644T138 656L148 709Q149 716 158 720L245 751ZM742 737Q742 730 736 723L192 14Q184 3 180 0T168 -3H86Q78 -3 78 4Q78 10 84 18L628 726Q636 736 640 739T653 743H734Q742 743 742 737ZM732 113Q731 106 725 101T713 96H678L664 17Q663 10 658 5T645 0H589Q582 0 579 5T577 17L591 96H434Q428 96 424 99T421 113L429 157Q430 167 441 179L646 402Q651 407 655 410T668 414H717Q724 414 728 409T731 397L691 168H726Q732 168 736 163T739 151L732 113ZM626 288L518 168H605L626 288Z"  />
<glyph unicode="&#xBD;" horiz-adv-x="776" d="M245 751Q248 753 254 753T266 754H302Q312 754 315 749T316 737L249 357Q248 350 242 345T229 340H176Q169 340 165 345T162 357L217 664L157 645Q150 643 143 644T138 656L148 709Q149 716 158 720L245 751ZM742 737Q742 730 736 723L192 14Q184 3 180 0T168 -3H86Q78 -3 78 4Q78 10 84 18L628 726Q636 736 640 739T653 743H734Q742 743 742 737ZM580 404Q602 410 634 414T693 418Q751 418 783 398T816 333Q816 292 795 261T725 201L672 168Q634 145 610 125T578 74H750Q757 74 761 70T765 58L757 17Q756 10 750 5T737 0H508Q501 0 497 5T494 17L504 70Q519 160 615 216L675 252Q704 269 718 283T733 321Q733 335 721 341T681 347Q658 347 628 345T571 339Q563 339 560 344T557 356L563 388Q565 401 580 404Z"  />
<glyph unicode="&#xBE;" horiz-adv-x="775" d="M815 737Q815 730 809 723L265 14Q257 3 253 0T241 -3H159Q151 -3 151 4Q151 10 157 18L701 726Q709 736 713 739T726 743H807Q815 743 815 737ZM805 113Q804 106 798 101T786 96H751L737 17Q736 10 731 5T718 0H662Q655 0 652 5T650 17L664 96H507Q501 96 497 99T494 113L502 157Q503 167 514 179L719 402Q724 407 728 410T741 414H790Q797 414 801 409T804 397L764 168H799Q805 168 809 163T812 151L805 113ZM699 288L591 168H678L699 288ZM249 585Q280 585 292 604T304 652Q304 666 295 676T256 687Q228 687 204 685T150 679Q144 679 140 683T137 695L143 728Q144 733 149 737T162 744Q185 750 212 754T268 758Q322 758 357 736T392 659Q392 633 381 604T333 552Q362 531 362 482Q362 407 316 372T194 336Q165 336 140 339T92 349Q77 353 79 366L85 399Q87 407 90 412T106 415Q138 411 163 409T206 407Q221 407 233 410T255 421T270 444T275 482Q275 496 269 507T237 519H142Q125 519 128 535L134 569Q136 577 139 581T154 585H249Z"  />
<glyph unicode="&#xBF;" horiz-adv-x="437" d="M430 545L410 432Q408 424 401 418T386 412H296Q280 412 280 428V431V432L300 545Q302 553 308 558T323 564H413Q430 564 430 548V546V545ZM394 -72Q394 -74 394 -75T393 -79L382 -141Q380 -153 377 -159T359 -169Q326 -177 284 -182T203 -187Q117 -187 70 -155T23 -56Q23 -50 23 -44T25 -31L27 -15Q31 17 52 53T123 139L197 211Q222 235 238 252T259 293L266 331Q268 339 274 344T289 350H372Q388 350 388 335V331L381 293Q376 269 371 251T356 217T333 184T298 146L221 72Q199 51 188 30T174 -15L172 -31V-33V-38Q172 -54 183 -61T224 -68Q261 -68 301 -65T375 -57H376H379Q394 -57 394 -72Z"  />
<glyph unicode="&#xC0;" horiz-adv-x="646" d="M630 20Q630 12 626 6T609 0H507Q496 0 494 5T491 17L479 207H249L169 17Q166 10 162 5T147 0H37Q22 0 22 13Q22 16 24 22L298 649Q313 684 332 704T371 734T413 748T455 751Q474 751 494 747T532 732T561 700T576 649L630 22V20ZM452 618Q451 627 449 630T439 634Q431 634 428 631T420 618L296 321H472L452 618ZM570 803Q570 794 560 794H486Q477 794 474 797T465 807L368 931Q365 935 365 938Q365 946 377 946H471Q481 946 485 943T495 931L568 811Q570 808 570 803Z"  />
<glyph unicode="&#xC1;" horiz-adv-x="646" d="M630 20Q630 12 626 6T609 0H507Q496 0 494 5T491 17L479 207H249L169 17Q166 10 162 5T147 0H37Q22 0 22 13Q22 16 24 22L298 649Q313 684 332 704T371 734T413 748T455 751Q474 751 494 747T532 732T561 700T576 649L630 22V20ZM452 618Q451 627 449 630T439 634Q431 634 428 631T420 618L296 321H472L452 618ZM662 940Q662 935 656 931L516 807Q508 800 504 797T490 794H394Q386 794 386 800Q386 805 392 811L508 931Q516 939 521 942T536 946H651Q662 946 662 940Z"  />
<glyph unicode="&#xC2;" horiz-adv-x="646" d="M630 20Q630 12 626 6T609 0H507Q496 0 494 5T491 17L479 207H249L169 17Q166 10 162 5T147 0H37Q22 0 22 13Q22 16 24 22L298 649Q313 684 332 704T371 734T413 748T455 751Q474 751 494 747T532 732T561 700T576 649L630 22V20ZM452 618Q451 627 449 630T439 634Q431 634 428 631T420 618L296 321H472L452 618ZM638 803Q638 794 628 794H551Q542 794 539 797T530 807L473 888L388 807Q380 800 376 797T362 794H273Q265 794 265 800Q265 805 271 811L384 931Q392 939 397 942T412 946H542Q552 946 556 943T566 931L636 811Q638 808 638 803Z"  />
<glyph unicode="&#xC3;" horiz-adv-x="646" d="M630 20Q630 12 626 6T609 0H507Q496 0 494 5T491 17L479 207H249L169 17Q166 10 162 5T147 0H37Q22 0 22 13Q22 16 24 22L298 649Q313 684 332 704T371 734T413 748T455 751Q474 751 494 747T532 732T561 700T576 649L630 22V20ZM452 618Q451 627 449 630T439 634Q431 634 428 631T420 618L296 321H472L452 618ZM694 928Q694 926 694 925T693 922L689 900Q678 841 651 813T565 785Q548 785 529 791T493 811L454 844Q443 853 434 859T416 865Q404 865 395 858T382 831L378 810Q375 794 362 794H305Q292 794 292 805Q292 807 292 807T293 810L297 831Q308 891 339 918T423 946Q440 946 459 941T494 921L532 888Q555 868 571 868Q585 868 592 874T604 901L608 922Q611 938 625 938H682Q694 938 694 928Z"  />
<glyph unicode="&#xC4;" horiz-adv-x="646" d="M630 20Q630 12 626 6T609 0H507Q496 0 494 5T491 17L479 207H249L169 17Q166 10 162 5T147 0H37Q22 0 22 13Q22 16 24 22L298 649Q313 684 332 704T371 734T413 748T455 751Q474 751 494 747T532 732T561 700T576 649L630 22V20ZM452 618Q451 627 449 630T439 634Q431 634 428 631T420 618L296 321H472L452 618ZM659 912L643 824Q641 816 634 810T619 804H547Q539 804 534 808T529 821V824L545 912Q547 920 554 926T569 932H641Q649 932 654 927T659 915V912ZM459 912L443 824Q441 816 434 810T419 804H347Q339 804 334 808T329 821V824L345 912Q347 920 354 926T369 932H441Q449 932 454 927T459 915V912Z"  />
<glyph unicode="&#xC5;" horiz-adv-x="646" d="M630 20Q630 12 626 6T609 0H507Q496 0 494 5T491 17L479 207H249L169 17Q166 10 162 5T147 0H37Q22 0 22 13Q22 16 24 22L298 649Q313 684 332 704T371 734T413 748T455 751Q474 751 494 747T532 732T561 700T576 649L630 22V20ZM452 618Q451 627 449 630T439 634Q431 634 428 631T420 618L296 321H472L452 618ZM601 889Q601 866 593 846T569 811T534 788T491 779Q468 779 448 787T413 811T389 846T380 889Q380 912 389 932T413 967T448 991T491 1000Q514 1000 534 991T569 967T592 932T601 889ZM539 890Q539 910 525 923T491 937Q471 937 458 924T445 890Q445 870 458 856T491 842Q511 842 525 856T539 890Z"  />
<glyph unicode="&#xC6;" horiz-adv-x="880" d="M948 729Q948 727 948 726T947 722L935 652Q933 644 926 638T911 632H658L624 438H865Q882 438 882 421V418L869 346Q867 338 860 332T845 326H604L582 197Q580 187 579 179T578 164Q578 134 594 123T646 111H820Q836 111 836 95V91L825 27Q823 16 818 12T801 6Q789 3 777 1T748 -4T705 -7T639 -8Q596 -8 560 -1T496 24T454 69T438 139Q438 165 444 197L446 207H249L169 17Q166 10 160 5T147 0H37Q22 0 22 14Q22 16 24 22L298 649Q313 684 333 703T375 731T417 741T454 743H931Q948 743 948 729ZM439 634Q431 634 428 631T420 618L296 321H466L521 634H439Z"  />
<glyph unicode="&#xC7;" horiz-adv-x="568" d="M644 712L632 645Q630 636 625 630T608 624H607H606Q593 625 575 626T536 629T493 631T451 632Q419 632 391 622T339 590T299 532T273 445L248 298Q242 260 242 232Q242 197 250 174T274 136T312 117T360 111Q380 111 402 112T445 114T484 116T517 119H518H519Q536 119 536 104Q536 102 536 101T535 98L523 31Q521 20 515 16T497 8Q491 6 476 4T440 -1T393 -6T337 -8Q297 -8 256 3T180 42T123 114T101 225Q101 242 103 260T108 298L133 445Q150 545 188 605T273 698T373 741T470 751Q528 751 571 745T626 735Q644 730 644 717V714V712ZM412 -40Q412 -43 406 -49L266 -172Q258 -179 254 -182T240 -186H149Q141 -186 141 -180Q141 -175 147 -169L260 -49Q268 -41 273 -38T289 -34H402Q412 -34 412 -40Z"  />
<glyph unicode="&#xC8;" horiz-adv-x="576" d="M438 751Q483 751 513 750T565 746T600 742T626 737Q638 735 641 731T642 716L631 652Q629 644 625 638T607 632H403Q359 632 339 614T309 546L290 438H561Q569 438 574 435T578 418L565 346Q563 338 558 332T541 326H270L248 197Q245 177 245 164Q245 134 261 123T312 111H516Q524 111 529 107T532 91L521 27Q519 16 514 12T497 6Q485 4 470 2T433 -3T381 -6T305 -8Q263 -8 227 0T163 28T121 77T106 150Q106 174 110 197L171 546Q183 613 207 653T265 716T343 744T438 751ZM539 803Q539 794 529 794H455Q446 794 443 797T434 807L337 931Q334 935 334 938Q334 946 346 946H440Q450 946 454 943T464 931L537 811Q539 808 539 803Z"  />
<glyph unicode="&#xC9;" horiz-adv-x="576" d="M438 751Q483 751 513 750T565 746T600 742T626 737Q638 735 641 731T642 716L631 652Q629 644 625 638T607 632H403Q359 632 339 614T309 546L290 438H561Q569 438 574 435T578 418L565 346Q563 338 558 332T541 326H270L248 197Q245 177 245 164Q245 134 261 123T312 111H516Q524 111 529 107T532 91L521 27Q519 16 514 12T497 6Q485 4 470 2T433 -3T381 -6T305 -8Q263 -8 227 0T163 28T121 77T106 150Q106 174 110 197L171 546Q183 613 207 653T265 716T343 744T438 751ZM625 940Q625 935 619 931L479 807Q471 800 467 797T453 794H357Q349 794 349 800Q349 805 355 811L471 931Q479 939 484 942T499 946H614Q625 946 625 940Z"  />
<glyph unicode="&#xCA;" horiz-adv-x="576" d="M438 751Q483 751 513 750T565 746T600 742T626 737Q638 735 641 731T642 716L631 652Q629 644 625 638T607 632H403Q359 632 339 614T309 546L290 438H561Q569 438 574 435T578 418L565 346Q563 338 558 332T541 326H270L248 197Q245 177 245 164Q245 134 261 123T312 111H516Q524 111 529 107T532 91L521 27Q519 16 514 12T497 6Q485 4 470 2T433 -3T381 -6T305 -8Q263 -8 227 0T163 28T121 77T106 150Q106 174 110 197L171 546Q183 613 207 653T265 716T343 744T438 751ZM626 804Q626 795 616 795H539Q530 795 527 798T518 808L461 889L376 808Q368 801 364 798T350 795H261Q253 795 253 801Q253 806 259 812L372 932Q380 940 385 943T400 947H530Q540 947 544 944T554 932L624 812Q626 809 626 804Z"  />
<glyph unicode="&#xCB;" horiz-adv-x="576" d="M438 751Q483 751 513 750T565 746T600 742T626 737Q638 735 641 731T642 716L631 652Q629 644 625 638T607 632H403Q359 632 339 614T309 546L290 438H561Q569 438 574 435T578 418L565 346Q563 338 558 332T541 326H270L248 197Q245 177 245 164Q245 134 261 123T312 111H516Q524 111 529 107T532 91L521 27Q519 16 514 12T497 6Q485 4 470 2T433 -3T381 -6T305 -8Q263 -8 227 0T163 28T121 77T106 150Q106 174 110 197L171 546Q183 613 207 653T265 716T343 744T438 751ZM619 912L603 824Q601 816 594 810T579 804H507Q499 804 494 808T489 821V824L505 912Q507 920 514 926T529 932H601Q609 932 614 927T619 915V912ZM419 912L403 824Q401 816 394 810T379 804H307Q299 804 294 808T289 821V824L305 912Q307 920 314 926T329 932H401Q409 932 414 927T419 915V912Z"  />
<glyph unicode="&#xCC;" horiz-adv-x="289" d="M325 743Q345 743 342 724L218 20Q216 12 212 6T194 0H95Q84 0 81 6T79 20L203 724Q206 743 226 743H325ZM368 803Q368 794 358 794H284Q275 794 272 797T263 807L166 931Q163 935 163 938Q163 946 175 946H269Q279 946 283 943T293 931L366 811Q368 808 368 803Z"  />
<glyph unicode="&#xCD;" horiz-adv-x="289" d="M325 743Q345 743 342 724L218 20Q216 12 212 6T194 0H95Q84 0 81 6T79 20L203 724Q206 743 226 743H325ZM475 940Q475 935 469 931L329 807Q321 800 317 797T303 794H207Q199 794 199 800Q199 805 205 811L321 931Q329 939 334 942T349 946H464Q475 946 475 940Z"  />
<glyph unicode="&#xCE;" horiz-adv-x="289" d="M325 743Q345 743 342 724L218 20Q216 12 212 6T194 0H95Q84 0 81 6T79 20L203 724Q206 743 226 743H325ZM475 803Q475 794 465 794H388Q379 794 376 797T367 807L310 888L225 807Q217 800 213 797T199 794H110Q102 794 102 800Q102 805 108 811L221 931Q229 939 234 942T249 946H379Q389 946 393 943T403 931L473 811Q475 808 475 803Z"  />
<glyph unicode="&#xCF;" horiz-adv-x="289" d="M325 743Q345 743 342 724L218 20Q216 12 212 6T194 0H95Q84 0 81 6T79 20L203 724Q206 743 226 743H325ZM463 912L447 824Q445 816 438 810T423 804H351Q343 804 338 808T333 821V824L349 912Q351 920 358 926T373 932H445Q453 932 458 927T463 915V912ZM263 912L247 824Q245 816 238 810T223 804H151Q143 804 138 808T133 821V824L149 912Q151 920 158 926T173 932H245Q253 932 258 927T263 915V912Z"  />
<glyph unicode="&#xD0;" horiz-adv-x="667" d="M696 513Q696 481 690 445L665 298Q639 143 548 68T297 -8Q270 -8 241 -7T184 -4T135 0T102 4Q80 7 80 26Q80 32 81 35L132 326H74Q59 326 59 341V344V345L72 420Q75 438 94 438H152L200 708Q203 723 210 730T231 739Q243 741 265 743T315 747T373 750T430 751Q558 751 627 688T696 513ZM558 508Q558 546 548 570T518 609T471 628T410 634Q382 634 362 633T325 631L291 438H362Q378 438 378 423V421V420L365 345Q363 337 357 332T342 326H272L234 112Q250 111 269 110T317 109Q354 109 388 118T450 149T498 207T527 298L552 445Q558 481 558 508Z"  />
<glyph unicode="&#xD1;" horiz-adv-x="712" d="M749 743Q757 743 762 739T765 724L644 40Q641 23 628 12T597 0H503Q485 0 471 4T448 36L305 523Q302 531 298 531Q292 531 291 523L203 20Q201 12 198 6T180 0H95Q87 0 82 4T79 20L199 703Q202 720 215 731T246 743H347Q363 743 371 737T385 711L535 197Q537 189 541 189Q546 189 548 198L641 724Q644 743 663 743H749ZM702 928Q702 926 702 925T701 922L697 900Q686 841 659 813T573 785Q556 785 537 791T501 811L462 844Q451 853 442 859T424 865Q412 865 403 858T390 831L386 810Q383 794 370 794H313Q300 794 300 805Q300 807 300 807T301 810L305 831Q316 891 347 918T431 946Q448 946 467 941T502 921L540 888Q563 868 579 868Q593 868 600 874T612 901L616 922Q619 938 633 938H690Q702 938 702 928Z"  />
<glyph unicode="&#xD2;" horiz-adv-x="678" d="M709 513Q709 496 707 478T702 439L679 304Q664 217 634 157T560 61T461 8T339 -8Q285 -8 242 7T167 51T119 125T102 227Q102 245 103 264T109 304L132 439Q147 527 177 586T251 682T350 735T472 751Q526 751 569 736T644 690T692 615T709 513ZM569 513Q569 578 540 604T451 630Q373 630 331 586T272 439L249 304Q242 263 242 229Q242 164 271 139T360 113Q440 113 481 159T539 304L562 439Q566 460 567 478T569 513ZM562 803Q562 794 552 794H478Q469 794 466 797T457 807L360 931Q357 935 357 938Q357 946 369 946H463Q473 946 477 943T487 931L560 811Q562 808 562 803Z"  />
<glyph unicode="&#xD3;" horiz-adv-x="678" d="M709 513Q709 496 707 478T702 439L679 304Q664 217 634 157T560 61T461 8T339 -8Q285 -8 242 7T167 51T119 125T102 227Q102 245 103 264T109 304L132 439Q147 527 177 586T251 682T350 735T472 751Q526 751 569 736T644 690T692 615T709 513ZM569 513Q569 578 540 604T451 630Q373 630 331 586T272 439L249 304Q242 263 242 229Q242 164 271 139T360 113Q440 113 481 159T539 304L562 439Q566 460 567 478T569 513ZM659 940Q659 935 653 931L513 807Q505 800 501 797T487 794H391Q383 794 383 800Q383 805 389 811L505 931Q513 939 518 942T533 946H648Q659 946 659 940Z"  />
<glyph unicode="&#xD4;" horiz-adv-x="678" d="M709 513Q709 496 707 478T702 439L679 304Q664 217 634 157T560 61T461 8T339 -8Q285 -8 242 7T167 51T119 125T102 227Q102 245 103 264T109 304L132 439Q147 527 177 586T251 682T350 735T472 751Q526 751 569 736T644 690T692 615T709 513ZM569 513Q569 578 540 604T451 630Q373 630 331 586T272 439L249 304Q242 263 242 229Q242 164 271 139T360 113Q440 113 481 159T539 304L562 439Q566 460 567 478T569 513ZM666 804Q666 795 656 795H579Q570 795 567 798T558 808L501 889L416 808Q408 801 404 798T390 795H301Q293 795 293 801Q293 806 299 812L412 932Q420 940 425 943T440 947H570Q580 947 584 944T594 932L664 812Q666 809 666 804Z"  />
<glyph unicode="&#xD5;" horiz-adv-x="678" d="M709 513Q709 496 707 478T702 439L679 304Q664 217 634 157T560 61T461 8T339 -8Q285 -8 242 7T167 51T119 125T102 227Q102 245 103 264T109 304L132 439Q147 527 177 586T251 682T350 735T472 751Q526 751 569 736T644 690T692 615T709 513ZM569 513Q569 578 540 604T451 630Q373 630 331 586T272 439L249 304Q242 263 242 229Q242 164 271 139T360 113Q440 113 481 159T539 304L562 439Q566 460 567 478T569 513ZM698 929Q698 927 698 926T697 923L693 901Q682 842 655 814T569 786Q552 786 533 792T497 812L458 845Q447 854 438 860T420 866Q408 866 399 859T386 832L382 811Q379 795 366 795H309Q296 795 296 806Q296 808 296 808T297 811L301 832Q312 892 343 919T427 947Q444 947 463 942T498 922L536 889Q559 869 575 869Q589 869 596 875T608 902L612 923Q615 939 629 939H686Q698 939 698 929Z"  />
<glyph unicode="&#xD6;" horiz-adv-x="678" d="M709 513Q709 496 707 478T702 439L679 304Q664 217 634 157T560 61T461 8T339 -8Q285 -8 242 7T167 51T119 125T102 227Q102 245 103 264T109 304L132 439Q147 527 177 586T251 682T350 735T472 751Q526 751 569 736T644 690T692 615T709 513ZM569 513Q569 578 540 604T451 630Q373 630 331 586T272 439L249 304Q242 263 242 229Q242 164 271 139T360 113Q440 113 481 159T539 304L562 439Q566 460 567 478T569 513ZM652 912L636 824Q634 816 627 810T612 804H540Q532 804 527 808T522 821V824L538 912Q540 920 547 926T562 932H634Q642 932 647 927T652 915V912ZM452 912L436 824Q434 816 427 810T412 804H340Q332 804 327 808T322 821V824L338 912Q340 920 347 926T362 932H434Q442 932 447 927T452 915V912Z"  />
<glyph unicode="&#xD7;" horiz-adv-x="610" d="M594 531Q594 523 586 515L461 390L586 266Q593 259 593 251Q593 245 588 240L539 191Q534 186 529 186Q522 186 514 194L389 318L265 194Q257 186 249 186Q244 186 239 191L190 240Q185 245 185 250Q185 258 193 266L317 390L192 515Q184 523 184 531Q184 536 189 541L238 590Q243 595 248 595Q256 595 264 587L389 462L514 587Q522 595 530 595Q535 595 540 590L589 541Q594 536 594 531Z"  />
<glyph unicode="&#xD8;" horiz-adv-x="678" d="M791 739Q791 733 787 729L690 620Q709 575 709 513Q709 496 707 478T702 439L679 304Q664 217 634 157T560 61T461 8T339 -8Q236 -8 174 45L138 4Q133 -2 129 -5T116 -8H40Q31 -8 31 1Q31 7 35 11L125 111Q102 160 102 227Q102 245 103 264T109 304L132 439Q147 527 177 586T251 682T350 735T472 751Q580 751 643 690L686 738Q691 744 695 746T707 748H782Q791 748 791 739ZM552 588Q538 611 513 620T451 630Q373 630 331 586T272 439L249 304Q246 287 245 272T242 242L552 588ZM265 146Q279 128 303 121T360 113Q440 113 481 159T539 304L562 439Q566 463 568 484L265 146Z"  />
<glyph unicode="&#xD9;" horiz-adv-x="690" d="M732 743Q751 743 748 724L668 275Q653 191 624 137T554 50T461 5T346 -8Q293 -8 250 4T176 43T129 108T112 202Q112 219 113 237T118 275L198 724Q200 732 206 737T221 743H320Q340 743 337 724L257 275Q249 229 249 200Q249 149 275 128T364 107Q404 107 432 116T479 146T509 199T529 275L609 724Q612 743 632 743H732ZM540 803Q540 794 530 794H456Q447 794 444 797T435 807L338 931Q335 935 335 938Q335 946 347 946H441Q451 946 455 943T465 931L538 811Q540 808 540 803Z"  />
<glyph unicode="&#xDA;" horiz-adv-x="690" d="M732 743Q751 743 748 724L668 275Q653 191 624 137T554 50T461 5T346 -8Q293 -8 250 4T176 43T129 108T112 202Q112 219 113 237T118 275L198 724Q200 732 206 737T221 743H320Q340 743 337 724L257 275Q249 229 249 200Q249 149 275 128T364 107Q404 107 432 116T479 146T509 199T529 275L609 724Q612 743 632 743H732ZM662 940Q662 935 656 931L516 807Q508 800 504 797T490 794H394Q386 794 386 800Q386 805 392 811L508 931Q516 939 521 942T536 946H651Q662 946 662 940Z"  />
<glyph unicode="&#xDB;" horiz-adv-x="690" d="M732 743Q751 743 748 724L668 275Q653 191 624 137T554 50T461 5T346 -8Q293 -8 250 4T176 43T129 108T112 202Q112 219 113 237T118 275L198 724Q200 732 206 737T221 743H320Q340 743 337 724L257 275Q249 229 249 200Q249 149 275 128T364 107Q404 107 432 116T479 146T509 199T529 275L609 724Q612 743 632 743H732ZM660 803Q660 794 650 794H573Q564 794 561 797T552 807L495 888L410 807Q402 800 398 797T384 794H295Q287 794 287 800Q287 805 293 811L406 931Q414 939 419 942T434 946H564Q574 946 578 943T588 931L658 811Q660 808 660 803Z"  />
<glyph unicode="&#xDC;" horiz-adv-x="690" d="M732 743Q751 743 748 724L668 275Q653 191 624 137T554 50T461 5T346 -8Q293 -8 250 4T176 43T129 108T112 202Q112 219 113 237T118 275L198 724Q200 732 206 737T221 743H320Q340 743 337 724L257 275Q249 229 249 200Q249 149 275 128T364 107Q404 107 432 116T479 146T509 199T529 275L609 724Q612 743 632 743H732ZM650 912L634 824Q632 816 625 810T610 804H538Q530 804 525 808T520 821V824L536 912Q538 920 545 926T560 932H632Q640 932 645 927T650 915V912ZM450 912L434 824Q432 816 425 810T410 804H338Q330 804 325 808T320 821V824L336 912Q338 920 345 926T360 932H432Q440 932 445 927T450 915V912Z"  />
<glyph unicode="&#xDD;" horiz-adv-x="615" d="M718 730Q718 726 715 720L502 373Q482 340 464 323T428 298L379 20Q377 12 371 6T356 0H256Q238 0 241 20L290 298Q275 305 263 322T242 373L152 720Q145 743 170 743H275Q289 743 293 727L361 429Q364 416 366 414T374 411Q382 411 385 413T396 429L568 727Q577 743 593 743H704Q718 743 718 730ZM652 940Q652 935 646 931L506 807Q498 800 494 797T480 794H384Q376 794 376 800Q376 805 382 811L498 931Q506 939 511 942T526 946H641Q652 946 652 940Z"  />
<glyph unicode="&#xDE;" horiz-adv-x="626" d="M674 478Q674 454 670 431L668 419Q656 349 624 303T546 230T445 192T331 181Q308 181 287 182T245 184L217 20Q215 12 209 6T195 0H94Q79 0 79 16V19V20L203 724Q206 743 225 743H326Q341 743 341 728V725V724L330 661Q343 662 368 662T413 663Q469 663 517 653T600 621T654 564T674 478ZM533 457Q533 506 498 525T395 545Q387 545 375 545T350 545T326 544T309 543L266 301Q272 301 283 301T308 300T333 299T352 299Q430 299 474 327T529 419L531 431Q533 438 533 444T533 457Z"  />
<glyph unicode="&#xDF;" horiz-adv-x="624" d="M658 594Q658 584 658 575T655 555L652 538Q644 493 615 456T534 396Q556 382 571 366T596 331T610 294T614 258V254Q614 250 614 248T613 240L610 221Q601 161 576 118T514 47T430 6T328 -8Q316 -8 302 -7T272 -3Q256 -1 256 13V15V16L269 90Q272 105 289 105Q323 105 354 108T409 122T451 157T475 221L478 240Q479 245 479 249T480 259Q480 296 454 319T369 343H337Q321 343 321 357V360V361L332 423Q334 431 340 436T355 441H387Q419 441 442 449T482 470T507 501T520 538L523 555Q525 563 525 569T525 582Q525 619 502 636T429 653Q392 653 367 644T326 616T300 573T285 516L198 21Q196 13 190 7T175 0H80Q72 0 68 5T64 17V20V21L151 515Q164 587 189 636T251 714T338 755T449 768Q495 768 533 757T599 723T642 668T658 594Z"  />
<glyph unicode="&#xE0;" horiz-adv-x="561" d="M379 571Q427 571 478 564T575 545Q589 541 594 537T597 518L510 20Q508 12 501 6T486 0H406Q397 0 393 6T390 20L394 49Q352 17 314 5T239 -8Q204 -8 175 3T123 36T89 91T76 169Q76 191 78 212T83 249L95 320Q115 438 186 504T379 571ZM454 456Q440 459 414 461T360 463Q328 463 305 452T267 422T242 377T227 320L212 236Q207 210 207 196T206 172Q206 129 225 115T274 100Q303 100 334 111T399 142L454 456ZM477 636Q477 627 467 627H393Q384 627 381 630T372 640L275 764Q272 768 272 771Q272 779 284 779H378Q388 779 392 776T402 764L475 644Q477 641 477 636Z"  />
<glyph unicode="&#xE1;" horiz-adv-x="561" d="M379 571Q427 571 478 564T575 545Q589 541 594 537T597 518L510 20Q508 12 501 6T486 0H406Q397 0 393 6T390 20L394 49Q352 17 314 5T239 -8Q204 -8 175 3T123 36T89 91T76 169Q76 191 78 212T83 249L95 320Q115 438 186 504T379 571ZM454 456Q440 459 414 461T360 463Q328 463 305 452T267 422T242 377T227 320L212 236Q207 210 207 196T206 172Q206 129 225 115T274 100Q303 100 334 111T399 142L454 456ZM611 773Q611 768 605 764L465 640Q457 633 453 630T439 627H343Q335 627 335 633Q335 638 341 644L457 764Q465 772 470 775T485 779H600Q611 779 611 773Z"  />
<glyph unicode="&#xE2;" horiz-adv-x="561" d="M379 571Q427 571 478 564T575 545Q589 541 594 537T597 518L510 20Q508 12 501 6T486 0H406Q397 0 393 6T390 20L394 49Q352 17 314 5T239 -8Q204 -8 175 3T123 36T89 91T76 169Q76 191 78 212T83 249L95 320Q115 438 186 504T379 571ZM454 456Q440 459 414 461T360 463Q328 463 305 452T267 422T242 377T227 320L212 236Q207 210 207 196T206 172Q206 129 225 115T274 100Q303 100 334 111T399 142L454 456ZM591 636Q591 627 581 627H504Q495 627 492 630T483 640L426 721L341 640Q333 633 329 630T315 627H226Q218 627 218 633Q218 638 224 644L337 764Q345 772 350 775T365 779H495Q505 779 509 776T519 764L589 644Q591 641 591 636Z"  />
<glyph unicode="&#xE3;" horiz-adv-x="561" d="M379 571Q427 571 478 564T575 545Q589 541 594 537T597 518L510 20Q508 12 501 6T486 0H406Q397 0 393 6T390 20L394 49Q352 17 314 5T239 -8Q204 -8 175 3T123 36T89 91T76 169Q76 191 78 212T83 249L95 320Q115 438 186 504T379 571ZM454 456Q440 459 414 461T360 463Q328 463 305 452T267 422T242 377T227 320L212 236Q207 210 207 196T206 172Q206 129 225 115T274 100Q303 100 334 111T399 142L454 456ZM612 767Q612 765 612 764T611 761L607 739Q596 680 569 652T483 624Q466 624 447 630T411 650L372 683Q361 692 352 698T334 704Q322 704 313 697T300 670L296 649Q293 633 280 633H223Q210 633 210 644Q210 646 210 646T211 649L215 670Q226 730 257 757T341 785Q358 785 377 780T412 760L450 727Q473 707 489 707Q503 707 510 713T522 740L526 761Q529 777 543 777H600Q612 777 612 767Z"  />
<glyph unicode="&#xE4;" horiz-adv-x="561" d="M379 571Q427 571 478 564T575 545Q589 541 594 537T597 518L510 20Q508 12 501 6T486 0H406Q397 0 393 6T390 20L394 49Q352 17 314 5T239 -8Q204 -8 175 3T123 36T89 91T76 169Q76 191 78 212T83 249L95 320Q115 438 186 504T379 571ZM454 456Q440 459 414 461T360 463Q328 463 305 452T267 422T242 377T227 320L212 236Q207 210 207 196T206 172Q206 129 225 115T274 100Q303 100 334 111T399 142L454 456ZM586 750L570 662Q568 654 561 648T546 642H474Q466 642 461 646T456 659V662L472 750Q474 758 481 764T496 770H568Q576 770 581 765T586 753V750ZM386 750L370 662Q368 654 361 648T346 642H274Q266 642 261 646T256 659V662L272 750Q274 758 281 764T296 770H368Q376 770 381 765T386 753V750Z"  />
<glyph unicode="&#xE5;" horiz-adv-x="561" d="M379 571Q427 571 478 564T575 545Q589 541 594 537T597 518L510 20Q508 12 501 6T486 0H406Q397 0 393 6T390 20L394 49Q352 17 314 5T239 -8Q204 -8 175 3T123 36T89 91T76 169Q76 191 78 212T83 249L95 320Q115 438 186 504T379 571ZM454 456Q440 459 414 461T360 463Q328 463 305 452T267 422T242 377T227 320L212 236Q207 210 207 196T206 172Q206 129 225 115T274 100Q303 100 334 111T399 142L454 456ZM520 730Q520 707 512 687T488 652T453 629T410 620Q387 620 367 628T332 652T308 687T299 730Q299 753 308 773T332 808T367 832T410 841Q433 841 453 832T488 808T511 773T520 730ZM458 731Q458 751 444 764T410 778Q390 778 377 765T364 731Q364 711 377 697T410 683Q430 683 444 697T458 731Z"  />
<glyph unicode="&#xE6;" horiz-adv-x="870" d="M882 380Q882 369 881 357T878 334L866 268Q864 260 857 254T842 248H528L521 207Q518 192 518 180Q518 138 546 121T633 103Q646 103 668 104T715 106T762 108T800 112H804Q818 112 818 100V96L808 40Q805 21 785 16Q764 10 740 6T690 -2T639 -6T593 -8Q495 -8 453 46Q417 22 363 7T255 -8Q224 -8 192 -1T134 24T90 67T73 132Q73 148 76 168L78 179Q87 226 108 256T165 304T248 329T360 336H411L416 363Q419 381 419 395Q419 432 399 446T341 460Q318 460 295 460T250 458T211 456T183 454H180Q166 454 166 466V471L177 531Q180 550 201 554Q229 560 272 565T361 571Q419 571 453 554T508 505Q529 524 548 537T589 557T635 568T690 571Q742 571 778 554T838 510T871 448T882 380ZM757 386Q757 420 738 444T671 468Q644 468 623 459T586 435T561 400T547 358L541 324H748L754 358Q757 371 757 386ZM347 261Q279 261 246 243T205 179L203 168Q202 163 202 160T201 152Q201 118 226 106T284 93Q309 93 333 98T375 109L402 261H347Z"  />
<glyph unicode="&#xE7;" horiz-adv-x="468" d="M523 541Q523 539 523 537T522 532L510 467Q507 452 490 452H488H487Q463 455 436 457T359 459Q341 459 323 453T289 433T260 393T240 328L223 235Q220 221 219 209T218 185Q218 159 224 144T241 119T266 107T296 104Q320 104 338 104T372 106T400 108T427 111H428H430Q436 111 440 108T445 99V97V96L433 31Q431 19 427 14T408 5Q390 0 357 -4T277 -8Q234 -8 199 6T139 45T100 106T86 184Q86 196 87 208T91 235L108 328Q121 399 147 446T208 520T286 559T379 571Q425 571 456 567T505 558Q523 554 523 541ZM329 -40Q329 -43 323 -49L183 -172Q175 -179 171 -182T157 -186H66Q58 -186 58 -180Q58 -175 64 -169L177 -49Q185 -41 190 -38T206 -34H319Q329 -34 329 -40Z"  />
<glyph unicode="&#xE8;" horiz-adv-x="574" d="M585 366Q585 352 584 338T580 309L572 261Q567 236 548 236H222Q220 225 219 216T217 195Q217 154 240 130T319 105Q374 105 423 109T504 116Q526 118 523 101L511 35Q509 23 505 17T486 9Q461 4 439 1T394 -4T345 -7T285 -8Q252 -8 217 2T154 35T107 97T88 193Q88 207 89 222T93 253L104 315Q116 385 140 434T201 513T284 557T389 571Q439 571 476 556T537 513T573 448T585 366ZM455 368Q455 412 433 434T369 457Q309 457 279 421T239 330H451Q453 340 454 349T455 368ZM458 636Q458 627 448 627H374Q365 627 362 630T353 640L256 764Q253 768 253 771Q253 779 265 779H359Q369 779 373 776T383 764L456 644Q458 641 458 636Z"  />
<glyph unicode="&#xE9;" horiz-adv-x="574" d="M585 366Q585 352 584 338T580 309L572 261Q567 236 548 236H222Q220 225 219 216T217 195Q217 154 240 130T319 105Q374 105 423 109T504 116Q526 118 523 101L511 35Q509 23 505 17T486 9Q461 4 439 1T394 -4T345 -7T285 -8Q252 -8 217 2T154 35T107 97T88 193Q88 207 89 222T93 253L104 315Q116 385 140 434T201 513T284 557T389 571Q439 571 476 556T537 513T573 448T585 366ZM455 368Q455 412 433 434T369 457Q309 457 279 421T239 330H451Q453 340 454 349T455 368ZM597 773Q597 768 591 764L451 640Q443 633 439 630T425 627H329Q321 627 321 633Q321 638 327 644L443 764Q451 772 456 775T471 779H586Q597 779 597 773Z"  />
<glyph unicode="&#xEA;" horiz-adv-x="574" d="M585 366Q585 352 584 338T580 309L572 261Q567 236 548 236H222Q220 225 219 216T217 195Q217 154 240 130T319 105Q374 105 423 109T504 116Q526 118 523 101L511 35Q509 23 505 17T486 9Q461 4 439 1T394 -4T345 -7T285 -8Q252 -8 217 2T154 35T107 97T88 193Q88 207 89 222T93 253L104 315Q116 385 140 434T201 513T284 557T389 571Q439 571 476 556T537 513T573 448T585 366ZM455 368Q455 412 433 434T369 457Q309 457 279 421T239 330H451Q453 340 454 349T455 368ZM585 636Q585 627 575 627H498Q489 627 486 630T477 640L420 721L335 640Q327 633 323 630T309 627H220Q212 627 212 633Q212 638 218 644L331 764Q339 772 344 775T359 779H489Q499 779 503 776T513 764L583 644Q585 641 585 636Z"  />
<glyph unicode="&#xEB;" horiz-adv-x="574" d="M585 366Q585 352 584 338T580 309L572 261Q567 236 548 236H222Q220 225 219 216T217 195Q217 154 240 130T319 105Q374 105 423 109T504 116Q526 118 523 101L511 35Q509 23 505 17T486 9Q461 4 439 1T394 -4T345 -7T285 -8Q252 -8 217 2T154 35T107 97T88 193Q88 207 89 222T93 253L104 315Q116 385 140 434T201 513T284 557T389 571Q439 571 476 556T537 513T573 448T585 366ZM455 368Q455 412 433 434T369 457Q309 457 279 421T239 330H451Q453 340 454 349T455 368ZM575 747L559 659Q557 651 550 645T535 639H463Q455 639 450 643T445 656V659L461 747Q463 755 470 761T485 767H557Q565 767 570 762T575 750V747ZM375 747L359 659Q357 651 350 645T335 639H263Q255 639 250 643T245 656V659L261 747Q263 755 270 761T285 767H357Q365 767 370 762T375 750V747Z"  />
<glyph unicode="&#xEC;" horiz-adv-x="268" d="M296 544L204 21Q202 13 195 7T180 0H88Q80 0 76 5T72 17V21L164 544Q166 552 172 558T187 564H279Q296 564 296 547V544ZM319 636Q319 627 309 627H235Q226 627 223 630T214 640L117 764Q114 768 114 771Q114 779 126 779H220Q230 779 234 776T244 764L317 644Q319 641 319 636Z"  />
<glyph unicode="&#xED;" horiz-adv-x="268" d="M296 544L204 21Q202 13 195 7T180 0H88Q80 0 76 5T72 17V21L164 544Q166 552 172 558T187 564H279Q296 564 296 547V544ZM445 773Q445 768 439 764L299 640Q291 633 287 630T273 627H177Q169 627 169 633Q169 638 175 644L291 764Q299 772 304 775T319 779H434Q445 779 445 773Z"  />
<glyph unicode="&#xEE;" horiz-adv-x="268" d="M296 544L204 21Q202 13 195 7T180 0H88Q80 0 76 5T72 17V21L164 544Q166 552 172 558T187 564H279Q296 564 296 547V544ZM434 636Q434 627 424 627H347Q338 627 335 630T326 640L269 721L184 640Q176 633 172 630T158 627H69Q61 627 61 633Q61 638 67 644L180 764Q188 772 193 775T208 779H338Q348 779 352 776T362 764L432 644Q434 641 434 636Z"  />
<glyph unicode="&#xEF;" horiz-adv-x="268" d="M296 544L204 21Q202 13 195 7T180 0H88Q80 0 76 5T72 17V21L164 544Q166 552 172 558T187 564H279Q296 564 296 547V544ZM425 747L409 659Q407 651 400 645T385 639H313Q305 639 300 643T295 656V659L311 747Q313 755 320 761T335 767H407Q415 767 420 762T425 750V747ZM225 747L209 659Q207 651 200 645T185 639H113Q105 639 100 643T95 656V659L111 747Q113 755 120 761T135 767H207Q215 767 220 762T225 750V747Z"  />
<glyph unicode="&#xF0;" horiz-adv-x="574" d="M590 419Q590 360 578 293L571 253Q559 183 534 134T473 53T390 7T285 -8Q231 -8 193 8T131 51T96 115T85 193Q85 208 86 223T90 253L97 293Q109 365 134 414T194 494T275 539T375 553Q392 553 415 551T453 539Q442 564 414 590T345 636L259 578Q255 576 252 574T245 572Q239 572 235 578L212 610Q210 614 210 616Q210 621 214 626T223 634L274 668Q262 673 248 677T225 683Q212 686 212 695Q212 700 214 703L245 761Q249 768 252 770T261 772Q266 772 269 771Q298 763 324 755T375 736L471 801Q476 805 484 805Q492 805 496 800L520 769Q522 767 522 763Q522 758 518 754T510 747L443 702Q521 654 555 584T590 419ZM450 348Q450 396 429 419T363 442Q306 442 275 405T230 293L223 253Q217 220 217 195Q217 149 237 127T304 104Q361 104 392 141T438 253L445 293Q448 309 449 322T450 348Z"  />
<glyph unicode="&#xF1;" horiz-adv-x="592" d="M595 421Q595 404 594 386T588 347L531 21Q529 13 525 7T507 0H415Q407 0 402 5T399 21L456 347Q459 366 461 380T463 407Q463 436 449 447T401 459Q368 459 338 450T272 423L201 21Q199 13 195 7T177 0H85Q77 0 72 5T69 21L161 544Q163 552 169 558T189 564H269Q279 564 284 561T288 544L284 523Q332 551 373 561T450 571Q491 571 518 560T563 528T587 481T595 421ZM617 767Q617 765 617 764T616 761L612 739Q601 680 574 652T488 624Q471 624 452 630T416 650L377 683Q366 692 357 698T339 704Q327 704 318 697T305 670L301 649Q298 633 285 633H228Q215 633 215 644Q215 646 215 646T216 649L220 670Q231 730 262 757T346 785Q363 785 382 780T417 760L455 727Q478 707 494 707Q508 707 515 713T527 740L531 761Q534 777 548 777H605Q617 777 617 767Z"  />
<glyph unicode="&#xF2;" horiz-adv-x="574" d="M588 374Q588 350 583 322L568 241Q521 -8 286 -8Q235 -8 198 8T135 53T98 117T86 193Q86 205 87 217T90 241L105 322Q128 446 199 508T388 571Q439 571 477 555T539 512T576 449T588 374ZM455 366Q455 457 368 457Q322 457 286 427T237 322L222 241Q220 229 219 218T218 197Q218 106 306 106Q359 106 391 138T436 241L451 322Q453 334 454 345T455 366ZM474 636Q474 627 464 627H390Q381 627 378 630T369 640L272 764Q269 768 269 771Q269 779 281 779H375Q385 779 389 776T399 764L472 644Q474 641 474 636Z"  />
<glyph unicode="&#xF3;" horiz-adv-x="574" d="M588 374Q588 350 583 322L568 241Q521 -8 286 -8Q235 -8 198 8T135 53T98 117T86 193Q86 205 87 217T90 241L105 322Q128 446 199 508T388 571Q439 571 477 555T539 512T576 449T588 374ZM455 366Q455 457 368 457Q322 457 286 427T237 322L222 241Q220 229 219 218T218 197Q218 106 306 106Q359 106 391 138T436 241L451 322Q453 334 454 345T455 366ZM583 773Q583 768 577 764L437 640Q429 633 425 630T411 627H315Q307 627 307 633Q307 638 313 644L429 764Q437 772 442 775T457 779H572Q583 779 583 773Z"  />
<glyph unicode="&#xF4;" horiz-adv-x="574" d="M588 374Q588 350 583 322L568 241Q521 -8 286 -8Q235 -8 198 8T135 53T98 117T86 193Q86 205 87 217T90 241L105 322Q128 446 199 508T388 571Q439 571 477 555T539 512T576 449T588 374ZM455 366Q455 457 368 457Q322 457 286 427T237 322L222 241Q220 229 219 218T218 197Q218 106 306 106Q359 106 391 138T436 241L451 322Q453 334 454 345T455 366ZM584 636Q584 627 574 627H497Q488 627 485 630T476 640L419 721L334 640Q326 633 322 630T308 627H219Q211 627 211 633Q211 638 217 644L330 764Q338 772 343 775T358 779H488Q498 779 502 776T512 764L582 644Q584 641 584 636Z"  />
<glyph unicode="&#xF5;" horiz-adv-x="574" d="M588 374Q588 350 583 322L568 241Q521 -8 286 -8Q235 -8 198 8T135 53T98 117T86 193Q86 205 87 217T90 241L105 322Q128 446 199 508T388 571Q439 571 477 555T539 512T576 449T588 374ZM455 366Q455 457 368 457Q322 457 286 427T237 322L222 241Q220 229 219 218T218 197Q218 106 306 106Q359 106 391 138T436 241L451 322Q453 334 454 345T455 366ZM609 767Q609 765 609 764T608 761L604 739Q593 680 566 652T480 624Q463 624 444 630T408 650L369 683Q358 692 349 698T331 704Q319 704 310 697T297 670L293 649Q290 633 277 633H220Q207 633 207 644Q207 646 207 646T208 649L212 670Q223 730 254 757T338 785Q355 785 374 780T409 760L447 727Q470 707 486 707Q500 707 507 713T519 740L523 761Q526 777 540 777H597Q609 777 609 767Z"  />
<glyph unicode="&#xF6;" horiz-adv-x="574" d="M588 374Q588 350 583 322L568 241Q521 -8 286 -8Q235 -8 198 8T135 53T98 117T86 193Q86 205 87 217T90 241L105 322Q128 446 199 508T388 571Q439 571 477 555T539 512T576 449T588 374ZM455 366Q455 457 368 457Q322 457 286 427T237 322L222 241Q220 229 219 218T218 197Q218 106 306 106Q359 106 391 138T436 241L451 322Q453 334 454 345T455 366ZM574 747L558 659Q556 651 549 645T534 639H462Q454 639 449 643T444 656V659L460 747Q462 755 469 761T484 767H556Q564 767 569 762T574 750V747ZM374 747L358 659Q356 651 349 645T334 639H262Q254 639 249 643T244 656V659L260 747Q262 755 269 761T284 767H356Q364 767 369 762T374 750V747Z"  />
<glyph unicode="&#xF7;" horiz-adv-x="610" d="M452 542Q452 534 446 528T432 522H342Q334 522 328 528T322 542V645Q322 653 328 658T342 664H432Q440 664 446 659T452 645V542ZM610 356Q610 348 604 344T590 340H185Q177 340 171 344T165 356V426Q165 434 171 438T185 442H590Q598 442 604 438T610 426V356ZM452 127Q452 119 446 114T432 108H342Q334 108 328 113T322 127V230Q322 238 328 244T342 250H432Q440 250 446 244T452 230V127Z"  />
<glyph unicode="&#xF8;" horiz-adv-x="574" d="M654 591Q654 584 648 578L562 481Q576 458 582 431T588 374Q588 350 583 322L568 241Q521 -8 286 -8Q245 -8 214 2T158 31L108 -25Q102 -32 99 -33T90 -35H25Q18 -35 18 -29Q18 -22 24 -16L113 84Q86 132 86 193Q86 205 87 217T90 241L105 322Q128 446 199 508T388 571Q429 571 460 561T516 533L565 587Q571 594 574 595T582 597H647Q654 597 654 591ZM430 437Q408 457 368 457Q322 457 286 427T237 322L222 241Q220 230 219 220T218 200L430 437ZM243 126Q266 106 306 106Q359 106 391 138T436 241L451 322Q455 342 455 362L243 126Z"  />
<glyph unicode="&#xF9;" horiz-adv-x="592" d="M605 564Q626 564 622 543L530 20Q528 12 522 6T507 0H421Q413 0 409 5T404 18V20L407 41Q370 20 330 6T247 -9Q218 -9 191 -1T142 25T109 72T96 143Q96 160 97 178T103 217L160 543Q162 551 167 557T184 564H276Q296 564 292 543L235 217Q232 198 230 184T228 157Q228 125 241 115T289 105Q306 105 325 109T361 118T394 130T419 141L490 543Q492 551 497 557T513 564H605ZM486 636Q486 627 476 627H402Q393 627 390 630T381 640L284 764Q281 768 281 771Q281 779 293 779H387Q397 779 401 776T411 764L484 644Q486 641 486 636Z"  />
<glyph unicode="&#xFA;" horiz-adv-x="592" d="M605 564Q626 564 622 543L530 20Q528 12 522 6T507 0H421Q413 0 409 5T404 18V20L407 41Q370 20 330 6T247 -9Q218 -9 191 -1T142 25T109 72T96 143Q96 160 97 178T103 217L160 543Q162 551 167 557T184 564H276Q296 564 292 543L235 217Q232 198 230 184T228 157Q228 125 241 115T289 105Q306 105 325 109T361 118T394 130T419 141L490 543Q492 551 497 557T513 564H605ZM605 773Q605 768 599 764L459 640Q451 633 447 630T433 627H337Q329 627 329 633Q329 638 335 644L451 764Q459 772 464 775T479 779H594Q605 779 605 773Z"  />
<glyph unicode="&#xFB;" horiz-adv-x="592" d="M605 564Q626 564 622 543L530 20Q528 12 522 6T507 0H421Q413 0 409 5T404 18V20L407 41Q370 20 330 6T247 -9Q218 -9 191 -1T142 25T109 72T96 143Q96 160 97 178T103 217L160 543Q162 551 167 557T184 564H276Q296 564 292 543L235 217Q232 198 230 184T228 157Q228 125 241 115T289 105Q306 105 325 109T361 118T394 130T419 141L490 543Q492 551 497 557T513 564H605ZM593 636Q593 627 583 627H506Q497 627 494 630T485 640L428 721L343 640Q335 633 331 630T317 627H228Q220 627 220 633Q220 638 226 644L339 764Q347 772 352 775T367 779H497Q507 779 511 776T521 764L591 644Q593 641 593 636Z"  />
<glyph unicode="&#xFC;" horiz-adv-x="592" d="M605 564Q626 564 622 543L530 20Q528 12 522 6T507 0H421Q413 0 409 5T404 18V20L407 41Q370 20 330 6T247 -9Q218 -9 191 -1T142 25T109 72T96 143Q96 160 97 178T103 217L160 543Q162 551 167 557T184 564H276Q296 564 292 543L235 217Q232 198 230 184T228 157Q228 125 241 115T289 105Q306 105 325 109T361 118T394 130T419 141L490 543Q492 551 497 557T513 564H605ZM584 747L568 659Q566 651 559 645T544 639H472Q464 639 459 643T454 656V659L470 747Q472 755 479 761T494 767H566Q574 767 579 762T584 750V747ZM384 747L368 659Q366 651 359 645T344 639H272Q264 639 259 643T254 656V659L270 747Q272 755 279 761T294 767H366Q374 767 379 762T384 750V747Z"  />
<glyph unicode="&#xFD;" horiz-adv-x="559" d="M616 564Q627 564 630 558T629 541L359 -43Q340 -84 321 -113T276 -162T215 -191T128 -200Q103 -200 72 -196T24 -187Q16 -185 10 -182T6 -170L17 -106Q19 -95 23 -91T42 -88Q52 -89 67 -90T98 -92T128 -93T154 -94Q186 -94 205 -82T241 -30L254 0H243Q232 0 221 2T200 12T182 37T171 83L120 541Q118 556 124 560T142 564H234Q248 564 251 560T255 546L285 139Q286 126 288 122T298 117H304L487 547Q490 554 494 559T510 564H616ZM612 773Q612 768 606 764L466 640Q458 633 454 630T440 627H344Q336 627 336 633Q336 638 342 644L458 764Q466 772 471 775T486 779H601Q612 779 612 773Z"  />
<glyph unicode="&#xFE;" horiz-adv-x="577" d="M593 378Q593 364 592 350T588 320L575 243Q553 112 483 52T292 -8Q274 -8 249 -7T197 -1L166 -178Q164 -186 157 -192T142 -198H50Q42 -198 38 -193T34 -181V-178L196 741Q198 749 204 755T218 761H314Q329 761 329 745V741L296 565Q347 571 394 571Q444 571 481 557T543 518T580 457T593 378ZM462 379Q462 420 443 441T375 463Q348 463 320 461T277 456L216 107Q236 104 264 102T311 100Q343 100 366 111T404 142T429 188T443 243L456 320Q462 353 462 379Z"  />
<glyph unicode="&#xFF;" horiz-adv-x="559" d="M616 564Q627 564 630 558T629 541L359 -43Q340 -84 321 -113T276 -162T215 -191T128 -200Q103 -200 72 -196T24 -187Q16 -185 10 -182T6 -170L17 -106Q19 -95 23 -91T42 -88Q52 -89 67 -90T98 -92T128 -93T154 -94Q186 -94 205 -82T241 -30L254 0H243Q232 0 221 2T200 12T182 37T171 83L120 541Q118 556 124 560T142 564H234Q248 564 251 560T255 546L285 139Q286 126 288 122T298 117H304L487 547Q490 554 494 559T510 564H616ZM588 747L572 659Q570 651 563 645T548 639H476Q468 639 463 643T458 656V659L474 747Q476 755 483 761T498 767H570Q578 767 583 762T588 750V747ZM388 747L372 659Q370 651 363 645T348 639H276Q268 639 263 643T258 656V659L274 747Q276 755 283 761T298 767H370Q378 767 383 762T388 750V747Z"  />
<glyph unicode="&#x131;" horiz-adv-x="268" d="M296 544L204 21Q202 13 195 7T180 0H88Q80 0 76 5T72 17V21L164 544Q166 552 172 558T187 564H279Q296 564 296 547V544Z"  />
<glyph unicode="&#x152;" horiz-adv-x="985" d="M1052 723Q1052 721 1052 720T1051 716L1040 652Q1038 644 1031 638T1016 632H812Q768 632 748 614T718 546L699 438H970Q978 438 982 433T987 421V419V418L974 346Q972 338 965 332T950 326H679L657 197Q654 177 654 164Q654 134 670 123T721 111H925Q941 111 941 95V92V91L930 27Q928 16 923 12T906 6Q894 4 879 2T842 -3T790 -6T714 -8Q655 -8 609 4T538 56Q493 20 445 6T339 -8Q287 -8 244 7T169 51T120 125T102 229Q102 266 109 304L132 439Q147 529 179 589T255 685T355 736T472 751Q532 751 575 734T647 687Q681 725 734 738T847 751Q892 751 922 750T974 746T1009 742T1035 737Q1052 734 1052 723ZM569 514Q569 577 539 603T451 630Q415 630 386 621T335 590T297 531T272 439L249 304Q246 285 244 268T242 236Q242 200 249 176T271 138T308 119T360 113Q429 113 473 152T533 280L566 463Q568 474 568 484T569 505V514Z"  />
<glyph unicode="&#x153;" horiz-adv-x="920" d="M935 367Q935 355 934 343T931 317L921 261Q916 236 897 236H569L568 231Q563 208 563 188Q563 153 583 128T657 103Q684 103 712 104T766 106T814 109T853 113H856Q862 113 866 111T871 101V98L860 35Q858 23 854 17T835 9Q810 4 789 1T745 -4T698 -7T638 -8Q595 -8 552 8T479 59Q406 -8 286 -8Q235 -8 198 8T135 53T98 117T86 193Q86 205 87 217T90 241L105 322Q128 446 199 508T388 571Q443 571 482 553T546 504Q621 571 738 571Q786 571 823 555T884 511T922 446T935 367ZM807 378Q807 423 783 440T718 457Q671 457 636 428T587 335L586 330H802Q804 342 805 354T807 378ZM455 366Q455 457 368 457Q322 457 286 427T237 322L222 241Q220 229 219 218T218 197Q218 106 306 106Q359 106 391 138T436 241L451 322Q453 334 454 345T455 366Z"  />
<glyph unicode="&#x160;" horiz-adv-x="570" d="M427 751Q452 751 480 750T534 745T582 739T616 733Q623 731 628 728T631 714L618 640Q616 630 613 625T596 622Q546 627 501 629T400 632Q379 632 358 629T320 617T293 594T282 557Q282 531 296 513T349 472L457 405Q518 367 540 325T563 225Q563 163 539 119T474 46T377 5T261 -8Q204 -8 163 -3T87 10Q80 12 75 15T71 30L84 102Q86 110 90 116T108 121Q123 119 147 118T197 115T246 112T284 111Q310 111 334 116T376 132T405 160T416 204Q416 232 402 252T348 299L230 378Q204 395 188 415T161 458T146 503T142 547Q142 607 166 646T231 709T322 742T427 751ZM632 941Q632 936 626 930L511 810Q503 802 498 799T483 795H353Q343 795 339 798T329 810L255 930Q252 934 252 938Q252 947 263 947H344Q353 947 357 944T366 933L423 854L508 933Q516 940 520 943T533 947H624Q632 947 632 941Z"  />
<glyph unicode="&#x161;" horiz-adv-x="489" d="M328 571Q373 571 418 566T505 550Q513 548 517 544T519 527L509 470Q507 459 503 454T486 451Q476 452 458 454T418 458T373 461T328 463Q314 463 301 462T276 457T258 444T251 422Q251 409 256 400T281 376L398 296Q443 265 457 234T472 170Q472 123 454 90T406 34T336 2T251 -8Q239 -8 218 -8T172 -5T121 2T71 12Q53 17 56 35L67 95Q69 103 73 108T91 111Q109 109 132 107T177 104T220 101T251 100Q288 100 312 110T337 156Q337 168 330 179T304 204L199 276Q156 305 137 337T117 419Q117 464 136 493T186 540T254 564T328 571ZM568 773Q568 768 562 762L447 642Q439 634 434 631T419 627H289Q279 627 275 630T265 642L191 762Q188 766 188 770Q188 779 199 779H280Q289 779 293 776T302 765L359 686L444 765Q452 772 456 775T469 779H560Q568 779 568 773Z"  />
<glyph unicode="&#x178;" horiz-adv-x="615" d="M718 730Q718 726 715 720L502 373Q482 340 464 323T428 298L379 20Q377 12 371 6T356 0H256Q238 0 241 20L290 298Q275 305 263 322T242 373L152 720Q145 743 170 743H275Q289 743 293 727L361 429Q364 416 366 414T374 411Q382 411 385 413T396 429L568 727Q577 743 593 743H704Q718 743 718 730ZM627 908L611 820Q609 812 602 806T587 800H515Q507 800 502 804T497 817V820L513 908Q515 916 522 922T537 928H609Q617 928 622 923T627 911V908ZM427 908L411 820Q409 812 402 806T387 800H315Q307 800 302 804T297 817V820L313 908Q315 916 322 922T337 928H409Q417 928 422 923T427 911V908Z"  />
<glyph unicode="&#x17D;" horiz-adv-x="598" d="M200 622Q181 622 184 640L199 724Q202 743 221 743H624Q676 743 670 705L660 647Q658 636 653 626T639 606L249 139Q243 131 243 127Q243 122 251 122H555Q574 122 571 104L557 20Q555 9 551 5T533 0H96Q46 0 52 37L61 92Q63 101 67 110T81 130L478 605Q483 612 483 616Q483 622 474 622H200ZM665 940Q665 935 659 929L544 809Q536 801 531 798T516 794H386Q376 794 372 797T362 809L288 929Q285 933 285 937Q285 946 296 946H377Q386 946 390 943T399 932L456 853L541 932Q549 939 553 942T566 946H657Q665 946 665 940Z"  />
<glyph unicode="&#x17E;" horiz-adv-x="490" d="M507 564Q533 564 538 552T540 523L530 466Q529 462 528 455T521 443L238 124Q235 121 235 119Q235 117 241 117H453Q461 117 465 115T468 101L454 20Q452 12 448 6T430 0H80Q60 0 52 9T47 40L53 75Q56 89 60 97T73 115L368 448Q371 451 371 454Q371 457 367 457H149Q141 457 136 460T133 473L146 544Q148 558 154 561T169 564H507ZM585 773Q585 768 579 762L464 642Q456 634 451 631T436 627H306Q296 627 292 630T282 642L208 762Q205 766 205 770Q205 779 216 779H297Q306 779 310 776T319 765L376 686L461 765Q469 772 473 775T486 779H577Q585 779 585 773Z"  />
<glyph unicode="&#x192;" horiz-adv-x="630" d="M654 754Q654 752 654 752T653 749L639 691Q636 674 614 674H553Q516 674 502 662T479 617L440 444H578Q594 444 594 430Q594 428 594 428T593 425L578 360Q576 352 569 346T554 340H417L339 3Q328 -42 309 -72T262 -121T203 -147T134 -155Q105 -155 83 -153T48 -148Q31 -145 31 -135Q31 -134 31 -133T32 -130L45 -72Q48 -55 70 -55H131Q168 -55 182 -43T205 2L283 340H156Q139 340 139 356V360L154 425Q156 433 163 438T179 444H306L345 617Q355 663 375 693T422 741T481 766T550 774Q579 774 601 772T636 767Q654 764 654 754Z"  />
<glyph unicode="&#x2C6;" horiz-adv-x="415" d="M506 636Q506 627 496 627H419Q410 627 407 630T398 640L341 721L256 640Q248 633 244 630T230 627H141Q133 627 133 633Q133 638 139 644L252 764Q260 772 265 775T280 779H410Q420 779 424 776T434 764L504 644Q506 641 506 636Z"  />
<glyph unicode="&#x2DC;" horiz-adv-x="496" d="M568 767Q568 765 568 764T567 761L563 739Q552 680 525 652T439 624Q422 624 403 630T367 650L328 683Q317 692 308 698T290 704Q278 704 269 697T256 670L252 649Q249 633 236 633H179Q166 633 166 644Q166 646 166 646T167 649L171 670Q182 730 213 757T297 785Q314 785 333 780T368 760L406 727Q429 707 445 707Q459 707 466 713T478 740L482 761Q485 777 499 777H556Q568 777 568 767Z"  />
<glyph unicode="&#x2013;" horiz-adv-x="309" d="M369 256Q367 248 361 243T346 238H45Q27 238 30 256L41 319Q44 338 63 338H364Q383 338 380 319L369 256H369Z"  />
<glyph unicode="&#x2014;" horiz-adv-x="599" d="M659 256Q657 248 651 243T636 238H45Q27 238 30 256L41 319Q44 338 63 338H654Q673 338 670 319L659 256H659Z"  />
<glyph unicode="&#x2018;" horiz-adv-x="215" d="M329 754Q329 748 326 742L238 535Q230 516 215 516H121Q111 516 111 524Q111 529 114 535L219 742Q228 761 241 761H321Q329 761 329 754Z"  />
<glyph unicode="&#x2019;" horiz-adv-x="215" d="M329 753Q329 748 326 742L221 535Q216 524 212 520T199 516H119Q111 516 111 523Q111 529 114 535L202 742Q210 761 225 761H319Q329 761 329 753Z"  />
<glyph unicode="&#x201A;" horiz-adv-x="215" d="M227 143Q227 139 224 133L100 -77Q95 -86 91 -91T78 -97H9Q-4 -97 -4 -85Q-4 -83 -2 -77L96 133Q105 152 120 152H216Q227 152 227 143Z"  />
<glyph unicode="&#x201C;" horiz-adv-x="416" d="M530 754Q530 748 527 742L439 535Q431 516 416 516H322Q312 516 312 524Q312 529 315 535L420 742Q429 761 442 761H522Q530 761 530 754ZM329 754Q329 748 326 742L238 535Q230 516 215 516H121Q111 516 111 524Q111 529 114 535L219 742Q228 761 241 761H321Q329 761 329 754Z"  />
<glyph unicode="&#x201D;" horiz-adv-x="416" d="M530 753Q530 748 527 742L422 535Q417 524 413 520T400 516H320Q312 516 312 523Q312 529 315 535L403 742Q411 761 426 761H520Q530 761 530 753ZM329 753Q329 748 326 742L221 535Q216 524 212 520T199 516H119Q111 516 111 523Q111 529 114 535L202 742Q210 761 225 761H319Q329 761 329 753Z"  />
<glyph unicode="&#x201E;" horiz-adv-x="416" d="M437 143Q437 139 434 133L310 -77Q305 -86 301 -91T288 -97H219Q206 -97 206 -85Q206 -83 208 -77L306 133Q315 152 330 152H426Q437 152 437 143ZM227 143Q227 139 224 133L100 -77Q95 -86 91 -91T78 -97H9Q-4 -97 -4 -85Q-4 -83 -2 -77L96 133Q105 152 120 152H216Q227 152 227 143Z"  />
<glyph unicode="&#x2020;" horiz-adv-x="425" d="M491 557L477 477Q474 461 455 461H356L277 14Q275 6 271 0T258 -6H156Q143 -6 143 9V14L222 461H133Q117 461 117 474V477L131 557Q134 572 153 572H242L272 742Q274 750 279 755T292 761H393Q400 761 403 757T406 746V742L376 572H475Q491 572 491 560V557Z"  />
<glyph unicode="&#x2021;" horiz-adv-x="425" d="M491 557L477 477Q474 461 455 461H356L339 362H438Q454 362 454 350V347L440 267Q437 251 418 251H319L277 14Q275 6 271 0T258 -6H156Q143 -6 143 9V14L185 251H96Q80 251 80 264V267L94 347Q97 362 116 362H205L222 461H133Q117 461 117 474V477L131 557Q134 572 153 572H242L272 742Q274 750 279 755T292 761H393Q400 761 403 757T406 746V742L376 572H475Q491 572 491 560V557Z"  />
<glyph unicode="&#x2022;" horiz-adv-x="418" d="M445 367Q445 333 432 303T397 251T345 216T281 203Q247 203 217 216T165 251T130 303T117 367Q117 401 130 431T165 483T217 518T281 531Q315 531 345 518T397 483T432 431T445 367Z"  />
<glyph unicode="&#x2026;" horiz-adv-x="703" d="M673 133L654 20Q652 12 645 6T630 0H540Q524 0 524 17V20L543 133Q545 141 552 146T567 152H657Q673 152 673 136V133ZM440 133L421 20Q419 12 412 6T397 0H307Q291 0 291 17V20L310 133Q312 141 319 146T334 152H424Q440 152 440 136V133ZM207 133L188 20Q186 12 179 6T164 0H74Q58 0 58 17V20L77 133Q79 141 86 146T101 152H191Q207 152 207 136V133Z"  />
<glyph unicode="&#x2030;" horiz-adv-x="1160" d="M1168 286Q1168 275 1167 264T1164 242L1150 160Q1134 70 1093 31T978 -8Q921 -8 891 26T861 118Q861 140 865 160L879 242Q887 289 902 321T940 372T990 400T1052 409Q1109 409 1138 376T1168 286ZM820 286Q820 275 819 264T816 242L802 160Q786 70 745 31T630 -8Q573 -8 543 26T513 118Q513 140 517 160L531 242Q539 289 554 321T592 372T642 400T704 409Q761 409 790 376T820 286ZM804 737Q804 733 797 723L256 18Q248 7 243 2T229 -3H145Q137 -3 137 4Q137 10 143 18L684 723Q692 734 698 738T712 743H796Q804 743 804 737ZM431 625Q431 614 430 603T427 581L413 499Q397 409 356 370T241 331Q184 331 154 365T124 456Q124 466 125 477T128 499L142 581Q150 628 165 660T203 711T253 739T315 748Q372 748 401 715T431 625ZM1083 283Q1083 312 1072 323T1039 335Q1012 335 993 315T964 242L950 160Q946 140 946 121Q946 90 958 78T991 66Q1018 66 1037 86T1065 160L1079 242Q1081 254 1082 264T1083 283ZM735 283Q735 312 724 323T691 335Q664 335 645 315T616 242L602 160Q598 140 598 121Q598 90 610 78T643 66Q670 66 689 86T717 160L731 242Q733 254 734 264T735 283ZM346 621Q346 650 335 662T302 674Q275 674 256 654T227 581L213 499Q209 479 209 460Q209 429 221 417T254 405Q281 405 300 425T328 499L342 581Q344 593 345 603T346 621Z"  />
<glyph unicode="&#x2039;" horiz-adv-x="402" d="M451 488Q451 483 447 480L220 282L366 84Q368 82 368 79Q368 74 364 70T351 66H267Q254 66 249 69T239 79L108 257Q98 272 98 284Q98 300 112 313L300 485Q308 492 313 495T332 498H438Q451 498 451 488Z"  />
<glyph unicode="&#x203A;" horiz-adv-x="402" d="M414 280Q414 264 400 251L212 79Q204 72 199 69T180 66H74Q61 66 61 76Q61 81 65 84L292 282L146 480Q144 482 144 485Q144 490 148 494T161 498H245Q258 498 263 495T273 485L404 307Q414 292 414 280Z"  />
<glyph unicode="&#x20AC;" horiz-adv-x="630" d="M681 712L669 645Q666 624 646 624H643Q608 627 575 629T501 632Q473 632 446 625T396 602T353 558T321 489H566Q580 489 580 476Q580 475 578 469L558 427Q554 419 549 413T535 407H303L291 339H498Q511 339 511 327Q511 325 509 319L490 277Q486 269 480 263T466 257H279V252V243Q279 207 289 182T317 141T358 118T409 111Q449 111 481 113T554 119H555H557Q573 119 573 104Q573 102 573 101T572 98L560 31Q558 20 552 16T534 8Q522 5 483 -1T386 -8Q344 -8 301 5T221 47T162 121T139 230Q139 238 139 243T140 257H91Q75 257 75 273V276V277L82 319Q84 327 91 333T106 339H151L163 407H118Q110 407 106 412T101 424V426V427L109 469Q111 477 117 483T132 489H180Q201 573 240 624T326 704T423 741T520 751Q578 751 615 745T663 735Q671 733 676 729T681 716V712Z"  />
<glyph unicode="&#x2122;" horiz-adv-x="814" d="M859 348Q859 338 849 338H785Q775 338 775 348V593Q775 617 773 632T762 655T737 666T691 669V348Q691 338 680 338H616Q606 338 606 348V669Q581 669 560 668T522 665V348Q522 338 512 338H449Q438 338 438 348V709Q438 724 443 729T461 737Q518 742 561 744T648 747Q703 747 742 743T808 722T846 676T859 593V348ZM405 685Q405 679 400 676T390 672H302V352Q302 347 298 343T288 338H229Q223 338 219 342T215 352V672H125Q120 672 116 675T111 685V729Q111 743 125 743H390Q396 743 400 739T405 729V685Z"  />

</font>
</defs>
</svg>
