<?xml  version="1.0" encoding="UTF-8"?>
<!DOCTYPE svg PUBLIC "-//W3C//DTD SVG 1.0//EN" "http://www.w3.org/TR/2001/REC-SVG-20010904/DTD/svg10.dtd" >
<svg xmlns="http://www.w3.org/2000/svg" >
<metadata>
<version>1.0</version>
<id><![CDATA[Neo Sans W01 Italic]]></id>
<vendor>Monotype Imaging Inc.</vendor>
<credits>
<name>Fonts.com WebFonts</name>
<URL>http://webfonts.fonts.com</URL>
<role>Home of the Web fonts</role>
</credits>
<license>
<URL>http://webfonts.fonts.com/Legal</URL>
</license>
<copyright><![CDATA[Copyright 2004 Monotype Imaging Inc. All Rights Reserved. Neo Sans is designed by Sebastian Lester.]]></copyright>
<trademark><![CDATA[Neo Sans is a trademark of Monotype Imaging Inc. and may be registered in certain jurisdictions.]]></trademark>
<licensee>
<name></name>
</licensee>
</metadata>
<defs >
<font horiz-adv-x="514" id="fabf21ce-e10a-4847-bd79-116d2e06352d">
<font-face font-family="" panose-1="2 11 5 4 3 5 4 9 2 4" ascent="980" descent="-216" units-per-em="1000" alphabetic="0">
</font-face>
<missing-glyph horiz-adv-x="0" />

<glyph unicode="&#xA;" />
<glyph unicode="&#xD;" horiz-adv-x="0" />
<glyph unicode=" " horiz-adv-x="273" />
<glyph unicode="!" horiz-adv-x="217" d="M283 733L184 213Q182 205 176 200T161 194H125Q109 194 109 210V213L193 733Q195 741 202 746T217 752H267Q283 752 283 736V733ZM172 113L155 19Q152 0 133 0H85Q69 0 69 16V19L86 113Q88 121 94 126T108 132H156Q172 132 172 116V113Z"  />
<glyph unicode="&quot;" horiz-adv-x="362" d="M464 744Q464 740 461 733L370 544Q365 533 361 529T348 525H301Q293 525 293 532Q293 538 296 544L375 733Q383 752 399 752H455Q464 752 464 744ZM294 744Q294 740 291 733L200 544Q195 533 191 529T178 525H131Q123 525 123 532Q123 538 126 544L205 733Q213 752 229 752H285Q294 752 294 744Z"  />
<glyph unicode="#" horiz-adv-x="660" d="M701 517Q701 512 700 510L694 488Q689 469 671 469H574L520 267H618Q631 267 631 253Q631 248 630 246L625 225Q620 206 601 206H503L454 19Q452 11 447 6T433 0H389Q375 0 375 14Q375 15 375 16T376 19L425 206H270L221 19Q219 11 214 6T200 0H155Q141 0 141 14Q141 16 141 16T142 19L191 206H98Q85 206 85 220Q85 225 86 227L92 248Q97 267 115 267H208L262 469H168Q161 469 158 473T154 484Q154 488 155 490L161 512Q166 531 185 531H278L329 724Q331 732 337 737T351 743H396Q409 743 409 729Q409 728 409 727T408 724L357 531H512L563 724Q565 732 571 737T585 743H629Q642 743 642 730Q642 726 641 724L590 531H688Q701 531 701 517ZM341 469L287 267H442L496 469H341Z"  />
<glyph unicode="$" horiz-adv-x="605" d="M634 720L626 677Q623 661 607 661H605Q572 661 525 665T434 670Q403 670 373 667T320 651T283 617T268 555Q268 525 290 504T358 452L440 397Q477 372 501 350T539 307T558 265T564 222Q564 174 547 135T499 68T429 21T343 -3L327 -97Q325 -105 318 -111T303 -117H256Q240 -117 240 -101V-98V-97L256 -7Q212 -6 178 -2T115 7Q98 10 98 19Q98 21 98 22T99 25L107 66Q110 82 126 82H128H129Q146 80 167 79T210 76T254 74T293 73Q327 73 358 80T414 103T453 146T468 212Q468 241 446 266T370 327L283 386Q227 424 202 462T176 546Q176 594 193 630T239 690T306 728T389 747L403 833Q405 841 412 847T427 853H474Q490 853 490 837V834V833L476 750Q516 748 556 745T620 737Q634 735 634 723V721V720Z"  />
<glyph unicode="%" horiz-adv-x="794" d="M797 294Q797 283 796 272T793 248L776 155Q760 67 720 30T614 -7Q563 -7 533 24T503 112Q503 122 504 133T507 155L524 248Q540 335 581 372T687 409Q739 409 768 380T797 294ZM780 738Q780 732 773 724L230 16Q222 5 217 1T204 -4H155Q147 -4 147 2Q147 8 153 16L696 724Q704 735 709 739T722 743H773Q780 743 780 738ZM422 635Q422 624 421 613T418 589L401 496Q385 408 345 371T239 334Q188 334 158 365T128 453Q128 463 129 474T132 496L149 589Q165 676 206 713T312 750Q364 750 393 721T422 635ZM735 290Q735 325 720 339T677 353Q645 353 621 329T586 248L569 155Q567 143 566 133T565 113Q565 78 580 64T624 50Q657 50 680 75T714 155L731 248Q733 260 734 270T735 290ZM360 631Q360 666 345 680T302 694Q270 694 246 670T211 589L194 496Q192 484 191 474T190 454Q190 419 205 405T249 391Q282 391 305 416T339 496L356 589Q358 601 359 611T360 631Z"  />
<glyph unicode="&amp;" horiz-adv-x="678" d="M674 361Q660 295 636 233T566 117L641 17Q645 12 645 8Q645 0 633 0H563Q556 0 553 2T548 7L508 61Q465 29 412 11T297 -7Q249 -7 210 2T142 30T98 78T82 149Q82 190 94 222T130 281T188 332T266 381L256 395Q224 440 205 476T186 560Q186 610 202 646T247 705T315 739T403 750Q500 750 550 714T601 614Q601 577 590 548T555 492T496 441T411 386L377 366L523 172Q554 214 570 262T598 361Q600 369 603 373T614 377H659Q674 377 674 365V361ZM519 614Q519 648 494 666T403 684Q334 684 301 657T268 560Q268 543 271 528T282 499T301 469T326 434L335 422L375 444Q409 463 435 478T480 512T509 554T519 614ZM307 326Q280 311 256 295T213 259T183 213T172 152Q172 98 207 80T309 62Q357 62 397 76T469 113L307 326Z"  />
<glyph unicode="&apos;" horiz-adv-x="192" d="M294 744Q294 740 291 733L200 544Q195 533 191 529T178 525H131Q123 525 123 532Q123 538 126 544L205 733Q213 752 229 752H285Q294 752 294 744Z"  />
<glyph unicode="(" horiz-adv-x="305" d="M415 746Q415 742 409 734Q292 597 237 434T181 93Q181 13 195 -58T241 -191Q243 -197 243 -199Q243 -209 231 -209H189Q181 -209 177 -208T168 -198Q130 -141 113 -61T95 111Q95 193 109 280T153 450T225 607T328 741Q336 749 340 750T353 752H406Q415 752 415 746Z"  />
<glyph unicode=")" horiz-adv-x="305" d="M320 432Q320 350 306 263T262 93T189 -65T87 -198Q79 -206 75 -207T62 -209H9Q0 -209 0 -202Q0 -198 5 -191Q123 -54 178 108T234 450Q234 525 220 598T174 734Q172 738 172 741Q172 752 185 752H226Q234 752 238 751T247 741Q285 684 302 604T320 432Z"  />
<glyph unicode="*" horiz-adv-x="465" d="M525 598Q525 588 511 583L386 544L463 438Q468 431 468 425Q468 418 462 414L438 396Q433 393 430 393Q422 393 415 403L339 509L263 403Q256 393 248 393Q244 393 240 396L215 414Q209 418 209 425Q209 431 214 438L292 544L168 583Q162 585 158 589T153 598Q153 600 153 600T154 603L163 632Q166 642 176 642Q179 642 185 640L310 599L309 730Q309 749 324 749H354Q369 749 369 730L368 599L493 640Q499 642 502 642Q512 642 515 632L524 603Q525 601 525 598Z"  />
<glyph unicode="+" horiz-adv-x="595" d="M596 371Q596 363 590 359T576 355H404V184Q404 176 400 170T388 164H348Q340 164 336 170T332 184V355H161Q153 355 147 359T141 371V411Q141 419 147 423T161 427H332V599Q332 607 336 613T348 619H388Q396 619 400 613T404 599V427H576Q584 427 590 423T596 411V371H596Z"  />
<glyph unicode="&#x2c;" horiz-adv-x="214" d="M189 121Q189 116 186 110L78 -79Q73 -89 69 -93T56 -98H15Q4 -98 4 -89Q4 -85 7 -79L97 110Q106 129 121 129H179Q189 129 189 121Z"  />
<glyph unicode="-" horiz-adv-x="333" d="M340 312L333 273Q330 256 311 256H112Q96 256 96 270V273L103 312Q105 320 111 325T125 330H324Q340 330 340 315V312Z"  />
<glyph unicode="." horiz-adv-x="214" d="M170 114L154 21Q152 13 146 7T131 1H83Q68 1 68 17V21L84 114Q87 133 106 133H154Q170 133 170 117V114Z"  />
<glyph unicode="/" horiz-adv-x="355" d="M461 732Q461 729 459 723L110 20Q106 12 101 6T88 0H37Q26 0 26 11Q26 14 28 20L378 723Q382 731 386 737T399 743H450Q461 743 461 732Z"  />
<glyph unicode="0" horiz-adv-x="605" d="M634 536Q634 491 625 439L602 304Q587 219 561 160T496 63T410 10T302 -7Q210 -7 156 45T102 210Q102 253 111 304L134 439Q149 525 176 584T241 680T328 733T435 750Q529 750 581 698T634 536ZM543 533Q543 610 512 641T422 673Q388 673 357 659T301 617T256 544T226 439L203 304Q194 248 194 208Q194 131 225 101T315 70Q348 70 379 83T436 125T481 198T511 304L534 439Q543 493 543 533Z"  />
<glyph unicode="1" horiz-adv-x="605" d="M90 0Q82 0 77 5T73 18L80 62Q82 70 88 74T103 79H262L363 649L194 583Q188 581 180 581T174 591L183 642Q184 650 195 655L388 737Q401 743 411 743H452Q460 743 464 738T467 724L353 79H513Q521 79 526 75T530 62L523 18Q521 10 515 5T500 0H90Z"  />
<glyph unicode="2" horiz-adv-x="605" d="M631 599Q631 560 619 529T584 470T532 420T464 374L356 309Q309 281 279 257T229 209T199 159T183 100L179 79H512Q519 79 524 76T529 65V62L521 18Q519 10 513 5T498 0H101Q84 0 84 16V19L99 100Q107 145 122 182T161 251T218 311T298 367L411 435Q441 453 465 469T506 503T532 544T542 599Q542 639 512 656T407 674Q368 674 319 670T227 659Q217 657 212 660T210 677L217 712Q219 723 225 725T239 730Q280 740 327 745T420 750Q631 750 631 599Z"  />
<glyph unicode="3" horiz-adv-x="605" d="M623 599Q623 566 615 534T590 473T549 422T494 385Q533 364 547 329T562 259Q562 190 542 140T483 57T392 9T271 -7Q223 -7 182 -1T105 13Q97 15 93 18T90 32L96 66Q98 75 102 80T119 83Q164 77 206 73T284 69Q376 69 423 115T470 256Q470 274 466 290T450 320T420 342T373 350H191Q183 350 178 353T175 368L181 403Q183 411 187 416T203 422H385Q421 422 448 435T493 470T520 523T529 586Q529 611 522 628T500 655T458 669T394 674Q350 674 310 670T220 659H217Q200 659 203 676L209 711Q211 722 217 725T232 730Q270 738 313 744T404 750Q505 750 564 714T623 599Z"  />
<glyph unicode="4" horiz-adv-x="605" d="M597 274Q616 274 613 256L606 216Q604 205 598 202T584 198H497L466 20Q463 0 445 0H387Q371 0 374 20L405 198H116Q81 198 81 224Q81 232 82 237L88 275Q91 294 107 312L476 727Q481 733 488 738T508 743H567Q582 743 586 738T589 721L510 274H597ZM478 605Q478 609 474 609Q471 609 465 603L186 288Q181 281 181 279Q181 274 188 274H419L478 603V605Z"  />
<glyph unicode="5" horiz-adv-x="605" d="M614 743Q626 743 629 739T631 726L623 682Q620 666 600 666H313L259 450H306Q436 450 504 410T573 277Q573 207 552 154T492 65T397 11T272 -7Q223 -7 179 -3T99 11Q80 14 83 31L90 68Q93 88 113 83Q159 75 203 72T285 69Q381 69 430 124T480 272Q480 303 469 323T436 354T378 370T293 375H176Q165 375 162 380T160 393L247 726Q249 734 255 738T270 743H614Z"  />
<glyph unicode="6" horiz-adv-x="605" d="M444 750Q504 750 544 745T613 733Q621 731 628 727T633 714L626 675Q624 662 618 659T599 658Q562 666 521 670T431 674Q377 674 341 658T281 612T244 542T221 452L219 441Q251 448 288 454T373 461Q417 461 455 452T523 422T568 370T585 294Q585 227 565 172T507 77T415 15T292 -7Q195 -7 145 41T94 189Q94 208 95 231T100 277L131 452Q146 536 172 593T238 685T328 735T444 750ZM494 288Q494 319 483 339T454 370T411 386T361 390Q343 390 322 389T280 385T240 379T207 372L190 277Q185 251 184 229T182 188Q182 152 190 129T214 92T252 73T305 67Q351 67 386 85T446 135T482 206T494 288Z"  />
<glyph unicode="7" horiz-adv-x="605" d="M650 680Q650 663 646 649T635 625L241 15Q230 0 216 0H153Q141 0 141 11Q141 18 146 26L558 654Q560 658 560 660Q560 665 554 665H216Q208 665 203 668T199 682L207 724Q209 732 213 737T230 743H554Q606 743 628 727T650 680Z"  />
<glyph unicode="8" horiz-adv-x="605" d="M651 594Q651 528 617 472T522 388Q558 366 575 330T593 255Q593 191 572 142T512 60T422 10T307 -7H297Q253 -7 215 5T149 40T105 95T88 170Q88 239 123 297T220 388Q185 408 168 439T150 510Q150 572 173 617T234 691T323 735T430 750H440Q485 750 524 740T591 711T635 662T651 594ZM561 579Q561 632 528 654T427 676H417Q381 676 349 666T293 635T254 586T239 518Q239 499 245 482T263 452T296 432T347 424H409Q443 424 471 436T519 468T550 517T561 579ZM502 251Q502 270 497 288T479 320T446 343T396 352H334Q296 352 267 338T219 299T190 242T180 175Q180 118 212 94T310 69H320Q407 69 454 118T502 251Z"  />
<glyph unicode="9" horiz-adv-x="605" d="M631 554Q631 535 630 512T625 466L594 291Q579 207 553 150T487 58T397 8T281 -7Q221 -7 181 -2T112 10Q101 12 96 16T92 29L99 68Q101 81 106 84T126 85Q165 77 205 73T294 69Q348 69 384 85T444 131T481 201T504 291L506 302Q474 295 437 289T352 282Q308 282 270 291T202 321T157 373T140 449Q140 516 160 571T218 666T310 728T433 750Q530 750 580 702T631 554ZM543 555Q543 591 535 614T511 651T473 670T420 676Q373 676 338 658T279 608T243 537T231 455Q231 423 242 404T271 373T314 357T364 353Q382 353 403 354T445 358T485 364T518 371L535 466Q540 492 541 514T543 555Z"  />
<glyph unicode=":" horiz-adv-x="219" d="M246 530L230 437Q228 429 222 424T207 418H160Q153 418 148 422T143 434V437L159 530Q161 538 168 544T183 550H230Q237 550 241 545T246 533V530ZM173 113L156 19Q154 11 148 6T133 0H86Q79 0 74 4T69 16V19L86 113Q88 121 94 126T109 132H156Q173 132 173 116V113Z"  />
<glyph unicode=";" horiz-adv-x="219" d="M246 530L230 437Q227 418 208 418H159Q143 418 143 434V437L159 530Q161 538 167 544T182 550H231Q246 550 246 534V530ZM177 120Q177 115 174 109L66 -80Q61 -90 56 -95T43 -100H3Q-7 -100 -7 -91Q-7 -86 -4 -80L86 109Q95 128 110 128H167Q177 128 177 120Z"  />
<glyph unicode="&lt;" horiz-adv-x="595" d="M535 150Q535 140 523 140H465Q457 140 450 142T434 153L193 357Q175 372 175 391Q175 410 193 425L434 629Q443 637 450 639T465 642H523Q535 642 535 632Q535 624 525 615L263 391L525 167Q535 158 535 150Z"  />
<glyph unicode="=" horiz-adv-x="595" d="M590 482Q590 474 584 470T570 466H185Q177 466 171 470T165 482V522Q165 530 171 534T185 538H570Q578 538 584 534T590 522V482ZM590 261Q590 253 584 249T570 245H185Q177 245 171 249T165 261V301Q165 309 171 313T185 317H570Q578 317 584 313T590 301V261Z"  />
<glyph unicode="&gt;" horiz-adv-x="595" d="M582 391Q582 372 564 357L323 153Q307 140 292 140H234Q222 140 222 150Q222 158 232 167L494 391L232 615Q222 624 222 632Q222 642 234 642H292Q300 642 307 640T323 629L564 425Q582 410 582 391Z"  />
<glyph unicode="?" horiz-adv-x="446" d="M494 627Q494 592 484 563T456 509T415 460T368 414L314 363Q297 347 285 336T265 313T251 290T243 262L235 213Q233 205 226 200T211 194H167Q152 194 152 209V212V213L160 262Q164 286 170 305T187 341T214 376T253 415L308 466Q330 486 346 503T374 537T390 573T396 617Q396 648 374 659T304 671Q268 671 236 669T168 662H165Q153 662 153 674V677V679L159 714Q161 723 164 729T180 737Q212 743 249 746T320 750Q357 750 388 743T443 721T480 683T494 627ZM218 112L201 19Q198 0 179 0H131Q114 0 114 16V19L131 112Q133 120 139 126T154 132H202Q210 132 214 127T218 115V112Z"  />
<glyph unicode="@" horiz-adv-x="767" d="M769 401Q769 303 744 237T669 130T549 72T387 54Q309 54 266 83T222 172Q222 192 226 211L250 328Q259 374 275 404T316 453T374 479T449 487Q488 487 523 482T575 472Q595 467 595 453Q595 451 595 450T594 447L531 134Q582 142 615 168T667 231T695 312T703 402Q703 500 644 549T479 598Q350 598 268 534T159 344L128 192Q121 160 121 129Q121 37 181 -8T352 -53Q393 -53 428 -51T496 -46H498Q506 -46 506 -52V-53L502 -85Q501 -93 497 -95T485 -99Q479 -100 465 -101T431 -103T389 -106T344 -107Q281 -107 229 -92T138 -47T78 27T57 128Q57 159 63 192L94 348Q124 502 224 579T489 656Q550 656 601 638T690 587T748 506T769 401ZM500 409Q484 411 467 413T433 415Q388 415 365 394T332 326L309 212Q307 201 306 192T305 175Q305 158 311 149T327 134T350 128T377 126H403H404H407Q417 126 426 126T446 128L500 409Z"  />
<glyph unicode="A" horiz-adv-x="633" d="M607 19Q607 0 590 0H530Q523 0 520 4T516 15L491 245H232L128 15Q126 9 121 5T107 0H46Q32 0 32 13Q32 19 34 23L334 674Q355 720 385 735T449 750Q464 750 479 747T506 736T526 713T537 675L607 23V19ZM453 653Q451 671 437 671Q422 671 414 653L265 324H486L453 653Z"  />
<glyph unicode="B" horiz-adv-x="616" d="M661 574Q661 569 661 564T657 541Q645 478 611 441T523 384Q564 367 585 332T607 252Q607 244 607 235T602 205Q591 141 562 100T490 35T392 2T273 -7Q223 -7 181 -5T111 2Q84 6 84 28Q84 35 85 39L202 705Q208 737 241 742Q267 745 309 747T401 750Q456 750 503 742T586 714T641 665T661 592V574ZM570 583Q570 611 557 628T520 656T463 669T388 673Q362 673 336 672T288 670L244 422H398Q441 422 471 431T520 457T550 495T566 541Q569 557 569 562T570 572V583ZM516 251Q516 271 510 289T488 320T448 341T386 349H232L183 74Q208 73 234 72T286 70Q332 70 370 76T438 97T485 138T511 205Q515 225 515 234T516 251Z"  />
<glyph unicode="C" horiz-adv-x="545" d="M456 750Q504 750 546 745T621 734Q627 733 632 731T635 721L626 670Q625 658 609 659Q596 660 577 661T535 664T489 667T443 668Q406 668 373 657T311 618T261 548T229 441L204 302Q200 281 199 263T197 228Q197 186 207 157T236 110T281 83T338 75Q359 75 383 76T429 78T471 81T505 83Q517 84 520 81T522 67L515 26Q513 17 509 13T491 6Q475 3 459 1T423 -3T379 -6T323 -7Q285 -7 247 5T177 44T126 114T106 222Q106 240 107 260T113 302L138 441Q155 536 189 596T266 691T359 737T456 750Z"  />
<glyph unicode="D" horiz-adv-x="641" d="M668 516Q668 498 667 479T661 439L638 304Q624 221 593 163T517 66T412 11T280 -7Q251 -7 224 -6T172 -4T130 -1T100 3Q88 5 85 11T83 28L204 715Q209 737 229 740Q240 742 259 743T303 746T356 749T413 750Q470 750 517 736T597 692T649 619T668 516ZM577 511Q577 557 564 588T526 638T470 664T399 672Q364 672 339 672T288 669L183 73Q207 71 233 71T294 71Q338 71 379 83T453 122T511 194T547 304L570 439Q577 477 577 511Z"  />
<glyph unicode="E" horiz-adv-x="551" d="M410 668Q370 668 345 663T305 645T281 612T268 564L244 425H551Q570 425 567 405L561 367Q559 359 555 353T537 347H230L201 179Q199 167 198 157T196 138Q196 104 219 90T305 75H495Q503 75 506 73T507 63L498 14Q497 9 496 6T486 0Q475 -1 452 -2T400 -5T342 -6T290 -7Q204 -7 155 28T106 137Q106 159 110 179L177 564Q187 619 207 655T257 712T329 741T423 750Q508 750 552 748T617 741Q622 740 624 738T625 727L616 680Q615 672 612 670T603 668H410H410Z"  />
<glyph unicode="F" horiz-adv-x="551" d="M410 668Q370 668 345 663T305 645T281 612T268 564L244 425H551Q559 425 564 421T567 405L561 367Q559 359 555 353T537 347H230L173 20Q171 12 167 6T150 0H99Q88 0 84 6T82 20L177 564Q187 620 207 656T257 713T329 742T423 750Q503 750 544 748T612 742Q622 740 624 737T625 727L616 680Q614 668 603 668H410H410Z"  />
<glyph unicode="G" horiz-adv-x="612" d="M458 750Q528 750 573 746T646 736Q653 735 657 732T660 721L651 671Q650 663 646 662T633 661Q611 663 591 664T549 666T502 667T444 668Q411 668 377 658T314 621T261 551T226 438L203 304Q199 281 197 262T195 225Q195 183 205 154T234 108T276 82T330 74Q376 74 407 76T457 80L508 366Q510 374 515 380T529 386H583Q591 386 595 381T599 369V366L539 30Q536 11 517 8Q479 2 433 -2T316 -7Q276 -7 238 6T171 47T123 120T105 228Q105 245 106 264T112 304L135 438Q151 534 185 594T263 689T357 737T458 750Z"  />
<glyph unicode="H" horiz-adv-x="680" d="M713 743Q732 743 729 723L606 20Q604 12 597 6T582 0H531Q512 0 515 20L573 352H231L173 20Q171 12 167 6T149 0H98Q89 0 85 6T82 20L205 723Q207 731 211 737T229 743H280Q299 743 296 723L245 433H587L638 723Q640 731 644 737T662 743H713Z"  />
<glyph unicode="I" horiz-adv-x="267" d="M292 743Q310 743 307 724L183 20Q180 0 161 0H106Q96 0 93 6T92 20L216 724Q218 732 222 737T237 743H292Z"  />
<glyph unicode="J" horiz-adv-x="257" d="M291 743Q299 743 304 739T307 724L172 -37Q159 -109 117 -144T-8 -180Q-25 -180 -38 -178T-56 -173Q-64 -170 -63 -161L-57 -124Q-55 -116 -51 -112T-34 -107H5Q45 -107 59 -91T81 -37L216 724Q218 732 222 737T238 743H291Z"  />
<glyph unicode="K" horiz-adv-x="607" d="M691 733Q691 727 686 722L316 382L555 16Q557 12 557 10Q557 0 546 0H474Q460 0 454 10L232 356L173 20Q171 12 168 6T151 0H96Q88 0 84 6T82 20L206 724Q208 732 212 737T228 743H281Q289 743 294 739T297 724L242 410L578 734Q583 739 587 741T600 743H678Q691 743 691 733Z"  />
<glyph unicode="L" d="M506 60L499 16Q498 9 496 7T486 2Q466 -1 414 -4T290 -7Q253 -7 220 -2T161 20T122 63T107 135Q107 148 108 161T112 191L205 723Q207 731 211 737T229 743H280Q289 743 293 737T296 723L201 179Q199 167 198 156T196 135Q196 101 219 88T305 75H493Q506 75 506 63V60Z"  />
<glyph unicode="M" horiz-adv-x="761" d="M786 743Q815 743 810 714L688 20Q686 12 682 6T664 0H615Q596 0 599 20L702 608Q703 614 701 614Q701 614 698 611L505 318Q495 303 485 296T455 289H409Q390 289 382 296T369 318L281 610Q279 615 279 615T277 616Q275 616 274 608L171 20Q169 12 165 6T147 0H98Q89 0 85 6T82 20L204 714Q206 726 212 734T238 743H300Q315 743 320 740T329 726L434 383Q438 372 444 372Q448 372 450 374T458 383L683 726Q689 736 696 739T718 743H786Z"  />
<glyph unicode="N" horiz-adv-x="680" d="M641 724Q643 732 647 737T662 743H715Q723 743 726 739T730 728V724L607 29Q605 17 599 9T573 0H515Q499 0 494 4T486 16L276 603L274 606Q272 606 272 603L169 19Q167 11 162 6T148 0H90Q77 0 80 12L204 715Q206 727 213 735T238 743H287Q308 743 314 739T324 723L532 144Q535 136 536 136Q538 136 539 144L641 724Z"  />
<glyph unicode="O" horiz-adv-x="661" d="M686 520Q686 500 684 480T678 436L655 307Q640 224 612 165T542 67T447 11T330 -7Q282 -7 241 7T170 49T123 121T106 223Q106 243 108 263T114 307L137 436Q153 525 183 585T256 682T351 734T463 750Q513 750 554 736T624 692T670 620T686 520ZM594 519Q594 601 556 634T449 668Q366 668 309 613T229 436L206 307Q202 286 201 267T199 231Q199 145 237 110T344 75Q426 75 483 130T563 307L586 436Q591 459 592 480T594 519Z"  />
<glyph unicode="P" horiz-adv-x="593" d="M645 574Q645 555 642 533L640 520Q629 452 601 409T530 341T434 306T320 296Q296 296 268 297T221 301L172 20Q170 12 166 6T150 0H96Q79 0 82 20L204 717Q209 739 233 742Q266 746 311 748T400 750Q512 750 578 708T645 574ZM554 568Q554 627 514 650T387 673Q363 673 334 672T286 669L234 376Q243 376 256 375T283 374T310 373T334 372Q437 372 487 410T549 520L551 533Q554 552 554 568Z"  />
<glyph unicode="Q" horiz-adv-x="661" d="M686 520Q686 500 684 480T678 436L655 307Q628 155 555 81T373 -5L366 -48Q363 -65 363 -75Q363 -95 375 -100T417 -106H476Q485 -106 491 -109T495 -122L489 -156Q487 -169 465 -174T404 -180Q341 -180 307 -162T273 -89Q273 -69 277 -49L285 -4Q246 2 213 19T156 64T119 131T106 223Q106 243 108 263T114 307L137 436Q153 525 183 585T256 682T351 734T463 750Q513 750 554 736T624 692T670 620T686 520ZM594 519Q594 601 556 634T449 668Q366 668 309 613T229 436L206 307Q202 286 201 267T199 231Q199 145 237 110T344 75Q426 75 483 130T563 307L586 436Q591 459 592 480T594 519Z"  />
<glyph unicode="R" horiz-adv-x="625" d="M655 572Q655 554 652 535L651 528Q638 440 587 390T458 326L588 19Q590 15 590 10Q590 0 579 0H510Q501 0 498 1T490 13L364 311H333Q308 311 275 312T223 314L172 20Q170 12 166 6T150 0H96Q79 0 82 20L205 720Q207 731 213 735T233 742Q249 744 272 745T320 748T368 749T410 750Q464 750 509 740T586 708T637 652T655 572ZM565 568Q565 627 524 647T396 668Q384 668 369 668T338 668T308 667T285 665L237 391Q256 390 284 390T347 389Q389 389 426 396T491 419T537 462T561 528L562 535Q565 553 565 568Z"  />
<glyph unicode="S" horiz-adv-x="550" d="M406 750Q428 750 455 749T508 747T556 743T593 738Q603 736 606 733T607 721L600 678Q598 669 595 665T578 662Q545 664 498 666T406 668Q376 668 346 665T293 650T255 619T240 566Q240 548 244 534T259 507T287 480T329 450L411 395Q446 372 470 350T509 306T530 259T537 207Q537 154 516 114T458 47T369 7T258 -7Q237 -7 214 -6T169 -3T125 1T88 7Q79 9 75 12T72 25L79 65Q81 76 85 79T102 81Q119 79 140 78T183 77T227 76T266 75Q347 75 394 105T441 207Q441 225 436 239T420 266T390 294T345 327L258 386Q207 421 178 464T149 561Q149 613 170 649T226 707T308 740T406 750Z"  />
<glyph unicode="T" horiz-adv-x="590" d="M345 20Q343 12 337 6T323 0H268Q260 0 256 6T254 20L367 665H172Q164 665 159 668T155 681L163 725Q165 736 171 739T186 743H667Q675 743 680 740T683 725L675 681Q673 673 669 669T653 665H458L345 20Z"  />
<glyph unicode="U" horiz-adv-x="662" d="M699 743Q707 743 712 739T715 724L635 270Q609 122 534 58T330 -7Q231 -7 174 44T116 197Q116 214 117 232T123 270L203 724Q205 732 209 737T225 743H279Q287 743 292 739T295 724L215 270Q211 250 209 233T207 198Q207 135 238 103T344 71Q390 71 424 84T481 122T519 184T543 270L623 724Q625 732 629 737T645 743H699Z"  />
<glyph unicode="V" horiz-adv-x="643" d="M723 743Q745 743 735 720L436 69Q425 45 411 31T382 8T351 -4T321 -7Q307 -7 293 -4T266 7T244 30T232 69L162 720Q160 735 166 739T183 743H239Q249 743 251 739T254 728L316 91Q317 70 332 70Q346 70 355 91L642 728Q645 734 648 738T662 743H723Z"  />
<glyph unicode="W" horiz-adv-x="825" d="M905 743Q913 743 917 739T918 723L688 47Q677 16 659 6T617 -4H574Q553 -4 541 9T526 46L493 416Q491 425 488 425Q486 425 484 424T479 416L315 46Q305 23 288 10T249 -4H207Q183 -4 169 5T154 46V47L162 723Q162 743 183 743H240Q254 743 254 726L239 89Q239 74 242 74Q244 74 251 89L414 459Q423 479 435 489T468 499H532Q569 499 572 459L605 89Q606 82 606 78T609 74Q612 74 613 77T617 89L826 726Q832 743 846 743H905Z"  />
<glyph unicode="X" horiz-adv-x="646" d="M719 731Q719 726 714 719L435 374L599 25Q601 19 601 17Q601 10 596 5T582 0H532Q524 0 521 3T514 15L379 303L146 15Q134 0 122 0H62Q48 0 48 12Q48 18 53 25L343 380L184 719Q182 723 182 726Q182 733 187 738T200 743H251Q259 743 262 741T267 733L400 449L632 733Q637 740 642 741T653 743H705Q719 743 719 731Z"  />
<glyph unicode="Y" horiz-adv-x="583" d="M677 731Q677 726 672 718L455 370Q436 340 421 325T390 304L340 20Q338 12 334 6T318 0H263Q246 0 249 20L299 304Q286 309 275 324T256 370L164 718Q157 743 182 743H240Q248 743 251 739T256 729L336 405Q341 388 345 384T355 379Q360 379 365 383T382 405L579 729Q584 737 588 740T604 743H662Q677 743 677 731Z"  />
<glyph unicode="Z" horiz-adv-x="597" d="M645 674Q645 654 637 635T606 589L177 96Q173 92 173 88Q173 82 181 82H538Q551 82 554 78T555 65L547 18Q545 10 542 5T524 0H181Q129 0 105 20T81 76Q81 94 88 113T110 150L535 642Q540 648 541 651T543 656Q543 662 534 662H207Q199 662 194 665T190 679L198 726Q200 734 203 738T221 743H551Q605 743 625 725T645 674Z"  />
<glyph unicode="[" horiz-adv-x="327" d="M430 723L425 690Q423 682 416 676T401 670H287L148 -121H262Q278 -121 278 -137V-141L272 -174Q270 -182 264 -188T249 -194H63Q56 -194 53 -190T49 -179V-175L208 724Q210 732 215 737T228 743H414Q430 743 430 727V723Z"  />
<glyph unicode="\" horiz-adv-x="355" d="M268 0Q260 0 258 6T254 20L151 723V725Q151 732 155 737T168 743H219Q227 743 229 737T232 723L333 40Q334 35 335 27T336 17Q336 10 332 5T319 0H268Z"  />
<glyph unicode="]" horiz-adv-x="327" d="M375 724L216 -175Q214 -183 209 -188T196 -194H10Q-7 -194 -7 -177V-174L-1 -141Q1 -133 8 -127T23 -121H137L276 670H162Q146 670 146 686V690L151 723Q153 731 160 737T175 743H361Q368 743 371 739T375 728V724Z"  />
<glyph unicode="^" horiz-adv-x="595" d="M578 572Q578 563 567 563H507Q496 563 492 567T479 581L376 701L273 581Q265 572 261 568T245 563H185Q174 563 174 572Q174 578 178 583L293 732Q301 743 306 746T323 750H429Q440 750 445 747T459 732L574 583Q578 578 578 572Z"  />
<glyph unicode="_" horiz-adv-x="494" d="M514 -65L509 -90Q507 -98 501 -102T486 -106H-29Q-46 -106 -46 -93V-90L-41 -65Q-38 -49 -19 -49H496Q504 -49 509 -52T514 -62V-65Z"  />
<glyph unicode="`" horiz-adv-x="372" d="M354 632Q354 623 344 623H290Q282 623 278 626T269 638L179 764Q176 768 176 771Q176 779 188 779H254Q263 779 267 776T277 764L352 640Q354 637 354 632Z"  />
<glyph unicode="a" horiz-adv-x="527" d="M358 557Q403 557 449 551T533 534Q547 531 549 526T550 511L464 20Q462 12 458 6T441 0H401Q390 0 387 5T386 22L391 53Q369 37 351 26T314 8T275 -3T230 -7Q198 -7 170 3T120 35T87 90T74 170Q74 198 80 230L98 329Q110 394 135 437T194 507T271 545T358 557ZM455 473Q435 477 413 480T358 483Q280 483 239 442T184 320L166 217Q164 206 163 194T162 171Q162 113 187 90T249 67Q284 67 318 82T394 125L455 473Z"  />
<glyph unicode="b" horiz-adv-x="541" d="M552 378Q552 346 546 312L533 240Q511 121 449 57T272 -7Q227 -7 182 -3T91 10Q76 13 74 18T74 33L197 733Q199 741 203 746T219 752H270Q278 752 282 749T285 733L252 547Q282 552 314 554T371 557Q462 557 507 510T552 378ZM465 380Q465 432 440 456T358 480Q334 480 300 479T239 473L169 76Q194 74 226 72T285 70Q355 70 393 116T445 240L458 312Q462 332 463 349T465 380Z"  />
<glyph unicode="c" horiz-adv-x="452" d="M348 480Q288 480 247 436T193 314L180 236Q174 201 174 176Q174 119 200 95T275 70Q312 70 340 71T401 77Q413 79 417 75T419 62L413 26Q411 15 406 11T389 4Q364 -1 331 -4T262 -7Q218 -7 185 7T131 47T98 106T87 181Q87 195 88 208T92 236L105 314Q125 436 191 496T361 557Q396 557 428 554T484 546Q498 544 500 539T500 524L494 488Q492 480 488 476T470 473Q438 477 412 478T348 480Z"  />
<glyph unicode="d" horiz-adv-x="541" d="M514 733Q518 752 537 752H588Q605 752 602 733L479 33Q477 23 473 18T454 10Q406 1 360 -3T267 -7Q221 -7 187 6T131 44T97 102T86 177Q86 207 92 240L105 312Q128 441 192 499T366 557Q389 557 421 555T481 547L514 733ZM468 473Q444 478 411 479T353 480Q316 480 289 468T243 433T212 379T193 312L180 240Q177 222 175 206T173 175Q173 124 197 97T280 70Q306 70 339 72T398 76L468 473Z"  />
<glyph unicode="e" horiz-adv-x="544" d="M555 371Q555 342 549 311L541 269Q539 259 535 253T519 247H182L180 235Q174 200 174 174Q174 117 207 92T298 67Q342 67 389 71T471 81Q493 84 490 67L484 33Q482 22 478 17T460 10Q415 2 376 -2T285 -7Q248 -7 213 3T150 35T105 92T88 178Q88 207 94 240L107 310Q130 430 197 493T372 557Q418 557 452 543T510 503T544 444T555 371ZM467 374Q467 480 359 480Q326 480 299 468T252 434T217 383T196 319L195 314H460L461 319Q467 349 467 374Z"  />
<glyph unicode="f" horiz-adv-x="370" d="M399 691Q381 691 369 689T348 680T333 659T323 622L310 550H418Q426 550 431 547T434 532L428 497Q425 480 405 480H298L209 -24Q201 -69 186 -96T150 -138T102 -158T45 -163Q32 -163 15 -162T-14 -158Q-33 -155 -30 -142L-24 -109Q-22 -99 -17 -97T-3 -94H44Q79 -94 96 -80T121 -24L210 480L117 487Q98 489 101 504L106 532Q108 540 112 545T128 550H222L235 622Q243 668 257 695T292 737T339 756T399 761Q413 761 429 759T457 755Q468 753 471 750T473 739L467 706Q465 698 462 695T447 691H399H399Z"  />
<glyph unicode="g" horiz-adv-x="541" d="M105 312Q117 379 139 426T194 502T271 544T371 557Q416 557 464 550T546 534Q560 531 562 526T563 511L473 1Q463 -57 445 -95T398 -156T329 -188T235 -197Q178 -197 133 -191T68 -179Q56 -176 53 -172T52 -158L57 -129Q59 -119 63 -115T81 -113Q94 -115 114 -117T157 -120T204 -123T248 -125Q281 -125 304 -119T343 -99T368 -62T384 -5L386 7Q376 5 362 3T331 -2T299 -5T272 -7Q231 -7 197 3T139 35T100 91T86 172Q86 203 92 239L105 312ZM468 472Q448 476 419 479T358 483Q288 483 249 442T193 312L180 239Q176 219 175 201T173 168Q173 111 200 89T285 67Q295 67 310 67T340 69T371 73T399 78L468 472Z"  />
<glyph unicode="h" horiz-adv-x="557" d="M556 397Q556 387 555 377T552 356L493 20Q491 12 487 6T469 0H421Q402 0 405 20L464 356Q468 376 468 396Q468 442 442 462T356 482Q326 482 294 478T238 467L160 20Q158 12 154 6T136 0H88Q76 0 73 6T72 20L197 733Q199 741 203 746T219 752H270Q278 752 282 748T285 733L252 543Q278 549 309 553T369 557Q417 557 452 545T511 511T545 460T556 397Z"  />
<glyph unicode="i" horiz-adv-x="247" d="M283 758Q302 758 299 738L285 658Q283 647 278 643T261 638H210Q199 638 196 644T194 658L208 738Q210 746 215 752T232 758H283ZM244 550Q253 550 257 546T260 530L171 20Q169 12 165 6T147 0H99Q88 0 85 6T83 20L172 530Q174 544 181 547T196 550H244Z"  />
<glyph unicode="j" horiz-adv-x="247" d="M283 758Q302 758 299 738L285 658Q283 647 278 643T261 638H210Q199 638 196 644T194 658L208 738Q210 746 215 752T232 758H283ZM172 530Q174 544 181 547T196 550H244Q253 550 257 546T260 530L156 -64Q149 -103 136 -128T104 -169T61 -191T6 -197Q-9 -197 -21 -196T-47 -193Q-57 -191 -60 -188T-62 -177L-56 -140Q-54 -131 -49 -129T-32 -126H10Q24 -126 33 -124T49 -114T60 -95T68 -64L172 530Z"  />
<glyph unicode="k" horiz-adv-x="496" d="M546 540Q546 533 540 527L281 289L462 23Q465 18 465 14Q465 9 462 5T451 0H393Q385 0 379 3T366 15L202 261L160 20Q158 12 154 6T141 0H88Q79 0 75 6T72 20L197 732Q199 740 206 746T221 752H269Q289 752 285 732L213 326L443 541Q452 550 465 550H533Q546 550 546 540Z"  />
<glyph unicode="l" horiz-adv-x="244" d="M281 752Q299 752 295 733L170 20Q168 12 164 6T148 0H96Q88 0 84 6T82 20L207 733Q209 741 213 746T229 752H281Z"  />
<glyph unicode="m" horiz-adv-x="797" d="M800 412Q800 401 799 391T795 369L734 20Q732 12 725 6T710 0H662Q653 0 649 6T646 20L707 369Q709 381 710 391T711 411Q711 451 692 465T632 480Q609 480 577 474T510 451Q513 434 512 410T508 371L447 20Q445 12 439 6T425 0H372Q363 0 360 6T359 20L420 371Q423 388 425 400T427 425Q427 457 410 468T367 480Q349 480 330 476T293 465T260 453T234 442L160 20Q158 12 152 6T138 0H85Q76 0 73 6T72 20L161 530Q163 538 167 544T184 550H232Q244 550 246 544T247 530L244 511Q282 534 317 545T390 557Q422 557 449 545T490 512Q538 538 575 547T654 557Q729 557 764 518T800 412Z"  />
<glyph unicode="n" horiz-adv-x="557" d="M556 403Q556 377 551 349L493 20Q491 12 484 6T469 0H421Q412 0 408 6T405 20L463 349Q465 363 466 377T468 404Q468 440 449 460T375 480Q346 480 314 473T234 442L160 20Q158 12 151 6T136 0H87Q78 0 74 6T72 20L161 530Q163 538 168 544T187 550H229Q251 550 248 530L245 509Q281 529 318 543T406 557Q446 557 474 545T521 512T547 463T556 403Z"  />
<glyph unicode="o" horiz-adv-x="545" d="M555 369Q555 355 554 341T550 313L537 237Q527 180 507 135T454 58T376 10T271 -7Q226 -7 192 7T134 46T99 105T87 182Q87 196 88 209T92 237L105 313Q147 557 370 557Q416 557 450 543T508 504T543 445T555 369ZM467 370Q467 424 442 452T357 480Q291 480 249 435T193 313L180 237Q174 204 174 178Q174 124 199 97T284 70Q317 70 344 82T393 117T428 169T449 237L462 313Q465 329 466 343T467 370Z"  />
<glyph unicode="p" horiz-adv-x="541" d="M552 374Q552 343 546 310L533 238Q510 110 449 52T272 -7Q249 -7 217 -4T157 4L125 -177Q123 -185 117 -190T102 -196H51Q37 -196 37 -181V-178V-177L158 511Q160 522 164 526T183 534Q225 544 275 550T371 557Q463 557 507 507T552 374ZM465 379Q465 430 441 456T358 483Q326 483 293 480T239 473L170 77Q194 72 227 70T285 67Q354 67 392 113T445 238L458 310Q462 330 463 347T465 379Z"  />
<glyph unicode="q" horiz-adv-x="541" d="M366 557Q411 557 459 551T546 534Q560 531 562 526T563 511L442 -177Q439 -196 420 -196H369Q351 -196 354 -177L386 4Q356 -1 324 -4T267 -7Q179 -7 133 41T86 174Q86 203 92 238L105 310Q127 432 188 494T366 557ZM468 473Q448 477 417 480T353 483Q318 483 292 470T246 434T213 379T193 310L180 238Q172 195 172 167Q172 115 197 91T280 67Q304 67 338 69T399 77L468 473Z"  />
<glyph unicode="r" horiz-adv-x="342" d="M160 20Q158 12 151 6T136 0H87Q79 0 75 6T72 20L161 530Q163 538 169 544T184 550H231Q240 550 244 544T246 530L242 507Q283 539 319 548T390 557H392Q405 557 408 552T410 539L403 497Q400 480 379 480H376Q333 480 302 471T233 439L160 20Z"  />
<glyph unicode="s" horiz-adv-x="466" d="M329 557Q358 557 378 556T415 554T446 550T476 544Q487 542 490 539T491 524L486 491Q483 471 463 474Q437 477 398 479T316 482Q299 482 281 479T247 468T221 447T211 411Q211 392 225 377T265 345L354 286Q380 269 397 253T424 222T439 189T443 152Q443 108 425 78T377 28T308 1T228 -7Q212 -7 192 -6T151 -4T109 1T72 8Q64 10 59 15T55 28L61 63Q63 73 68 76T86 78Q104 76 125 74T167 71T208 68T241 67Q263 67 283 71T319 85T344 111T354 152Q354 169 342 184T296 223L206 282Q164 309 143 340T122 412Q122 454 140 481T188 526T254 550T329 557Z"  />
<glyph unicode="t" horiz-adv-x="375" d="M424 550Q443 550 440 530L434 496Q432 482 426 479T411 476H303L241 125Q238 107 238 96Q238 74 249 69T284 64H345Q362 64 359 50L353 15Q351 8 347 4T332 -2Q317 -4 300 -5T269 -7Q218 -7 184 14T149 88Q149 98 150 106T153 127L215 476L120 487Q112 488 107 492T104 505L109 532Q111 543 117 546T131 550H228L244 648Q247 665 266 668L319 676Q330 678 333 673T334 659L316 550H424Z"  />
<glyph unicode="u" horiz-adv-x="557" d="M567 550Q578 550 581 544T582 530L493 20Q491 12 485 6T470 0H423Q414 0 410 6T408 20L411 38Q366 15 328 4T245 -7Q180 -7 140 32T99 151Q99 179 105 212L161 530Q163 541 170 545T185 550H233Q252 550 249 530L191 201Q185 168 185 144Q185 102 206 86T278 70Q310 70 346 80T420 107L494 530Q496 538 500 544T518 550H567Z"  />
<glyph unicode="v" horiz-adv-x="530" d="M586 538Q586 532 583 526L375 72Q353 25 324 9T264 -7Q249 -7 236 -4T211 9T192 33T181 72L133 526Q131 540 137 545T152 550H203Q209 550 213 546T219 531L254 97Q256 78 260 72T273 66Q280 66 287 72T302 97L491 531Q496 541 501 545T517 550H573Q586 550 586 538Z"  />
<glyph unicode="w" horiz-adv-x="786" d="M826 550Q835 550 840 545T841 526L662 62Q648 24 624 9T566 -7Q537 -7 519 12T498 68L469 405Q468 412 465 412Q462 412 459 405L312 68Q295 31 275 12T218 -7Q185 -7 167 8T146 62L131 527Q131 535 138 542T154 550H206Q213 550 216 545T220 534L223 81Q223 72 225 71T229 69Q234 69 239 81L404 462Q412 479 423 485T450 492H506Q522 492 530 486T540 462L571 81Q572 69 577 69Q579 69 581 70T587 81L750 534Q752 540 757 545T770 550H826Z"  />
<glyph unicode="x" horiz-adv-x="547" d="M594 540Q594 533 587 525L373 282L507 23Q510 18 510 13Q510 0 494 0H438Q430 0 426 3T418 14L314 215L133 10Q127 3 124 2T114 0H56Q42 0 42 8T48 23L278 285L154 525Q151 531 151 535Q151 542 156 546T168 550H223Q233 550 241 536L337 351L499 536Q507 545 511 547T522 550H583Q594 550 594 540Z"  />
<glyph unicode="y" horiz-adv-x="534" d="M592 537Q592 532 589 526L322 -50Q303 -91 285 -119T242 -164T187 -190T113 -198Q92 -198 69 -196T31 -189Q23 -187 17 -184T12 -173L19 -136Q21 -125 25 -122T44 -120Q52 -121 63 -122T87 -124T112 -125T132 -126Q153 -126 169 -123T199 -110T224 -84T246 -41L263 0H252Q240 0 230 3T210 14T195 38T186 78L135 526Q133 542 139 546T156 550H208Q217 550 219 545T222 534L264 100Q266 85 270 82T279 78H295L497 535Q500 543 504 546T519 550H578Q592 550 592 537Z"  />
<glyph unicode="z" horiz-adv-x="466" d="M493 481Q493 465 487 449T466 418L153 93Q146 86 146 81Q146 74 156 74H411Q424 74 426 68T427 54L421 20Q419 9 415 5T398 0H145Q100 0 79 20T58 70Q58 85 63 100T81 129L400 460Q406 466 406 471Q406 476 396 476H150Q131 476 134 496L140 530Q142 542 148 546T163 550H413Q456 550 474 530T493 481Z"  />
<glyph unicode="{" horiz-adv-x="331" d="M430 723L425 690Q423 682 416 676T401 670H356Q334 670 320 667T298 657T284 637T276 605L244 427Q234 374 213 338T146 273Q172 250 183 222T194 162Q194 139 190 120L159 -56Q156 -73 156 -85Q156 -107 169 -114T217 -121H263Q279 -121 279 -137V-141L273 -174Q271 -182 265 -188T250 -194H208Q135 -194 101 -170T66 -98Q66 -76 70 -56L101 120Q103 133 104 143T106 164Q106 190 96 208T63 245L73 303Q93 315 106 327T129 354T145 386T155 427L187 605Q195 648 207 675T239 717T291 737T368 743H414Q422 743 426 738T430 726V723Z"  />
<glyph unicode="|" horiz-adv-x="249" d="M246 -175Q246 -183 241 -188T228 -194H176Q168 -194 163 -189T157 -175V724Q157 732 162 737T176 743H228Q236 743 241 738T246 724V-175H246Z"  />
<glyph unicode="}" horiz-adv-x="331" d="M354 245Q334 233 321 221T298 194T282 161T272 120L241 -56Q233 -98 223 -124T193 -166T142 -188T64 -194H13Q5 -194 1 -189T-4 -177V-175V-174L2 -141Q4 -133 11 -127T26 -121H72Q94 -121 108 -119T130 -109T144 -89T152 -56L183 120Q192 173 214 209T281 273Q255 298 244 324T232 381Q232 392 233 403T237 427L269 605Q272 621 272 634Q272 655 259 662T211 670H166Q158 670 154 675T150 687V690L155 723Q157 731 164 737T179 743H229Q301 743 331 720T362 648Q362 638 361 628T358 605L326 427Q324 414 323 404T321 383Q321 357 331 339T364 303L354 245Z"  />
<glyph unicode="~" horiz-adv-x="595" d="M581 467Q581 404 557 372T472 339Q452 339 433 346T396 367L323 425Q301 442 291 449T270 456Q241 456 235 440T228 397V371Q228 363 222 357T208 351H179Q171 351 165 357T159 371V397Q159 462 187 494T270 527Q290 527 309 520T345 499L430 431Q439 423 451 417T472 411Q500 411 506 424T512 467V495Q512 503 518 509T532 515H561Q569 515 575 509T581 495V467H581Z"  />
<glyph unicode="&#xA0;" horiz-adv-x="273" />
<glyph unicode="&#xA1;" horiz-adv-x="217" d="M247 531L230 437Q228 429 222 424T208 418H160Q144 418 144 434V437L161 531Q164 550 183 550H231Q247 550 247 534V531ZM207 337L123 -183Q121 -191 114 -196T99 -202H49Q33 -202 33 -186V-183L132 337Q134 345 140 350T155 356H191Q207 356 207 340V337Z"  />
<glyph unicode="&#xA2;" horiz-adv-x="605" d="M546 531Q546 529 546 528T545 524L539 488Q537 480 532 477T518 473H515Q483 477 457 479T393 481Q333 481 293 440T238 314L225 236Q223 221 222 207T220 180Q220 69 320 69Q357 69 385 71T446 77H450Q464 77 464 65V62L458 26Q456 15 451 11T434 4Q414 1 390 -1T338 -6L322 -96Q320 -104 314 -110T299 -116H258Q241 -116 241 -99V-96L258 -2Q195 11 164 61T132 182Q132 195 133 208T137 236L150 314Q160 372 180 415T227 487T287 531T355 552L372 645Q374 653 380 659T395 665H436Q453 665 453 648V645L437 556Q463 554 487 552T529 546Q546 543 546 531Z"  />
<glyph unicode="&#xA3;" horiz-adv-x="605" d="M664 717Q664 715 664 715T663 712L655 671Q652 654 636 654H632Q600 658 558 661T480 665Q441 665 414 657T369 628T340 575T319 490L308 425H523Q539 425 539 410V407L531 365Q529 357 523 352T508 347H294L267 195Q260 157 244 128T211 76H530Q538 76 543 73T548 64V61L540 17Q538 9 532 5T517 0H118Q110 0 107 3T104 12V15L111 54Q113 62 117 67T125 77Q148 106 158 131T176 195L203 347H151Q136 347 136 361V365L144 407Q146 415 152 420T167 425H217L228 490Q239 555 258 602T308 681T384 727T494 742Q513 742 534 741T576 738T615 734T647 729Q664 726 664 717Z"  />
<glyph unicode="&#xA4;" horiz-adv-x="605" d="M612 574Q612 566 605 559L523 477Q540 454 548 427T556 373Q556 345 548 318T522 267L604 185Q611 178 611 170Q611 163 606 158L579 131Q574 126 568 126Q560 126 553 133L469 217Q422 184 367 184Q340 184 313 192T263 217L181 135Q178 132 174 130T165 127Q160 127 155 132L128 160Q123 167 123 171Q123 179 130 186L211 267Q194 290 186 317T177 373Q177 400 184 426T209 476L128 557Q121 564 121 572Q121 580 126 584L154 611Q159 616 165 616Q172 616 180 608L260 528Q284 545 311 553T366 562Q424 562 472 528L554 610Q561 617 569 617Q575 617 580 612L607 585Q612 580 612 574ZM485 373Q485 398 476 419T450 457T412 482T365 492Q340 492 319 483T281 457T255 420T245 373Q245 348 254 327T280 289T318 263T365 253Q390 253 411 262T449 288T475 326T485 373Z"  />
<glyph unicode="&#xA5;" horiz-adv-x="605" d="M694 732Q694 724 689 718L528 482H638Q654 482 654 466V462L649 432Q647 424 641 418T626 412H481L406 302L403 281H603Q619 281 619 265V261L614 231Q612 223 605 217T590 211H390L357 20Q355 12 349 6T335 0H278Q271 0 268 4T265 15V20L298 211H97Q81 211 81 227V231L86 261Q88 269 95 275T110 281H311L314 302L279 412H133Q116 412 116 429V432L121 462Q123 470 130 476T145 482H256L179 718Q177 724 177 727Q177 743 196 743H255Q260 743 264 739T270 729L372 390L594 729Q597 734 602 738T613 743H679Q694 743 694 732Z"  />
<glyph unicode="&#xA6;" horiz-adv-x="249" d="M229 362Q229 354 224 348T211 342H158Q150 342 145 348T140 362V709Q140 717 145 722T158 728H211Q219 728 224 723T229 709V362ZM229 -191Q229 -199 224 -205T211 -211H158Q150 -211 145 -205T140 -191V156Q140 164 145 169T158 175H211Q219 175 224 170T229 156V-191Z"  />
<glyph unicode="&#xA7;" horiz-adv-x="547" d="M607 718L599 675Q597 667 592 663T578 658H577Q533 660 491 663T405 667Q374 667 345 664T293 648T256 614T242 555Q242 529 260 508T325 457L422 393Q486 350 511 313T536 233Q536 193 522 155T483 85Q500 51 500 15Q500 -48 477 -92T414 -163T323 -203T214 -216Q161 -216 121 -212T48 -202Q33 -200 33 -186V-183L40 -141Q42 -133 48 -129T63 -124H65Q106 -127 144 -130T225 -134Q260 -134 292 -128T348 -105T386 -61T401 7Q401 21 397 33T382 58T355 83T314 113L214 180Q155 220 133 258T110 336Q110 377 125 409T166 472Q157 489 152 507T147 547Q147 608 170 647T231 709T318 741T419 750Q440 750 465 749T516 745T561 741T592 737Q598 735 602 731T607 721V718ZM443 216Q443 245 425 266T361 319L281 374Q266 385 249 397T217 421Q209 404 203 387T197 351Q197 322 215 300T268 254L367 188Q387 174 399 166T426 145Q443 179 443 216Z"  />
<glyph unicode="&#xA8;" horiz-adv-x="373" d="M445 741L430 660Q428 652 422 647T407 641H368Q361 641 356 645T351 657V660L366 741Q368 749 374 755T389 761H428Q435 761 440 756T445 744V741ZM270 741L255 660Q253 652 247 647T232 641H193Q186 641 181 645T176 657V660L191 741Q193 749 199 755T214 761H253Q260 761 265 756T270 744V741Z"  />
<glyph unicode="&#xA9;" horiz-adv-x="750" d="M770 374Q770 307 744 248T674 145T571 76T444 50Q377 50 318 75T215 145T146 248T120 374Q120 441 145 500T215 604T318 675T444 701Q511 701 570 675T674 605T744 501T770 374ZM726 374Q726 432 704 484T644 574T554 634T444 657Q385 657 334 635T245 574T185 484T163 374Q163 315 185 264T245 176T334 116T444 94Q502 94 553 116T643 175T704 264T726 374ZM546 183Q546 175 541 172T531 168Q520 166 498 164T440 161Q408 161 380 171T332 202T299 259T287 344V410Q287 460 299 495T331 552T380 584T440 594Q475 594 497 591T531 586Q536 585 541 583T546 572V544Q546 536 542 534T533 532H530Q514 534 491 535T440 537Q422 537 406 531T377 510T357 471T349 410V344Q349 308 356 284T376 245T405 224T440 218Q466 218 490 219T530 223H532Q537 223 541 221T546 210V183Z"  />
<glyph unicode="&#xAA;" horiz-adv-x="302" d="M378 665Q378 649 375 631L343 450Q341 437 331 434Q306 428 281 425T230 421Q172 421 146 438T120 494Q120 499 120 505T122 519L123 526Q130 575 169 596T281 618H313L315 631Q316 638 316 644T317 655Q317 677 306 685T272 694Q245 694 225 693T187 689H185Q174 689 174 699V702L177 723Q178 730 183 733T195 737Q212 740 233 743T282 746Q333 746 355 726T378 665ZM284 576H275Q227 574 206 564T181 526L180 519Q179 514 179 511T178 503Q178 485 191 477T239 468Q253 468 266 469T288 473L307 576H284Z"  />
<glyph unicode="&#xAB;" horiz-adv-x="614" d="M645 477Q645 474 643 470T637 462L427 277L566 92Q570 86 570 81Q570 70 558 70H505Q495 70 486 80L347 249Q339 258 339 274Q339 295 351 305L550 474Q558 480 563 482T575 484H636Q645 484 645 477ZM385 477Q385 474 383 470T377 462L167 277L306 92Q310 86 310 81Q310 70 298 70H245Q235 70 226 80L87 249Q79 258 79 274Q79 295 91 305L290 474Q298 480 303 482T315 484H376Q385 484 385 477Z"  />
<glyph unicode="&#xAC;" horiz-adv-x="595" d="M585 247Q585 239 579 233T565 227H533Q525 227 519 233T513 247V466H180Q172 466 166 470T160 482V522Q160 530 166 534T180 538H568Q585 538 585 521V247H585Z"  />
<glyph unicode="&#xAD;" horiz-adv-x="333" d="M340 312L333 273Q330 256 311 256H112Q96 256 96 270V273L103 312Q105 320 111 325T125 330H324Q340 330 340 315V312Z"  />
<glyph unicode="&#xAE;" horiz-adv-x="598" d="M655 484Q655 428 634 379T576 294T490 237T385 216Q329 216 280 237T195 294T137 379T116 484Q116 540 137 589T194 674T280 732T385 753Q441 753 490 732T576 675T634 589T655 484ZM614 484Q614 531 596 573T547 646T474 695T385 713Q338 713 297 695T224 646T176 573T158 484Q158 437 175 396T224 323T296 275T385 257Q432 257 474 274T547 323T596 395T614 484ZM511 331Q511 318 499 318H471Q463 318 459 326L378 454L368 457H326V333Q326 328 322 323T312 318H287Q281 318 278 323T274 333V635Q274 655 292 657Q298 658 307 658T327 659T349 660T368 660Q431 660 465 638T499 559V555Q499 517 482 496T432 465L509 340Q511 336 511 331ZM449 559Q449 589 431 601T371 613H339H325V501Q333 501 349 501T371 500Q413 500 431 512T449 555V559Z"  />
<glyph unicode="&#xAF;" horiz-adv-x="373" d="M479 726L473 692Q471 684 465 680T450 675H162Q145 675 145 689V692L151 726Q153 734 159 738T174 743H462Q479 743 479 729V726Z"  />
<glyph unicode="&#xB0;" horiz-adv-x="342" d="M422 608Q422 579 411 553T381 508T335 477T280 466Q251 466 225 477T180 507T149 553T137 608Q137 637 148 663T179 708T225 739T280 750Q309 750 335 739T380 709T411 663T422 608ZM368 608Q368 626 361 642T342 670T314 689T280 696Q262 696 246 689T218 670T199 642T192 608Q192 590 199 574T218 546T246 527T280 520Q298 520 314 527T342 546T361 574T368 608Z"  />
<glyph unicode="&#xB1;" horiz-adv-x="595" d="M574 371Q574 363 568 359T554 355H382V184Q382 176 378 170T366 164H326Q318 164 314 170T310 184V355H139Q131 355 125 359T119 371V411Q119 419 125 423T139 427H310V599Q310 607 314 613T326 619H366Q374 619 378 613T382 599V427H554Q562 427 568 423T574 411V371ZM574 9Q574 1 568 -3T554 -7H139Q131 -7 125 -3T119 9V42Q119 50 125 54T139 58H554Q562 58 568 54T574 42V9Z"  />
<glyph unicode="&#xB2;" horiz-adv-x="341" d="M413 663Q413 639 406 620T385 586T355 557T319 532L261 496Q237 481 222 468T199 443T186 417T179 389L178 384H351Q363 384 362 374L356 337Q354 330 351 329T341 327H116Q109 327 108 330T106 339L113 379Q122 431 146 469T228 543L289 580Q308 592 320 600T338 617T347 635T349 656Q349 676 333 683T275 690Q255 690 232 689T185 683Q170 680 173 693L179 724Q180 731 193 734Q213 739 238 742T290 746Q347 746 380 725T413 663Z"  />
<glyph unicode="&#xB3;" horiz-adv-x="338" d="M186 734Q206 740 230 743T277 746Q340 746 374 721T408 652Q408 579 340 543Q361 529 368 507T375 468Q375 429 362 402T327 357T274 331T207 323Q184 323 158 326T114 335Q111 336 108 338T106 346L111 375Q113 383 116 384T123 386Q126 386 131 386T142 384Q156 382 172 381T203 380Q227 380 247 383T281 395T304 421T312 466Q312 489 302 503T261 517H161Q157 517 153 519T151 528L157 559Q159 570 171 570H269Q305 570 324 589T343 644Q343 670 323 679T258 689Q240 689 217 687T178 682Q166 681 168 693L173 723Q174 730 186 734Z"  />
<glyph unicode="&#xB4;" horiz-adv-x="373" d="M469 773Q469 769 464 764L328 638Q320 630 316 627T303 623H249Q241 623 241 629Q241 634 247 640L367 764Q375 772 379 775T393 779H459Q469 779 469 773Z"  />
<glyph unicode="&#xB5;" horiz-adv-x="557" d="M582 530L497 44Q494 27 474 21Q437 8 386 1T284 -7Q206 -7 160 22L125 -176Q123 -184 116 -190T101 -196H53Q37 -196 37 -180V-176L161 530Q163 538 169 544T184 550H234Q249 550 249 534V530L191 201Q187 181 187 159Q187 111 214 90T297 68Q327 68 359 71T415 82L494 530Q496 538 503 544T518 550H567Q582 550 582 534V530Z"  />
<glyph unicode="&#xB6;" horiz-adv-x="622" d="M686 731Q686 729 686 728T685 724L526 -176Q524 -184 519 -189T506 -195H483Q476 -195 473 -191T469 -180V-176L621 689H563L411 -176Q409 -184 404 -189T391 -195H368Q361 -195 358 -191T354 -180V-176L431 263H333Q287 263 249 275T184 311T142 368T127 443Q127 466 131 486L137 520Q146 574 171 615T232 685T314 728T412 743H672Q686 743 686 731Z"  />
<glyph unicode="&#xB7;" horiz-adv-x="214" d="M227 438L211 345Q209 337 203 331T188 325H140Q125 325 125 341V345L141 438Q143 446 149 451T164 457H212Q219 457 223 453T227 442V438Z"  />
<glyph unicode="&#xB8;" horiz-adv-x="366" d="M247 -38Q247 -42 242 -47L106 -173Q98 -181 94 -184T81 -188H27Q19 -188 19 -182Q19 -177 25 -171L144 -47Q152 -39 157 -36T171 -32H237Q247 -32 247 -38Z"  />
<glyph unicode="&#xB9;" horiz-adv-x="282" d="M312 743Q322 743 321 733L252 338Q252 333 249 330T240 327H195Q187 327 188 338L248 679L170 648Q167 646 163 647T159 655L165 692Q166 700 175 703L254 736Q269 743 280 743H312Z"  />
<glyph unicode="&#xBA;" horiz-adv-x="322" d="M401 643Q401 621 397 601L391 566Q379 496 340 459T236 421Q182 421 155 447T128 525Q128 546 132 566L138 601Q150 671 190 708T294 746Q348 746 374 720T401 643ZM339 635Q339 664 326 678T284 693Q213 693 198 601L192 566Q189 548 189 533Q189 473 245 473Q282 473 302 496T330 566L336 601Q339 620 339 635Z"  />
<glyph unicode="&#xBB;" horiz-adv-x="614" d="M635 280Q635 259 623 249L424 80Q411 70 399 70H338Q329 70 329 77Q329 80 331 84T337 92L547 277L408 462Q404 468 404 473Q404 484 416 484H469Q479 484 488 474L627 305Q635 296 635 280ZM375 280Q375 259 363 249L164 80Q151 70 139 70H78Q69 70 69 77Q69 80 71 84T77 92L287 277L148 462Q144 468 144 473Q144 484 156 484H209Q219 484 228 474L367 305Q375 296 375 280Z"  />
<glyph unicode="&#xBC;" horiz-adv-x="737" d="M304 743Q314 743 313 733L244 338Q244 333 241 330T232 327H187Q179 327 180 338L240 679L162 648Q159 646 155 647T151 655L157 692Q158 700 167 703L246 736Q261 743 272 743H304ZM739 738Q739 732 732 724L189 16Q181 5 176 1T163 -4H114Q106 -4 106 2Q106 8 112 16L655 724Q663 735 668 739T681 743H732Q739 743 739 738ZM728 124Q726 116 720 112T706 107H668L653 19Q651 12 645 6T631 0H600Q592 0 589 5T587 19L602 107H455Q438 107 432 112T429 135L432 155Q435 170 445 181L647 405Q651 409 655 412T669 416H700Q722 416 719 396L678 163H716Q724 163 729 159T732 146L728 124ZM641 325L500 163H613L641 325Z"  />
<glyph unicode="&#xBD;" horiz-adv-x="790" d="M304 743Q314 743 313 733L244 338Q244 333 241 330T232 327H187Q179 327 180 338L240 679L162 648Q159 646 155 647T151 655L157 692Q158 700 167 703L246 736Q261 743 272 743H304ZM739 738Q739 732 732 724L189 16Q181 5 176 1T163 -4H114Q106 -4 106 2Q106 8 112 16L655 724Q663 735 668 739T681 743H732Q739 743 739 738ZM792 336Q792 312 785 293T764 259T734 230T698 205L640 169Q616 154 601 141T578 116T565 90T558 62L557 57H730Q742 57 741 47L735 10Q733 3 730 2T720 0H495Q488 0 487 3T485 12L492 52Q501 104 525 142T607 216L668 253Q687 265 699 273T717 290T726 308T728 329Q728 349 712 356T654 363Q634 363 611 362T564 356Q549 353 552 366L558 397Q559 404 572 407Q592 412 617 415T669 419Q726 419 759 398T792 336Z"  />
<glyph unicode="&#xBE;" horiz-adv-x="798" d="M800 738Q800 732 793 724L250 16Q242 5 237 1T224 -4H175Q167 -4 167 2Q167 8 173 16L716 724Q724 735 729 739T742 743H793Q800 743 800 738ZM789 124Q787 116 781 112T767 107H729L714 19Q712 12 706 6T692 0H661Q653 0 650 5T648 19L663 107H516Q499 107 493 112T490 135L493 155Q496 170 506 181L708 405Q712 409 716 412T730 416H761Q783 416 780 396L739 163H777Q785 163 790 159T793 146L789 124ZM702 325L561 163H674L702 325ZM187 734Q207 740 231 743T278 746Q341 746 375 721T409 652Q409 579 341 543Q362 529 369 507T376 468Q376 429 363 402T328 357T275 331T208 323Q185 323 159 326T115 335Q112 336 109 338T107 346L112 375Q114 383 117 384T124 386Q127 386 132 386T143 384Q157 382 173 381T204 380Q228 380 248 383T282 395T305 421T313 466Q313 489 303 503T262 517H162Q158 517 154 519T152 528L158 559Q160 570 172 570H270Q306 570 325 589T344 644Q344 670 324 679T259 689Q241 689 218 687T179 682Q167 681 169 693L174 723Q175 730 187 734Z"  />
<glyph unicode="&#xBF;" horiz-adv-x="446" d="M422 531L405 438Q403 430 397 424T382 418H334Q326 418 322 423T318 435V438L335 531Q338 550 357 550H405Q422 550 422 534V531ZM384 337L376 288Q372 264 366 245T349 209T322 174T283 135L228 84Q206 64 190 47T162 13T146 -23T140 -67Q140 -98 162 -109T232 -121Q268 -121 300 -119T368 -112H371Q383 -112 383 -124V-127V-129L377 -164Q375 -173 372 -179T356 -187Q324 -193 287 -196T216 -200Q179 -200 148 -193T93 -171T56 -133T42 -77Q42 -42 52 -13T80 41T121 90T168 136L222 187Q239 203 251 214T271 237T285 259T293 288L301 337Q303 345 310 350T325 356H369Q384 356 384 341V338V337Z"  />
<glyph unicode="&#xC0;" horiz-adv-x="633" d="M607 19Q607 0 590 0H530Q523 0 520 4T516 15L491 245H232L128 15Q126 9 121 5T107 0H46Q32 0 32 13Q32 19 34 23L334 674Q355 720 385 735T449 750Q464 750 479 747T506 736T526 713T537 675L607 23V19ZM453 653Q451 671 437 671Q422 671 414 653L265 324H486L453 653ZM526 803Q526 794 516 794H462Q454 794 450 797T441 809L351 935Q348 939 348 942Q348 950 360 950H426Q435 950 439 947T449 935L524 811Q526 808 526 803Z"  />
<glyph unicode="&#xC1;" horiz-adv-x="633" d="M607 19Q607 0 590 0H530Q523 0 520 4T516 15L491 245H232L128 15Q126 9 121 5T107 0H46Q32 0 32 13Q32 19 34 23L334 674Q355 720 385 735T449 750Q464 750 479 747T506 736T526 713T537 675L607 23V19ZM453 653Q451 671 437 671Q422 671 414 653L265 324H486L453 653ZM635 944Q635 940 630 935L494 809Q486 801 482 798T469 794H415Q407 794 407 800Q407 805 413 811L533 935Q541 943 545 946T559 950H625Q635 950 635 944Z"  />
<glyph unicode="&#xC2;" horiz-adv-x="633" d="M607 19Q607 0 590 0H530Q523 0 520 4T516 15L491 245H232L128 15Q126 9 121 5T107 0H46Q32 0 32 13Q32 19 34 23L334 674Q355 720 385 735T449 750Q464 750 479 747T506 736T526 713T537 675L607 23V19ZM453 653Q451 671 437 671Q422 671 414 653L265 324H486L453 653ZM630 803Q630 794 620 794H571Q563 794 559 797T550 809L486 906L385 809Q377 801 373 798T360 794H305Q297 794 297 800Q297 805 303 811L421 935Q429 943 433 946T447 950H532Q541 950 545 947T555 935L628 811Q630 808 630 803Z"  />
<glyph unicode="&#xC3;" horiz-adv-x="633" d="M607 19Q607 0 590 0H530Q523 0 520 4T516 15L491 245H232L128 15Q126 9 121 5T107 0H46Q32 0 32 13Q32 19 34 23L334 674Q355 720 385 735T449 750Q464 750 479 747T506 736T526 713T537 675L607 23V19ZM453 653Q451 671 437 671Q422 671 414 653L265 324H486L453 653ZM660 917L656 894Q647 842 625 816T554 789Q537 789 516 793T478 815L431 859Q416 873 410 877T394 881Q360 881 354 835L351 814Q350 807 346 802T334 797H300Q287 797 287 811V814L290 835Q298 895 325 919T394 944Q417 944 432 937T468 913L522 864Q529 858 538 854T554 850Q569 850 578 859T592 894L596 917Q598 924 602 929T613 934H647Q660 934 660 920V917Z"  />
<glyph unicode="&#xC4;" horiz-adv-x="633" d="M607 19Q607 0 590 0H530Q523 0 520 4T516 15L491 245H232L128 15Q126 9 121 5T107 0H46Q32 0 32 13Q32 19 34 23L334 674Q355 720 385 735T449 750Q464 750 479 747T506 736T526 713T537 675L607 23V19ZM453 653Q451 671 437 671Q422 671 414 653L265 324H486L453 653ZM611 908L596 827Q594 819 588 814T573 808H534Q527 808 522 812T517 824V827L532 908Q534 916 540 922T555 928H594Q601 928 606 923T611 911V908ZM436 908L421 827Q419 819 413 814T398 808H359Q352 808 347 812T342 824V827L357 908Q359 916 365 922T380 928H419Q426 928 431 923T436 911V908Z"  />
<glyph unicode="&#xC5;" horiz-adv-x="633" d="M607 19Q607 0 590 0H530Q523 0 520 4T516 15L491 245H232L128 15Q126 9 121 5T107 0H46Q32 0 32 13Q32 19 34 23L334 674Q355 720 385 735T449 750Q464 750 479 747T506 736T526 713T537 675L607 23V19ZM453 653Q451 671 437 671Q422 671 414 653L265 324H486L453 653ZM567 878Q567 857 559 839T538 807T506 785T466 777Q445 777 427 785T394 806T372 838T364 878Q364 899 372 917T394 950T426 972T466 980Q487 980 505 972T537 950T559 918T567 878ZM519 879Q519 901 504 916T466 931Q444 931 429 916T414 879Q414 857 429 842T466 826Q488 826 503 841T519 879Z"  />
<glyph unicode="&#xC6;" horiz-adv-x="859" d="M933 729L924 676Q922 664 911 664H625L582 425H859Q875 425 875 409V405L869 367Q867 359 860 353T845 347H568L539 179Q537 165 536 154T534 134Q534 117 539 106T557 87T590 78T643 75H806Q815 75 815 66V63L806 14Q805 9 802 5T794 0Q783 -1 764 -2T722 -5T675 -6T628 -7Q443 -7 443 133Q443 144 444 155T448 179L459 245H220L116 15Q114 9 108 5T95 0H36Q22 0 22 13Q22 20 24 23L323 668Q345 715 373 729T439 743H926Q930 743 931 740T933 732V729ZM423 664Q408 664 400 647L253 324H473L534 664H423Z"  />
<glyph unicode="&#xC7;" horiz-adv-x="545" d="M635 721L626 670Q625 659 612 659H609Q596 660 577 661T535 664T489 667T443 668Q406 668 373 657T311 618T261 548T229 441L204 302Q200 281 199 263T197 228Q197 186 207 157T236 110T281 83T338 75Q359 75 383 76T429 78T471 80T505 83H509Q522 83 522 72V67L515 26Q513 17 506 13T491 6Q475 3 459 1T423 -3T379 -6T323 -7Q285 -7 247 5T177 44T126 114T106 222Q106 240 107 260T113 302L138 441Q155 536 189 596T266 691T359 737T456 750Q504 750 546 745T621 734Q626 733 630 731T635 723V721ZM375 -38Q375 -41 369 -47L233 -173Q225 -181 221 -184T208 -188H154Q146 -188 146 -182Q146 -177 152 -171L271 -47Q279 -39 284 -36T298 -32H364Q375 -32 375 -38Z"  />
<glyph unicode="&#xC8;" horiz-adv-x="551" d="M410 668Q370 668 345 663T305 645T281 612T268 564L244 425H551Q570 425 567 405L561 367Q559 359 555 353T537 347H230L201 179Q199 167 198 157T196 138Q196 104 219 90T305 75H495Q503 75 506 73T507 63L498 14Q497 9 496 6T486 0Q475 -1 452 -2T400 -5T342 -6T290 -7Q204 -7 155 28T106 137Q106 159 110 179L177 564Q187 619 207 655T257 712T329 741T423 750Q508 750 552 748T617 741Q622 740 624 738T625 727L616 680Q615 672 612 670T603 668H410H410ZM501 802Q501 793 491 793H437Q429 793 425 796T416 808L326 934Q323 938 323 941Q323 949 335 949H401Q410 949 414 946T424 934L499 810Q501 807 501 802Z"  />
<glyph unicode="&#xC9;" horiz-adv-x="551" d="M410 668Q370 668 345 663T305 645T281 612T268 564L244 425H551Q570 425 567 405L561 367Q559 359 555 353T537 347H230L201 179Q199 167 198 157T196 138Q196 104 219 90T305 75H495Q503 75 506 73T507 63L498 14Q497 9 496 6T486 0Q475 -1 452 -2T400 -5T342 -6T290 -7Q204 -7 155 28T106 137Q106 159 110 179L177 564Q187 619 207 655T257 712T329 741T423 750Q508 750 552 748T617 741Q622 740 624 738T625 727L616 680Q615 672 612 670T603 668H410H410ZM612 944Q612 940 607 935L471 809Q463 801 459 798T446 794H392Q384 794 384 800Q384 805 390 811L510 935Q518 943 522 946T536 950H602Q612 950 612 944Z"  />
<glyph unicode="&#xCA;" horiz-adv-x="551" d="M410 668Q370 668 345 663T305 645T281 612T268 564L244 425H551Q570 425 567 405L561 367Q559 359 555 353T537 347H230L201 179Q199 167 198 157T196 138Q196 104 219 90T305 75H495Q503 75 506 73T507 63L498 14Q497 9 496 6T486 0Q475 -1 452 -2T400 -5T342 -6T290 -7Q204 -7 155 28T106 137Q106 159 110 179L177 564Q187 619 207 655T257 712T329 741T423 750Q508 750 552 748T617 741Q622 740 624 738T625 727L616 680Q615 672 612 670T603 668H410H410ZM598 803Q598 794 588 794H539Q531 794 527 797T518 809L454 906L353 809Q345 801 341 798T328 794H273Q265 794 265 800Q265 805 271 811L389 935Q397 943 401 946T415 950H500Q509 950 513 947T523 935L596 811Q598 808 598 803Z"  />
<glyph unicode="&#xCB;" horiz-adv-x="551" d="M410 668Q370 668 345 663T305 645T281 612T268 564L244 425H551Q570 425 567 405L561 367Q559 359 555 353T537 347H230L201 179Q199 167 198 157T196 138Q196 104 219 90T305 75H495Q503 75 506 73T507 63L498 14Q497 9 496 6T486 0Q475 -1 452 -2T400 -5T342 -6T290 -7Q204 -7 155 28T106 137Q106 159 110 179L177 564Q187 619 207 655T257 712T329 741T423 750Q508 750 552 748T617 741Q622 740 624 738T625 727L616 680Q615 672 612 670T603 668H410H410ZM585 910L570 829Q568 821 562 816T547 810H508Q501 810 496 814T491 826V829L506 910Q508 918 514 924T529 930H568Q575 930 580 925T585 913V910ZM410 910L395 829Q393 821 387 816T372 810H333Q326 810 321 814T316 826V829L331 910Q333 918 339 924T354 930H393Q400 930 405 925T410 913V910Z"  />
<glyph unicode="&#xCC;" horiz-adv-x="267" d="M292 743Q310 743 307 724L183 20Q180 0 161 0H106Q96 0 93 6T92 20L216 724Q218 732 222 737T237 743H292ZM337 803Q337 794 327 794H273Q265 794 261 797T252 809L162 935Q159 939 159 942Q159 950 171 950H237Q246 950 250 947T260 935L335 811Q337 808 337 803Z"  />
<glyph unicode="&#xCD;" horiz-adv-x="267" d="M292 743Q310 743 307 724L183 20Q180 0 161 0H106Q96 0 93 6T92 20L216 724Q218 732 222 737T237 743H292ZM433 944Q433 940 428 935L292 809Q284 801 280 798T267 794H213Q205 794 205 800Q205 805 211 811L331 935Q339 943 343 946T357 950H423Q433 950 433 944Z"  />
<glyph unicode="&#xCE;" horiz-adv-x="267" d="M292 743Q310 743 307 724L183 20Q180 0 161 0H106Q96 0 93 6T92 20L216 724Q218 732 222 737T237 743H292ZM439 803Q439 794 429 794H380Q372 794 368 797T359 809L295 906L194 809Q186 801 182 798T169 794H114Q106 794 106 800Q106 805 112 811L230 935Q238 943 242 946T256 950H341Q350 950 354 947T364 935L437 811Q439 808 439 803Z"  />
<glyph unicode="&#xCF;" horiz-adv-x="267" d="M292 743Q310 743 307 724L183 20Q180 0 161 0H106Q96 0 93 6T92 20L216 724Q218 732 222 737T237 743H292ZM418 909L403 828Q401 820 395 815T380 809H341Q334 809 329 813T324 825V828L339 909Q341 917 347 923T362 929H401Q408 929 413 924T418 912V909ZM243 909L228 828Q226 820 220 815T205 809H166Q159 809 154 813T149 825V828L164 909Q166 917 172 923T187 929H226Q233 929 238 924T243 912V909Z"  />
<glyph unicode="&#xD0;" horiz-adv-x="641" d="M666 516Q666 498 665 479T659 439L636 304Q622 221 591 163T515 66T410 11T278 -7Q249 -7 222 -6T170 -4T128 -1T98 3Q80 6 80 22Q80 24 80 25T81 28L137 347H100Q84 347 84 364V367L90 405Q92 413 99 419T114 425H151L202 715Q207 737 227 740Q238 742 257 743T301 746T354 749T411 750Q468 750 515 736T595 692T647 619T666 516ZM229 347L181 73Q205 71 231 71T292 71Q336 71 377 83T451 122T509 194T545 304L568 439Q575 477 575 511Q575 557 562 588T524 638T468 664T397 672Q362 672 337 672T286 669L243 425H347Q363 425 363 408V405L357 367Q355 359 348 353T333 347H229Z"  />
<glyph unicode="&#xD1;" horiz-adv-x="680" d="M641 724Q643 732 647 737T662 743H715Q723 743 726 739T730 728V724L607 29Q605 17 599 9T573 0H515Q499 0 494 4T486 16L276 603L274 606Q272 606 272 603L169 19Q167 11 162 6T148 0H90Q77 0 80 12L204 715Q206 727 213 735T238 743H287Q308 743 314 739T324 723L532 144Q535 136 536 136Q538 136 539 144L641 724ZM670 915L666 892Q657 840 635 814T564 787Q547 787 526 791T488 813L441 857Q426 871 420 875T404 879Q370 879 364 833L361 812Q360 805 356 800T344 795H310Q297 795 297 809V812L300 833Q308 893 335 917T404 942Q427 942 442 935T478 911L532 862Q539 856 548 852T564 848Q579 848 588 857T602 892L606 915Q608 922 612 927T623 932H657Q670 932 670 918V915Z"  />
<glyph unicode="&#xD2;" horiz-adv-x="661" d="M686 520Q686 500 684 480T678 436L655 307Q640 224 612 165T542 67T447 11T330 -7Q282 -7 241 7T170 49T123 121T106 223Q106 243 108 263T114 307L137 436Q153 525 183 585T256 682T351 734T463 750Q513 750 554 736T624 692T670 620T686 520ZM594 519Q594 601 556 634T449 668Q366 668 309 613T229 436L206 307Q202 286 201 267T199 231Q199 145 237 110T344 75Q426 75 483 130T563 307L586 436Q591 459 592 480T594 519ZM538 803Q538 794 528 794H474Q466 794 462 797T453 809L363 935Q360 939 360 942Q360 950 372 950H438Q447 950 451 947T461 935L536 811Q538 808 538 803Z"  />
<glyph unicode="&#xD3;" horiz-adv-x="661" d="M686 520Q686 500 684 480T678 436L655 307Q640 224 612 165T542 67T447 11T330 -7Q282 -7 241 7T170 49T123 121T106 223Q106 243 108 263T114 307L137 436Q153 525 183 585T256 682T351 734T463 750Q513 750 554 736T624 692T670 620T686 520ZM594 519Q594 601 556 634T449 668Q366 668 309 613T229 436L206 307Q202 286 201 267T199 231Q199 145 237 110T344 75Q426 75 483 130T563 307L586 436Q591 459 592 480T594 519ZM623 944Q623 940 618 935L482 809Q474 801 470 798T457 794H403Q395 794 395 800Q395 805 401 811L521 935Q529 943 533 946T547 950H613Q623 950 623 944Z"  />
<glyph unicode="&#xD4;" horiz-adv-x="661" d="M686 520Q686 500 684 480T678 436L655 307Q640 224 612 165T542 67T447 11T330 -7Q282 -7 241 7T170 49T123 121T106 223Q106 243 108 263T114 307L137 436Q153 525 183 585T256 682T351 734T463 750Q513 750 554 736T624 692T670 620T686 520ZM594 519Q594 601 556 634T449 668Q366 668 309 613T229 436L206 307Q202 286 201 267T199 231Q199 145 237 110T344 75Q426 75 483 130T563 307L586 436Q591 459 592 480T594 519ZM639 804Q639 795 629 795H580Q572 795 568 798T559 810L495 907L394 810Q386 802 382 799T369 795H314Q306 795 306 801Q306 806 312 812L430 936Q438 944 442 947T456 951H541Q550 951 554 948T564 936L637 812Q639 809 639 804Z"  />
<glyph unicode="&#xD5;" horiz-adv-x="661" d="M686 520Q686 500 684 480T678 436L655 307Q640 224 612 165T542 67T447 11T330 -7Q282 -7 241 7T170 49T123 121T106 223Q106 243 108 263T114 307L137 436Q153 525 183 585T256 682T351 734T463 750Q513 750 554 736T624 692T670 620T686 520ZM594 519Q594 601 556 634T449 668Q366 668 309 613T229 436L206 307Q202 286 201 267T199 231Q199 145 237 110T344 75Q426 75 483 130T563 307L586 436Q591 459 592 480T594 519ZM673 917L669 894Q660 842 638 816T567 789Q550 789 529 793T491 815L444 859Q429 873 423 877T407 881Q373 881 367 835L364 814Q363 807 359 802T347 797H313Q300 797 300 811V814L303 835Q311 895 338 919T407 944Q430 944 445 937T481 913L535 864Q542 858 551 854T567 850Q582 850 591 859T605 894L609 917Q611 924 615 929T626 934H660Q673 934 673 920V917Z"  />
<glyph unicode="&#xD6;" horiz-adv-x="661" d="M686 520Q686 500 684 480T678 436L655 307Q640 224 612 165T542 67T447 11T330 -7Q282 -7 241 7T170 49T123 121T106 223Q106 243 108 263T114 307L137 436Q153 525 183 585T256 682T351 734T463 750Q513 750 554 736T624 692T670 620T686 520ZM594 519Q594 601 556 634T449 668Q366 668 309 613T229 436L206 307Q202 286 201 267T199 231Q199 145 237 110T344 75Q426 75 483 130T563 307L586 436Q591 459 592 480T594 519ZM619 910L604 829Q602 821 596 816T581 810H542Q535 810 530 814T525 826V829L540 910Q542 918 548 924T563 930H602Q609 930 614 925T619 913V910ZM444 910L429 829Q427 821 421 816T406 810H367Q360 810 355 814T350 826V829L365 910Q367 918 373 924T388 930H427Q434 930 439 925T444 913V910Z"  />
<glyph unicode="&#xD7;" horiz-adv-x="595" d="M568 243Q568 238 563 233L535 205Q530 200 525 200Q517 200 509 208L494 223L377 340L246 209Q238 201 230 201Q225 201 220 206L192 234Q187 239 187 244Q187 252 195 260L326 391L195 523Q187 531 187 538Q187 543 192 548L220 576Q225 581 231 581Q239 581 246 574L377 442L509 574Q517 582 525 582Q530 582 535 577L563 549Q568 544 568 539Q568 531 560 523L428 391L560 259Q568 251 568 243Z"  />
<glyph unicode="&#xD8;" horiz-adv-x="661" d="M766 742Q766 736 761 731L667 626Q676 603 681 577T686 520Q686 500 684 480T678 436L655 307Q640 224 612 165T542 67T447 11T330 -7Q278 -7 235 9T161 58L111 3Q106 -3 103 -5T91 -7H38Q29 -7 29 2Q29 8 33 12L125 115Q106 162 106 223Q106 243 108 263T114 307L137 436Q153 525 183 585T256 682T351 734T463 750Q517 750 560 733T632 683L683 740Q692 750 705 750H757Q766 750 766 742ZM571 615Q553 644 522 656T449 668Q366 668 309 613T229 436L206 307Q202 286 201 267T199 231Q199 223 199 216T201 200L571 615ZM594 519Q594 525 594 531T593 543L223 128Q241 99 271 87T344 75Q426 75 483 130T563 307L586 436Q591 459 592 480T594 519Z"  />
<glyph unicode="&#xD9;" horiz-adv-x="662" d="M699 743Q707 743 712 739T715 724L635 270Q609 122 534 58T330 -7Q231 -7 174 44T116 197Q116 214 117 232T123 270L203 724Q205 732 209 737T225 743H279Q287 743 292 739T295 724L215 270Q211 250 209 233T207 198Q207 135 238 103T344 71Q390 71 424 84T481 122T519 184T543 270L623 724Q625 732 629 737T645 743H699ZM531 803Q531 794 521 794H467Q459 794 455 797T446 809L356 935Q353 939 353 942Q353 950 365 950H431Q440 950 444 947T454 935L529 811Q531 808 531 803Z"  />
<glyph unicode="&#xDA;" horiz-adv-x="662" d="M699 743Q707 743 712 739T715 724L635 270Q609 122 534 58T330 -7Q231 -7 174 44T116 197Q116 214 117 232T123 270L203 724Q205 732 209 737T225 743H279Q287 743 292 739T295 724L215 270Q211 250 209 233T207 198Q207 135 238 103T344 71Q390 71 424 84T481 122T519 184T543 270L623 724Q625 732 629 737T645 743H699ZM640 944Q640 940 635 935L499 809Q491 801 487 798T474 794H420Q412 794 412 800Q412 805 418 811L538 935Q546 943 550 946T564 950H630Q640 950 640 944Z"  />
<glyph unicode="&#xDB;" horiz-adv-x="662" d="M699 743Q707 743 712 739T715 724L635 270Q609 122 534 58T330 -7Q231 -7 174 44T116 197Q116 214 117 232T123 270L203 724Q205 732 209 737T225 743H279Q287 743 292 739T295 724L215 270Q211 250 209 233T207 198Q207 135 238 103T344 71Q390 71 424 84T481 122T519 184T543 270L623 724Q625 732 629 737T645 743H699ZM633 803Q633 794 623 794H574Q566 794 562 797T553 809L489 906L388 809Q380 801 376 798T363 794H308Q300 794 300 800Q300 805 306 811L424 935Q432 943 436 946T450 950H535Q544 950 548 947T558 935L631 811Q633 808 633 803Z"  />
<glyph unicode="&#xDC;" horiz-adv-x="662" d="M699 743Q707 743 712 739T715 724L635 270Q609 122 534 58T330 -7Q231 -7 174 44T116 197Q116 214 117 232T123 270L203 724Q205 732 209 737T225 743H279Q287 743 292 739T295 724L215 270Q211 250 209 233T207 198Q207 135 238 103T344 71Q390 71 424 84T481 122T519 184T543 270L623 724Q625 732 629 737T645 743H699ZM612 910L597 829Q595 821 589 816T574 810H535Q528 810 523 814T518 826V829L533 910Q535 918 541 924T556 930H595Q602 930 607 925T612 913V910ZM437 910L422 829Q420 821 414 816T399 810H360Q353 810 348 814T343 826V829L358 910Q360 918 366 924T381 930H420Q427 930 432 925T437 913V910Z"  />
<glyph unicode="&#xDD;" horiz-adv-x="583" d="M677 731Q677 726 672 718L455 370Q436 340 421 325T390 304L340 20Q338 12 334 6T318 0H263Q246 0 249 20L299 304Q286 309 275 324T256 370L164 718Q157 743 182 743H240Q248 743 251 739T256 729L336 405Q341 388 345 384T355 379Q360 379 365 383T382 405L579 729Q584 737 588 740T604 743H662Q677 743 677 731ZM604 944Q604 940 599 935L463 809Q455 801 451 798T438 794H384Q376 794 376 800Q376 805 382 811L502 935Q510 943 514 946T528 950H594Q604 950 604 944Z"  />
<glyph unicode="&#xDE;" horiz-adv-x="593" d="M629 482Q629 426 613 375T560 285T462 223T313 200Q244 200 202 203L170 20Q168 12 165 6T149 0H93Q76 0 79 20L203 724Q205 732 208 737T224 743H280Q297 743 294 724L281 655Q315 657 335 657T378 658Q435 658 481 649T560 618T611 564T629 482ZM536 479Q536 537 492 558T366 579Q342 579 322 579T268 577L216 281Q225 281 237 281T264 280T291 279T315 278Q424 278 479 329T536 478V479Z"  />
<glyph unicode="&#xDF;" horiz-adv-x="581" d="M613 599Q613 527 579 474T475 394Q521 375 545 336T569 251Q569 189 548 141T489 60T400 10T289 -7Q278 -7 267 -7T241 -4Q225 -2 225 12V14V15L232 56Q233 67 245 67Q255 67 267 67T288 66Q380 66 430 112T480 252Q480 300 448 328T346 357H309Q292 357 292 373V377L298 406Q300 414 306 420T321 426H358Q436 426 480 470T525 592Q525 635 499 658T412 681Q342 681 301 642T245 514L158 21Q156 13 150 7T136 0H83Q75 0 72 5T69 17V21L156 514Q179 646 248 702T426 758Q466 758 500 748T560 718T599 668T613 599Z"  />
<glyph unicode="&#xE0;" horiz-adv-x="527" d="M358 557Q403 557 449 551T533 534Q547 531 549 526T550 511L464 20Q462 12 458 6T441 0H401Q390 0 387 5T386 22L391 53Q369 37 351 26T314 8T275 -3T230 -7Q198 -7 170 3T120 35T87 90T74 170Q74 198 80 230L98 329Q110 394 135 437T194 507T271 545T358 557ZM455 473Q435 477 413 480T358 483Q280 483 239 442T184 320L166 217Q164 206 163 194T162 171Q162 113 187 90T249 67Q284 67 318 82T394 125L455 473ZM450 632Q450 623 440 623H386Q378 623 374 626T365 638L275 764Q272 768 272 771Q272 779 284 779H350Q359 779 363 776T373 764L448 640Q450 637 450 632Z"  />
<glyph unicode="&#xE1;" horiz-adv-x="527" d="M358 557Q403 557 449 551T533 534Q547 531 549 526T550 511L464 20Q462 12 458 6T441 0H401Q390 0 387 5T386 22L391 53Q369 37 351 26T314 8T275 -3T230 -7Q198 -7 170 3T120 35T87 90T74 170Q74 198 80 230L98 329Q110 394 135 437T194 507T271 545T358 557ZM455 473Q435 477 413 480T358 483Q280 483 239 442T184 320L166 217Q164 206 163 194T162 171Q162 113 187 90T249 67Q284 67 318 82T394 125L455 473ZM558 773Q558 769 553 764L417 638Q409 630 405 627T392 623H338Q330 623 330 629Q330 634 336 640L456 764Q464 772 468 775T482 779H548Q558 779 558 773Z"  />
<glyph unicode="&#xE2;" horiz-adv-x="527" d="M358 557Q403 557 449 551T533 534Q547 531 549 526T550 511L464 20Q462 12 458 6T441 0H401Q390 0 387 5T386 22L391 53Q369 37 351 26T314 8T275 -3T230 -7Q198 -7 170 3T120 35T87 90T74 170Q74 198 80 230L98 329Q110 394 135 437T194 507T271 545T358 557ZM455 473Q435 477 413 480T358 483Q280 483 239 442T184 320L166 217Q164 206 163 194T162 171Q162 113 187 90T249 67Q284 67 318 82T394 125L455 473ZM551 632Q551 623 541 623H492Q484 623 480 626T471 638L407 735L306 638Q298 630 294 627T281 623H226Q218 623 218 629Q218 634 224 640L342 764Q350 772 354 775T368 779H453Q462 779 466 776T476 764L549 640Q551 637 551 632Z"  />
<glyph unicode="&#xE3;" horiz-adv-x="527" d="M358 557Q403 557 449 551T533 534Q547 531 549 526T550 511L464 20Q462 12 458 6T441 0H401Q390 0 387 5T386 22L391 53Q369 37 351 26T314 8T275 -3T230 -7Q198 -7 170 3T120 35T87 90T74 170Q74 198 80 230L98 329Q110 394 135 437T194 507T271 545T358 557ZM455 473Q435 477 413 480T358 483Q280 483 239 442T184 320L166 217Q164 206 163 194T162 171Q162 113 187 90T249 67Q284 67 318 82T394 125L455 473ZM579 754L575 731Q566 679 544 653T473 626Q456 626 435 630T397 652L350 696Q335 710 329 714T313 718Q279 718 273 672L270 651Q269 644 265 639T253 634H219Q206 634 206 648V651L209 672Q217 732 244 756T313 781Q336 781 351 774T387 750L441 701Q448 695 457 691T473 687Q488 687 497 696T511 731L515 754Q517 761 521 766T532 771H566Q579 771 579 757V754Z"  />
<glyph unicode="&#xE4;" horiz-adv-x="527" d="M358 557Q403 557 449 551T533 534Q547 531 549 526T550 511L464 20Q462 12 458 6T441 0H401Q390 0 387 5T386 22L391 53Q369 37 351 26T314 8T275 -3T230 -7Q198 -7 170 3T120 35T87 90T74 170Q74 198 80 230L98 329Q110 394 135 437T194 507T271 545T358 557ZM455 473Q435 477 413 480T358 483Q280 483 239 442T184 320L166 217Q164 206 163 194T162 171Q162 113 187 90T249 67Q284 67 318 82T394 125L455 473ZM529 741L514 660Q512 652 506 647T491 641H452Q445 641 440 645T435 657V660L450 741Q452 749 458 755T473 761H512Q519 761 524 756T529 744V741ZM354 741L339 660Q337 652 331 647T316 641H277Q270 641 265 645T260 657V660L275 741Q277 749 283 755T298 761H337Q344 761 349 756T354 744V741Z"  />
<glyph unicode="&#xE5;" horiz-adv-x="527" d="M358 557Q403 557 449 551T533 534Q547 531 549 526T550 511L464 20Q462 12 458 6T441 0H401Q390 0 387 5T386 22L391 53Q369 37 351 26T314 8T275 -3T230 -7Q198 -7 170 3T120 35T87 90T74 170Q74 198 80 230L98 329Q110 394 135 437T194 507T271 545T358 557ZM455 473Q435 477 413 480T358 483Q280 483 239 442T184 320L166 217Q164 206 163 194T162 171Q162 113 187 90T249 67Q284 67 318 82T394 125L455 473ZM503 703Q503 682 495 664T474 632T442 610T402 602Q381 602 363 610T330 631T308 663T300 703Q300 724 308 742T330 775T362 797T402 805Q423 805 441 797T473 775T495 743T503 703ZM455 704Q455 726 440 741T402 756Q380 756 365 741T350 704Q350 682 365 667T402 651Q424 651 439 666T455 704Z"  />
<glyph unicode="&#xE6;" horiz-adv-x="853" d="M862 368Q862 359 861 347T859 320T855 293T849 269Q846 259 842 253T828 247H495L489 215Q487 201 486 189T484 166Q484 106 515 87T609 67Q653 67 700 71T782 81H784H787Q792 81 796 79T801 70V68V67L795 33Q793 22 789 17T771 10Q726 2 684 -2T591 -7Q540 -7 501 6T435 53Q417 41 395 30T346 11T292 -2T237 -7Q207 -7 178 1T126 25T89 68T75 132V143Q75 153 76 158L77 167Q82 210 99 240T147 290T227 319T342 329H422L429 369Q431 381 432 392T433 412Q433 453 412 467T341 482Q292 482 255 480T187 474H183Q176 474 171 476T166 486V490L173 525Q176 541 197 544Q229 549 266 553T354 557Q416 557 450 539T502 486Q540 527 582 542T683 557Q729 557 763 543T819 503T851 443T862 368ZM778 376Q778 432 751 457T670 483Q604 483 563 440T507 319L506 314H772Q774 325 776 342T778 376ZM336 265Q291 265 260 260T209 243T179 213T166 167L165 158Q164 154 164 151T164 144V134Q164 94 188 79T258 63Q293 63 327 72T381 94L411 265H336Z"  />
<glyph unicode="&#xE7;" horiz-adv-x="452" d="M498 531Q498 529 498 528T497 524L491 488Q489 480 483 477T470 473H467Q435 477 409 478T345 480Q285 480 244 436T190 314L177 236Q171 201 171 176Q171 119 197 95T272 70Q309 70 337 71T398 77H401Q407 77 411 74T416 65V62L410 26Q408 15 403 11T386 4Q360 -1 327 -4T259 -7Q215 -7 182 7T128 47T95 106T84 181Q84 195 85 208T89 236L102 314Q122 436 188 496T358 557Q393 557 425 554T481 546Q498 543 498 531ZM312 -38Q312 -42 307 -47L171 -173Q163 -181 159 -184T146 -188H92Q84 -188 84 -182Q84 -177 90 -171L209 -47Q217 -39 222 -36T236 -32H302Q312 -32 312 -38Z"  />
<glyph unicode="&#xE8;" horiz-adv-x="544" d="M555 371Q555 342 549 311L541 269Q539 259 535 253T519 247H182L180 235Q174 200 174 174Q174 117 207 92T298 67Q342 67 389 71T471 81Q493 84 490 67L484 33Q482 22 478 17T460 10Q415 2 376 -2T285 -7Q248 -7 213 3T150 35T105 92T88 178Q88 207 94 240L107 310Q130 430 197 493T372 557Q418 557 452 543T510 503T544 444T555 371ZM467 374Q467 480 359 480Q326 480 299 468T252 434T217 383T196 319L195 314H460L461 319Q467 349 467 374ZM429 632Q429 623 419 623H365Q357 623 353 626T344 638L254 764Q251 768 251 771Q251 779 263 779H329Q338 779 342 776T352 764L427 640Q429 637 429 632Z"  />
<glyph unicode="&#xE9;" horiz-adv-x="544" d="M555 371Q555 342 549 311L541 269Q539 259 535 253T519 247H182L180 235Q174 200 174 174Q174 117 207 92T298 67Q342 67 389 71T471 81Q493 84 490 67L484 33Q482 22 478 17T460 10Q415 2 376 -2T285 -7Q248 -7 213 3T150 35T105 92T88 178Q88 207 94 240L107 310Q130 430 197 493T372 557Q418 557 452 543T510 503T544 444T555 371ZM467 374Q467 480 359 480Q326 480 299 468T252 434T217 383T196 319L195 314H460L461 319Q467 349 467 374ZM570 773Q570 769 565 764L429 638Q421 630 417 627T404 623H350Q342 623 342 629Q342 634 348 640L468 764Q476 772 480 775T494 779H560Q570 779 570 773Z"  />
<glyph unicode="&#xEA;" horiz-adv-x="544" d="M555 371Q555 342 549 311L541 269Q539 259 535 253T519 247H182L180 235Q174 200 174 174Q174 117 207 92T298 67Q342 67 389 71T471 81Q493 84 490 67L484 33Q482 22 478 17T460 10Q415 2 376 -2T285 -7Q248 -7 213 3T150 35T105 92T88 178Q88 207 94 240L107 310Q130 430 197 493T372 557Q418 557 452 543T510 503T544 444T555 371ZM467 374Q467 480 359 480Q326 480 299 468T252 434T217 383T196 319L195 314H460L461 319Q467 349 467 374ZM551 632Q551 623 541 623H492Q484 623 480 626T471 638L407 735L306 638Q298 630 294 627T281 623H226Q218 623 218 629Q218 634 224 640L342 764Q350 772 354 775T368 779H453Q462 779 466 776T476 764L549 640Q551 637 551 632Z"  />
<glyph unicode="&#xEB;" horiz-adv-x="544" d="M555 371Q555 342 549 311L541 269Q539 259 535 253T519 247H182L180 235Q174 200 174 174Q174 117 207 92T298 67Q342 67 389 71T471 81Q493 84 490 67L484 33Q482 22 478 17T460 10Q415 2 376 -2T285 -7Q248 -7 213 3T150 35T105 92T88 178Q88 207 94 240L107 310Q130 430 197 493T372 557Q418 557 452 543T510 503T544 444T555 371ZM467 374Q467 480 359 480Q326 480 299 468T252 434T217 383T196 319L195 314H460L461 319Q467 349 467 374ZM534 741L519 660Q517 652 511 647T496 641H457Q450 641 445 645T440 657V660L455 741Q457 749 463 755T478 761H517Q524 761 529 756T534 744V741ZM359 741L344 660Q342 652 336 647T321 641H282Q275 641 270 645T265 657V660L280 741Q282 749 288 755T303 761H342Q349 761 354 756T359 744V741Z"  />
<glyph unicode="&#xEC;" horiz-adv-x="247" d="M260 530L171 20Q169 12 162 6T147 0H99Q83 0 83 16V20L172 530Q174 538 181 544T196 550H244Q260 550 260 534V530ZM297 632Q297 623 287 623H233Q225 623 221 626T212 638L122 764Q119 768 119 771Q119 779 131 779H197Q206 779 210 776T220 764L295 640Q297 637 297 632Z"  />
<glyph unicode="&#xED;" horiz-adv-x="247" d="M260 530L171 20Q169 12 162 6T147 0H99Q83 0 83 16V20L172 530Q174 538 181 544T196 550H244Q260 550 260 534V530ZM408 773Q408 769 403 764L267 638Q259 630 255 627T242 623H188Q180 623 180 629Q180 634 186 640L306 764Q314 772 318 775T332 779H398Q408 779 408 773Z"  />
<glyph unicode="&#xEE;" horiz-adv-x="247" d="M260 530L171 20Q169 12 162 6T147 0H99Q83 0 83 16V20L172 530Q174 538 181 544T196 550H244Q260 550 260 534V530ZM401 632Q401 623 391 623H342Q334 623 330 626T321 638L257 735L156 638Q148 630 144 627T131 623H76Q68 623 68 629Q68 634 74 640L192 764Q200 772 204 775T218 779H303Q312 779 316 776T326 764L399 640Q401 637 401 632Z"  />
<glyph unicode="&#xEF;" horiz-adv-x="247" d="M260 530L171 20Q169 12 162 6T147 0H99Q83 0 83 16V20L172 530Q174 538 181 544T196 550H244Q260 550 260 534V530ZM382 741L367 660Q365 652 359 647T344 641H305Q298 641 293 645T288 657V660L303 741Q305 749 311 755T326 761H365Q372 761 377 756T382 744V741ZM207 741L192 660Q190 652 184 647T169 641H130Q123 641 118 645T113 657V660L128 741Q130 749 136 755T151 761H190Q197 761 202 756T207 744V741Z"  />
<glyph unicode="&#xF0;" horiz-adv-x="545" d="M561 432Q561 402 559 368T549 298L539 243Q528 183 508 137T455 58T377 10T273 -7Q226 -7 192 6T134 45T99 104T87 180Q87 210 93 243L103 298Q127 430 194 489T370 548Q398 548 428 539T477 509Q469 548 439 585T354 651L255 583Q251 581 248 579T241 577Q235 577 231 583L217 602Q215 606 215 608Q215 613 219 618T228 626L300 675Q283 681 264 686T224 697Q210 700 210 710Q210 711 212 717L228 746Q234 758 241 758Q244 758 252 756Q285 748 313 740T368 720L477 793Q484 798 491 798Q497 798 502 792L515 774Q518 771 518 767Q518 762 515 759T506 752L421 694Q498 646 529 583T561 432ZM468 365Q468 421 442 447T356 473Q321 473 294 460T246 424T212 368T192 298L182 243Q178 223 177 206T175 174Q175 120 200 95T286 69Q356 69 396 115T451 243L461 298Q468 333 468 365Z"  />
<glyph unicode="&#xF1;" horiz-adv-x="557" d="M556 403Q556 377 551 349L493 20Q491 12 484 6T469 0H421Q412 0 408 6T405 20L463 349Q465 363 466 377T468 404Q468 440 449 460T375 480Q346 480 314 473T234 442L160 20Q158 12 151 6T136 0H87Q78 0 74 6T72 20L161 530Q163 538 168 544T187 550H229Q251 550 248 530L245 509Q281 529 318 543T406 557Q446 557 474 545T521 512T547 463T556 403ZM594 754L590 731Q581 679 559 653T488 626Q471 626 450 630T412 652L365 696Q350 710 344 714T328 718Q294 718 288 672L285 651Q284 644 280 639T268 634H234Q221 634 221 648V651L224 672Q232 732 259 756T328 781Q351 781 366 774T402 750L456 701Q463 695 472 691T488 687Q503 687 512 696T526 731L530 754Q532 761 536 766T547 771H581Q594 771 594 757V754Z"  />
<glyph unicode="&#xF2;" horiz-adv-x="545" d="M555 369Q555 355 554 341T550 313L537 237Q527 180 507 135T454 58T376 10T271 -7Q226 -7 192 7T134 46T99 105T87 182Q87 196 88 209T92 237L105 313Q147 557 370 557Q416 557 450 543T508 504T543 445T555 369ZM467 370Q467 424 442 452T357 480Q291 480 249 435T193 313L180 237Q174 204 174 178Q174 124 199 97T284 70Q317 70 344 82T393 117T428 169T449 237L462 313Q465 329 466 343T467 370ZM441 632Q441 623 431 623H377Q369 623 365 626T356 638L266 764Q263 768 263 771Q263 779 275 779H341Q350 779 354 776T364 764L439 640Q441 637 441 632Z"  />
<glyph unicode="&#xF3;" horiz-adv-x="545" d="M555 369Q555 355 554 341T550 313L537 237Q527 180 507 135T454 58T376 10T271 -7Q226 -7 192 7T134 46T99 105T87 182Q87 196 88 209T92 237L105 313Q147 557 370 557Q416 557 450 543T508 504T543 445T555 369ZM467 370Q467 424 442 452T357 480Q291 480 249 435T193 313L180 237Q174 204 174 178Q174 124 199 97T284 70Q317 70 344 82T393 117T428 169T449 237L462 313Q465 329 466 343T467 370ZM562 773Q562 769 557 764L421 638Q413 630 409 627T396 623H342Q334 623 334 629Q334 634 340 640L460 764Q468 772 472 775T486 779H552Q562 779 562 773Z"  />
<glyph unicode="&#xF4;" horiz-adv-x="545" d="M555 369Q555 355 554 341T550 313L537 237Q527 180 507 135T454 58T376 10T271 -7Q226 -7 192 7T134 46T99 105T87 182Q87 196 88 209T92 237L105 313Q147 557 370 557Q416 557 450 543T508 504T543 445T555 369ZM467 370Q467 424 442 452T357 480Q291 480 249 435T193 313L180 237Q174 204 174 178Q174 124 199 97T284 70Q317 70 344 82T393 117T428 169T449 237L462 313Q465 329 466 343T467 370ZM551 632Q551 623 541 623H492Q484 623 480 626T471 638L407 735L306 638Q298 630 294 627T281 623H226Q218 623 218 629Q218 634 224 640L342 764Q350 772 354 775T368 779H453Q462 779 466 776T476 764L549 640Q551 637 551 632Z"  />
<glyph unicode="&#xF5;" horiz-adv-x="545" d="M555 369Q555 355 554 341T550 313L537 237Q527 180 507 135T454 58T376 10T271 -7Q226 -7 192 7T134 46T99 105T87 182Q87 196 88 209T92 237L105 313Q147 557 370 557Q416 557 450 543T508 504T543 445T555 369ZM467 370Q467 424 442 452T357 480Q291 480 249 435T193 313L180 237Q174 204 174 178Q174 124 199 97T284 70Q317 70 344 82T393 117T428 169T449 237L462 313Q465 329 466 343T467 370ZM589 754L585 731Q576 679 554 653T483 626Q466 626 445 630T407 652L360 696Q345 710 339 714T323 718Q289 718 283 672L280 651Q279 644 275 639T263 634H229Q216 634 216 648V651L219 672Q227 732 254 756T323 781Q346 781 361 774T397 750L451 701Q458 695 467 691T483 687Q498 687 507 696T521 731L525 754Q527 761 531 766T542 771H576Q589 771 589 757V754Z"  />
<glyph unicode="&#xF6;" horiz-adv-x="545" d="M555 369Q555 355 554 341T550 313L537 237Q527 180 507 135T454 58T376 10T271 -7Q226 -7 192 7T134 46T99 105T87 182Q87 196 88 209T92 237L105 313Q147 557 370 557Q416 557 450 543T508 504T543 445T555 369ZM467 370Q467 424 442 452T357 480Q291 480 249 435T193 313L180 237Q174 204 174 178Q174 124 199 97T284 70Q317 70 344 82T393 117T428 169T449 237L462 313Q465 329 466 343T467 370ZM532 741L517 660Q515 652 509 647T494 641H455Q448 641 443 645T438 657V660L453 741Q455 749 461 755T476 761H515Q522 761 527 756T532 744V741ZM357 741L342 660Q340 652 334 647T319 641H280Q273 641 268 645T263 657V660L278 741Q280 749 286 755T301 761H340Q347 761 352 756T357 744V741Z"  />
<glyph unicode="&#xF7;" horiz-adv-x="595" d="M413 527Q413 519 408 513T394 507H346Q338 507 332 513T326 527V615Q326 623 332 628T346 634H394Q402 634 407 629T413 615V527ZM583 371Q583 363 577 359T563 355H178Q170 355 164 359T158 371V411Q158 419 164 423T178 427H563Q571 427 577 423T583 411V371ZM413 162Q413 154 408 149T394 143H346Q338 143 332 148T326 162V251Q326 259 332 264T346 270H394Q402 270 407 265T413 251V162Z"  />
<glyph unicode="&#xF8;" horiz-adv-x="545" d="M630 577Q630 571 623 564L537 470Q556 432 556 377Q556 347 550 313L537 237Q528 182 506 137T450 60T371 11T271 -7Q187 -7 139 35L85 -25Q79 -32 76 -33T67 -35H18Q11 -35 11 -29Q11 -22 17 -16L105 80Q86 118 86 173Q86 202 92 237L105 313Q114 368 136 413T191 490T270 539T370 557Q455 557 503 515L555 573Q561 580 564 581T573 583H623Q630 583 630 577ZM441 449Q413 480 357 480Q286 480 247 436T193 313L180 237Q178 222 177 209T175 182Q175 175 175 169T176 158L441 449ZM467 364Q467 371 467 377T465 391L200 101Q228 70 284 70Q355 70 395 114T449 237L462 313Q464 327 465 339T467 364Z"  />
<glyph unicode="&#xF9;" horiz-adv-x="557" d="M567 550Q578 550 581 544T582 530L493 20Q491 12 485 6T470 0H423Q414 0 410 6T408 20L411 38Q366 15 328 4T245 -7Q180 -7 140 32T99 151Q99 179 105 212L161 530Q163 541 170 545T185 550H233Q252 550 249 530L191 201Q185 168 185 144Q185 102 206 86T278 70Q310 70 346 80T420 107L494 530Q496 538 500 544T518 550H567ZM447 632Q447 623 437 623H383Q375 623 371 626T362 638L272 764Q269 768 269 771Q269 779 281 779H347Q356 779 360 776T370 764L445 640Q447 637 447 632Z"  />
<glyph unicode="&#xFA;" horiz-adv-x="557" d="M567 550Q578 550 581 544T582 530L493 20Q491 12 485 6T470 0H423Q414 0 410 6T408 20L411 38Q366 15 328 4T245 -7Q180 -7 140 32T99 151Q99 179 105 212L161 530Q163 541 170 545T185 550H233Q252 550 249 530L191 201Q185 168 185 144Q185 102 206 86T278 70Q310 70 346 80T420 107L494 530Q496 538 500 544T518 550H567ZM570 773Q570 769 565 764L429 638Q421 630 417 627T404 623H350Q342 623 342 629Q342 634 348 640L468 764Q476 772 480 775T494 779H560Q570 779 570 773Z"  />
<glyph unicode="&#xFB;" horiz-adv-x="557" d="M567 550Q578 550 581 544T582 530L493 20Q491 12 485 6T470 0H423Q414 0 410 6T408 20L411 38Q366 15 328 4T245 -7Q180 -7 140 32T99 151Q99 179 105 212L161 530Q163 541 170 545T185 550H233Q252 550 249 530L191 201Q185 168 185 144Q185 102 206 86T278 70Q310 70 346 80T420 107L494 530Q496 538 500 544T518 550H567ZM555 632Q555 623 545 623H496Q488 623 484 626T475 638L411 735L310 638Q302 630 298 627T285 623H230Q222 623 222 629Q222 634 228 640L346 764Q354 772 358 775T372 779H457Q466 779 470 776T480 764L553 640Q555 637 555 632Z"  />
<glyph unicode="&#xFC;" horiz-adv-x="557" d="M567 550Q578 550 581 544T582 530L493 20Q491 12 485 6T470 0H423Q414 0 410 6T408 20L411 38Q366 15 328 4T245 -7Q180 -7 140 32T99 151Q99 179 105 212L161 530Q163 541 170 545T185 550H233Q252 550 249 530L191 201Q185 168 185 144Q185 102 206 86T278 70Q310 70 346 80T420 107L494 530Q496 538 500 544T518 550H567ZM537 741L522 660Q520 652 514 647T499 641H460Q453 641 448 645T443 657V660L458 741Q460 749 466 755T481 761H520Q527 761 532 756T537 744V741ZM362 741L347 660Q345 652 339 647T324 641H285Q278 641 273 645T268 657V660L283 741Q285 749 291 755T306 761H345Q352 761 357 756T362 744V741Z"  />
<glyph unicode="&#xFD;" horiz-adv-x="534" d="M592 537Q592 532 589 526L322 -50Q303 -91 285 -119T242 -164T187 -190T113 -198Q92 -198 69 -196T31 -189Q23 -187 17 -184T12 -173L19 -136Q21 -125 25 -122T44 -120Q52 -121 63 -122T87 -124T112 -125T132 -126Q153 -126 169 -123T199 -110T224 -84T246 -41L263 0H252Q240 0 230 3T210 14T195 38T186 78L135 526Q133 542 139 546T156 550H208Q217 550 219 545T222 534L264 100Q266 85 270 82T279 78H295L497 535Q500 543 504 546T519 550H578Q592 550 592 537ZM572 773Q572 769 567 764L431 638Q423 630 419 627T406 623H352Q344 623 344 629Q344 634 350 640L470 764Q478 772 482 775T496 779H562Q572 779 572 773Z"  />
<glyph unicode="&#xFE;" horiz-adv-x="541" d="M552 376Q552 344 546 310L533 238Q511 116 450 55T272 -7Q249 -7 217 -4T157 4L125 -177Q123 -188 119 -192T102 -196H51Q44 -196 40 -192T37 -177L197 732Q199 740 203 746T221 752H269Q279 752 283 748T285 732L252 547Q282 552 312 554T371 557Q464 557 508 507T552 376ZM465 377Q465 429 441 456T358 483Q326 483 293 480T239 473L170 77Q194 72 227 70T285 67Q356 67 393 113T445 238L458 310Q465 345 465 377Z"  />
<glyph unicode="&#xFF;" horiz-adv-x="534" d="M592 537Q592 532 589 526L322 -50Q303 -91 285 -119T242 -164T187 -190T113 -198Q92 -198 69 -196T31 -189Q23 -187 17 -184T12 -173L19 -136Q21 -125 25 -122T44 -120Q52 -121 63 -122T87 -124T112 -125T132 -126Q153 -126 169 -123T199 -110T224 -84T246 -41L263 0H252Q240 0 230 3T210 14T195 38T186 78L135 526Q133 542 139 546T156 550H208Q217 550 219 545T222 534L264 100Q266 85 270 82T279 78H295L497 535Q500 543 504 546T519 550H578Q592 550 592 537ZM535 741L520 660Q518 652 512 647T497 641H458Q451 641 446 645T441 657V660L456 741Q458 749 464 755T479 761H518Q525 761 530 756T535 744V741ZM360 741L345 660Q343 652 337 647T322 641H283Q276 641 271 645T266 657V660L281 741Q283 749 289 755T304 761H343Q350 761 355 756T360 744V741Z"  />
<glyph unicode="&#x131;" horiz-adv-x="247" d="M260 530L171 20Q169 12 162 6T147 0H99Q83 0 83 16V20L172 530Q174 538 181 544T196 550H244Q260 550 260 534V530Z"  />
<glyph unicode="&#x152;" horiz-adv-x="983" d="M1056 727L1048 680Q1046 668 1035 668H842Q802 668 777 663T737 645T713 612T700 564L676 425H983Q999 425 999 408V405L993 367Q991 359 984 353T969 347H662L632 178Q630 166 629 156T628 137Q628 103 651 89T737 74H930Q939 74 939 65V62L931 15Q930 10 927 6T918 1Q898 -2 846 -5T722 -8Q650 -8 610 11T549 75Q505 33 455 13T330 -7Q281 -7 240 7T169 51T123 123T106 225Q106 244 108 264T114 307L137 436Q153 523 183 583T256 680T350 733T463 750Q525 750 569 730T642 668Q677 716 727 733T855 750Q926 750 978 747T1049 741Q1056 740 1056 730V727ZM596 518Q596 551 589 578T564 626T519 657T449 668Q408 668 373 656T309 615T261 543T229 436L206 307Q201 284 200 263T198 224Q198 142 236 109T344 75Q397 75 435 94T499 144T540 218T564 306L588 440Q596 483 596 518Z"  />
<glyph unicode="&#x153;" horiz-adv-x="901" d="M910 369Q910 355 907 341T902 311L895 269Q892 247 873 247H538Q534 227 532 210T529 177Q529 124 557 96T655 67Q699 67 746 71T828 81H833Q838 81 842 79T847 70V67L841 33Q839 22 835 17T817 10Q772 2 733 -2T642 -7Q577 -7 534 11T463 77Q427 35 382 14T273 -7Q227 -7 193 7T135 46T101 105T89 180Q89 193 90 208T94 237L107 313Q128 438 194 497T372 557Q435 557 470 535T532 471Q568 516 616 536T725 557Q771 557 805 543T863 503T898 443T910 369ZM824 374Q824 482 716 482Q678 482 650 468T603 431T571 378T551 314H817L818 319Q824 349 824 374ZM470 364Q470 418 444 449T359 480Q288 480 248 434T195 313L182 237Q179 221 178 207T177 180Q177 126 202 98T286 70Q357 70 397 115T452 237L465 313Q467 327 468 339T470 364Z"  />
<glyph unicode="&#x160;" horiz-adv-x="550" d="M406 750Q428 750 455 749T508 747T556 743T593 738Q603 736 606 733T607 721L600 678Q598 669 595 665T578 662Q545 664 498 666T406 668Q376 668 346 665T293 650T255 619T240 566Q240 548 244 534T259 507T287 480T329 450L411 395Q446 372 470 350T509 306T530 259T537 207Q537 154 516 114T458 47T369 7T258 -7Q237 -7 214 -6T169 -3T125 1T88 7Q79 9 75 12T72 25L79 65Q81 76 85 79T102 81Q119 79 140 78T183 77T227 76T266 75Q347 75 394 105T441 207Q441 225 436 239T420 266T390 294T345 327L258 386Q207 421 178 464T149 561Q149 613 170 649T226 707T308 740T406 750ZM622 944Q622 939 616 933L497 809Q489 801 484 798T470 794H385Q376 794 372 797T363 809L287 933Q285 936 285 941Q285 950 295 950H342Q350 950 354 946T363 934L429 838L528 934Q536 942 540 946T553 950H614Q622 950 622 944Z"  />
<glyph unicode="&#x161;" horiz-adv-x="466" d="M329 557Q358 557 378 556T415 554T446 550T476 544Q487 542 490 539T491 524L486 491Q483 471 463 474Q437 477 398 479T316 482Q299 482 281 479T247 468T221 447T211 411Q211 392 225 377T265 345L354 286Q380 269 397 253T424 222T439 189T443 152Q443 108 425 78T377 28T308 1T228 -7Q212 -7 192 -6T151 -4T109 1T72 8Q64 10 59 15T55 28L61 63Q63 73 68 76T86 78Q104 76 125 74T167 71T208 68T241 67Q263 67 283 71T319 85T344 111T354 152Q354 169 342 184T296 223L206 282Q164 309 143 340T122 412Q122 454 140 481T188 526T254 550T329 557ZM532 773Q532 768 526 762L407 638Q399 630 394 627T380 623H295Q286 623 282 626T273 638L197 762Q195 765 195 770Q195 779 205 779H252Q260 779 264 775T273 763L339 667L438 763Q446 771 450 775T463 779H524Q532 779 532 773Z"  />
<glyph unicode="&#x178;" horiz-adv-x="583" d="M677 731Q677 726 672 718L455 370Q436 340 421 325T390 304L340 20Q338 12 334 6T318 0H263Q246 0 249 20L299 304Q286 309 275 324T256 370L164 718Q157 743 182 743H240Q248 743 251 739T256 729L336 405Q341 388 345 384T355 379Q360 379 365 383T382 405L579 729Q584 737 588 740T604 743H662Q677 743 677 731ZM584 902L569 821Q567 813 561 808T546 802H507Q500 802 495 806T490 818V821L505 902Q507 910 513 916T528 922H567Q574 922 579 917T584 905V902ZM409 902L394 821Q392 813 386 808T371 802H332Q325 802 320 806T315 818V821L330 902Q332 910 338 916T353 922H392Q399 922 404 917T409 905V902Z"  />
<glyph unicode="&#x17D;" horiz-adv-x="597" d="M645 674Q645 654 637 635T606 589L177 96Q173 92 173 88Q173 82 181 82H538Q551 82 554 78T555 65L547 18Q545 10 542 5T524 0H181Q129 0 105 20T81 76Q81 94 88 113T110 150L535 642Q540 648 541 651T543 656Q543 662 534 662H207Q199 662 194 665T190 679L198 726Q200 734 203 738T221 743H551Q605 743 625 725T645 674ZM636 944Q636 939 630 933L511 809Q503 801 498 798T484 794H399Q390 794 386 797T377 809L301 933Q299 936 299 941Q299 950 309 950H356Q364 950 368 946T377 934L443 838L542 934Q550 942 554 946T567 950H628Q636 950 636 944Z"  />
<glyph unicode="&#x17E;" horiz-adv-x="466" d="M493 481Q493 465 487 449T466 418L153 93Q146 86 146 81Q146 74 156 74H411Q424 74 426 68T427 54L421 20Q419 9 415 5T398 0H145Q100 0 79 20T58 70Q58 85 63 100T81 129L400 460Q406 466 406 471Q406 476 396 476H150Q131 476 134 496L140 530Q142 542 148 546T163 550H413Q456 550 474 530T493 481ZM549 773Q549 768 543 762L424 638Q416 630 411 627T397 623H312Q303 623 299 626T290 638L214 762Q212 765 212 770Q212 779 222 779H269Q277 779 281 775T290 763L356 667L455 763Q463 771 467 775T480 779H541Q549 779 549 773Z"  />
<glyph unicode="&#x192;" horiz-adv-x="605" d="M614 743Q614 742 614 742T613 739L606 707Q603 692 581 692H526Q490 692 473 678T446 624L401 428H544Q560 428 560 414V410L552 373Q550 365 543 360T528 355H385L304 -2Q295 -41 279 -67T240 -109T191 -132T132 -139Q106 -139 90 -138T63 -134Q47 -131 47 -122Q47 -120 47 -120T48 -117L55 -85Q58 -70 80 -70H135Q171 -70 188 -56T215 -2L296 355H168Q152 355 152 369V373L160 410Q162 418 169 423T184 428H312L357 624Q366 663 382 689T421 731T470 754T529 761Q555 761 570 760T597 756Q614 753 614 743Z"  />
<glyph unicode="&#x2C6;" horiz-adv-x="373" d="M464 632Q464 623 454 623H405Q397 623 393 626T384 638L320 735L219 638Q211 630 207 627T194 623H139Q131 623 131 629Q131 634 137 640L255 764Q263 772 267 775T281 779H366Q375 779 379 776T389 764L462 640Q464 637 464 632Z"  />
<glyph unicode="&#x2DC;" horiz-adv-x="493" d="M552 754L548 731Q539 679 517 653T446 626Q429 626 408 630T370 652L323 696Q308 710 302 714T286 718Q252 718 246 672L243 651Q242 644 238 639T226 634H192Q179 634 179 648V651L182 672Q190 732 217 756T286 781Q309 781 324 774T360 750L414 701Q421 695 430 691T446 687Q461 687 470 696T484 731L488 754Q490 761 494 766T505 771H539Q552 771 552 757V754Z"  />
<glyph unicode="&#x2013;" horiz-adv-x="310" d="M371 263Q368 246 349 246H47Q28 246 31 263L38 302Q40 310 46 315T60 320H362Q370 320 375 315T378 302L371 263H371Z"  />
<glyph unicode="&#x2014;" horiz-adv-x="600" d="M661 263Q658 246 639 246H47Q28 246 31 263L38 302Q40 310 46 315T60 320H652Q660 320 665 315T668 302L661 263H661Z"  />
<glyph unicode="&#x2018;" horiz-adv-x="186" d="M288 746Q288 740 285 733L215 544Q208 525 192 525H133Q123 525 123 533Q123 538 126 544L220 733Q229 752 243 752H281Q288 752 288 746Z"  />
<glyph unicode="&#x2019;" horiz-adv-x="186" d="M288 744Q288 739 285 733L191 544Q186 533 182 529T169 525H131Q123 525 123 532Q123 536 126 544L196 733Q203 752 220 752H279Q288 752 288 744Z"  />
<glyph unicode="&#x201A;" horiz-adv-x="186" d="M189 121Q189 116 186 110L78 -79Q73 -89 69 -93T56 -98H15Q4 -98 4 -89Q4 -85 7 -79L97 110Q106 129 121 129H179Q189 129 189 121Z"  />
<glyph unicode="&#x201C;" horiz-adv-x="336" d="M438 746Q438 740 435 733L365 544Q358 525 342 525H283Q273 525 273 533Q273 538 276 544L370 733Q379 752 393 752H431Q438 752 438 746ZM288 746Q288 740 285 733L215 544Q208 525 192 525H133Q123 525 123 533Q123 538 126 544L220 733Q229 752 243 752H281Q288 752 288 746Z"  />
<glyph unicode="&#x201D;" horiz-adv-x="336" d="M438 745Q438 740 435 734L341 545Q336 534 332 530T319 526H281Q273 526 273 533Q273 537 276 545L346 734Q353 753 370 753H429Q438 753 438 745ZM288 745Q288 740 285 734L191 545Q186 534 182 530T169 526H131Q123 526 123 533Q123 537 126 545L196 734Q203 753 220 753H279Q288 753 288 745Z"  />
<glyph unicode="&#x201E;" horiz-adv-x="336" d="M355 121Q355 116 352 110L244 -79Q239 -89 235 -93T222 -98H181Q170 -98 170 -89Q170 -85 173 -79L263 110Q272 129 287 129H345Q355 129 355 121ZM175 121Q175 116 172 110L64 -79Q59 -89 55 -93T42 -98H1Q-10 -98 -10 -89Q-10 -85 -7 -79L83 110Q92 129 107 129H165Q175 129 175 121Z"  />
<glyph unicode="&#x2020;" horiz-adv-x="404" d="M462 540L454 495Q451 479 432 479H323L243 20Q241 12 236 6T223 0H166Q153 0 153 14Q153 16 153 17T154 20L234 479H140Q124 479 124 492V495L132 540Q135 555 154 555H248L279 733Q281 741 286 746T300 752H356Q368 752 368 738V733L337 555H446Q462 555 462 543V540Z"  />
<glyph unicode="&#x2021;" horiz-adv-x="404" d="M462 540L454 495Q451 479 432 479H323L300 345H409Q425 345 425 333V330L417 285Q414 269 395 269H286L243 20Q241 12 236 6T223 0H166Q153 0 153 14Q153 16 153 17T154 20L197 269H103Q87 269 87 282V285L95 330Q98 345 117 345H211L234 479H140Q124 479 124 492V495L132 540Q135 555 154 555H248L279 733Q281 741 286 746T300 752H356Q368 752 368 738V733L337 555H446Q462 555 462 543V540Z"  />
<glyph unicode="&#x2022;" horiz-adv-x="418" d="M438 367Q438 334 426 305T392 255T341 221T279 208Q246 208 217 220T167 254T133 305T120 367Q120 400 132 429T166 479T217 513T279 526Q312 526 341 514T391 480T425 429T438 367Z"  />
<glyph unicode="&#x2026;" horiz-adv-x="606" d="M568 113L551 19Q549 11 543 6T529 0H481Q474 0 469 4T464 16V19L481 113Q483 121 489 126T504 132H552Q568 132 568 116V113ZM367 113L350 19Q348 11 342 6T327 0H279Q263 0 263 16V19L280 113Q282 121 288 126T302 132H350Q357 132 362 128T367 116V113ZM165 113L148 19Q146 11 140 6T126 0H78Q71 0 66 4T61 16V19L78 113Q80 121 86 126T101 132H149Q165 132 165 116V113Z"  />
<glyph unicode="&#x2030;" horiz-adv-x="1134" d="M1137 294Q1137 283 1136 272T1133 248L1116 155Q1100 67 1060 30T954 -7Q903 -7 873 24T843 112Q843 122 844 133T847 155L864 248Q880 335 921 372T1027 409Q1079 409 1108 380T1137 294ZM797 294Q797 283 796 272T793 248L776 155Q760 67 720 30T614 -7Q563 -7 533 24T503 112Q503 122 504 133T507 155L524 248Q540 335 581 372T687 409Q739 409 768 380T797 294ZM780 738Q780 732 773 724L230 16Q222 5 217 1T204 -4H155Q147 -4 147 2Q147 8 153 16L696 724Q704 735 709 739T722 743H773Q780 743 780 738ZM422 635Q422 624 421 613T418 589L401 496Q385 408 345 371T239 334Q188 334 158 365T128 453Q128 463 129 474T132 496L149 589Q165 676 206 713T312 750Q364 750 393 721T422 635ZM1075 290Q1075 325 1060 339T1017 353Q985 353 961 329T926 248L909 155Q907 143 906 133T905 113Q905 78 920 64T964 50Q997 50 1020 75T1054 155L1071 248Q1073 260 1074 270T1075 290ZM735 290Q735 325 720 339T677 353Q645 353 621 329T586 248L569 155Q567 143 566 133T565 113Q565 78 580 64T624 50Q657 50 680 75T714 155L731 248Q733 260 734 270T735 290ZM360 631Q360 666 345 680T302 694Q270 694 246 670T211 589L194 496Q192 484 191 474T190 454Q190 419 205 405T249 391Q282 391 305 416T339 496L356 589Q358 601 359 611T360 631Z"  />
<glyph unicode="&#x2039;" horiz-adv-x="354" d="M389 477Q389 474 387 470T381 462L171 277L310 92Q314 86 314 81Q314 70 302 70H249Q239 70 230 80L91 249Q83 258 83 274Q83 295 95 305L294 474Q302 480 307 482T319 484H380Q389 484 389 477Z"  />
<glyph unicode="&#x203A;" horiz-adv-x="354" d="M373 280Q373 259 361 249L162 80Q149 70 137 70H76Q67 70 67 77Q67 80 69 84T75 92L285 277L146 462Q142 468 142 473Q142 484 154 484H207Q217 484 226 474L365 305Q373 296 373 280Z"  />
<glyph unicode="&#x20AC;" horiz-adv-x="605" d="M677 721L668 670Q668 665 663 662Q658 659 654 659H651Q642 660 632 661T609 663Q585 665 558 666T501 668Q467 668 434 659T372 627T319 569T280 479H564Q571 479 576 475T582 464Q582 461 581 459L571 434Q568 426 562 420T547 414H265L251 333H507Q521 333 521 320Q521 319 519 313L509 288Q506 280 500 274T485 268H241Q240 259 240 251T239 235Q239 190 251 160T285 110T335 83T396 75Q440 75 480 78T547 83H551Q564 83 564 72V67L557 26Q555 17 548 13T533 6Q517 3 504 1T474 -3T437 -6T383 -7Q344 -7 303 5T228 44T171 116T149 226Q149 236 149 246T151 268H111Q95 268 95 285V287V288L99 313Q101 321 108 327T123 333H158L172 414H137Q130 414 125 419Q121 423 121 431V433V434L125 459Q127 467 133 473T148 479H185Q206 560 242 612T322 695T416 738T514 750Q546 750 571 748T619 741L663 734Q668 733 672 731T677 723V721Z"  />
<glyph unicode="&#x2122;" horiz-adv-x="790" d="M839 346Q839 336 829 336H788Q778 336 778 346V586Q778 616 775 635T762 667T730 684T673 689V346Q673 336 663 336H621Q611 336 611 346V689Q579 689 553 687T505 683V346Q505 336 496 336H455Q445 336 445 346V717Q445 735 460 736Q504 741 549 743T642 746Q694 746 731 740T792 717T827 668T839 586V346ZM409 703Q409 695 404 692T392 689H295V352Q295 346 291 341T279 336H247Q240 336 236 341T232 352V689H133Q127 689 122 692T117 703V728Q117 735 122 739T133 743H392Q398 743 403 739T409 728V703Z"  />

</font>
</defs>
</svg>
