<?xml version="1.0" encoding="utf-8"?>
<!-- Generator: Adobe Illustrator 16.0.4, SVG Export Plug-In . SVG Version: 6.00 Build 0)  -->
<!DOCTYPE svg PUBLIC "-//W3C//DTD SVG 1.1//EN" "http://www.w3.org/Graphics/SVG/1.1/DTD/svg11.dtd">
<svg version="1.1" id="Ebene_1" xmlns="http://www.w3.org/2000/svg" xmlns:xlink="http://www.w3.org/1999/xlink" x="0px" y="0px"
	 width="149.5px" height="108px" viewBox="0 0 149.5 108" enable-background="new 0 0 149.5 108" xml:space="preserve">
<path fill="#8B8F93" d="M0,0v24h24V0H0z M16.68,6.389l-1.697,0.002c-1.33,0-1.588,0.588-1.588,1.453v1.907h3.174l-0.414,2.987h-2.76
	V20.4h-3.308v-7.664H7.32V9.75h2.768V7.548c0-2.556,1.674-3.948,4.12-3.948c1.171,0,2.179,0.082,2.472,0.118V6.389z"/>
<path fill="#007A9E" d="M21.381,30.966L18.174,27.3C18.08,27.188,18,27.126,18,26.95v-1.745c0-0.111,0.111-0.19,0.223-0.19
	c0.062,0,0.143,0.032,0.189,0.096L22,29.235l3.587-4.125c0.047-0.064,0.127-0.098,0.19-0.098c0.111,0,0.223,0.08,0.223,0.191v1.745
	c0,0.176-0.08,0.237-0.174,0.35l-3.207,3.666C22.396,31.218,22.254,31.33,22,31.33S21.604,31.22,21.381,30.966z"/>
<path fill="#DD6108" d="M3.381,30.965l-3.207-3.666C0.08,27.188,0,27.125,0,26.949v-1.745c0-0.111,0.111-0.189,0.223-0.189
	c0.062,0,0.143,0.031,0.189,0.096L4,29.233l3.587-4.125c0.047-0.063,0.127-0.096,0.19-0.096c0.111,0,0.223,0.079,0.223,0.19v1.745
	c0,0.176-0.08,0.238-0.174,0.35l-3.207,3.666C4.396,31.219,4.254,31.331,4,31.331S3.604,31.219,3.381,30.965z"/>
<path fill="#5A6065" d="M30.381,30.888l-3.207-3.666C27.08,27.108,27,27.047,27,26.871v-1.745c0-0.111,0.111-0.189,0.223-0.189
	c0.062,0,0.143,0.031,0.189,0.096L31,29.156l3.587-4.125c0.047-0.064,0.127-0.097,0.19-0.097c0.111,0,0.223,0.08,0.223,0.19v1.745
	c0,0.176-0.08,0.238-0.174,0.35l-3.207,3.666c-0.223,0.254-0.365,0.366-0.619,0.366S30.604,31.142,30.381,30.888z"/>
<path fill="#007A9E" d="M76.639,29.638l4.25-3.695c0.065-0.049,0.098-0.014,0.098-0.08c0-0.112-0.082-0.108-0.193-0.108h-1.799
	c-0.182,0-0.245-0.036-0.359,0.062l-3.139,2.687l-3.141-2.657c-0.113-0.098-0.179-0.091-0.358-0.091h-1.8
	c-0.113,0-0.195-0.004-0.195,0.108c0,0.065,0.033,0.09,0.1,0.14l4.25,3.666l-4.25,3.681c-0.066,0.049-0.1,0.12-0.1,0.188
	c0,0.113,0.082,0.219,0.195,0.219h1.799c0.18,0,0.244-0.08,0.359-0.178l3.14-2.745l3.139,2.743c0.116,0.099,0.183,0.18,0.36,0.18
	h1.799c0.111,0,0.193-0.113,0.193-0.227c0-0.065-0.03-0.146-0.098-0.196L76.639,29.638z"/>
<path fill="#B1063A" d="M88.639,29.638l4.25-3.695c0.065-0.049,0.098-0.014,0.098-0.08c0-0.112-0.082-0.108-0.193-0.108h-1.799
	c-0.182,0-0.245-0.036-0.359,0.062l-3.139,2.687l-3.143-2.657c-0.111-0.098-0.179-0.091-0.356-0.091h-1.802
	c-0.111,0-0.193-0.004-0.193,0.108c0,0.065,0.033,0.09,0.102,0.14l4.25,3.666l-4.25,3.681c-0.066,0.049-0.102,0.12-0.102,0.188
	c0,0.113,0.082,0.219,0.193,0.219h1.801c0.18,0,0.242-0.08,0.357-0.178l3.142-2.745l3.139,2.743c0.116,0.099,0.183,0.18,0.36,0.18
	h1.799c0.111,0,0.193-0.113,0.193-0.227c0-0.065-0.03-0.146-0.098-0.196L88.639,29.638z"/>
<path fill="#5A6065" d="M64.639,29.638l4.25-3.695c0.065-0.049,0.098-0.014,0.098-0.08c0-0.112-0.082-0.108-0.195-0.108h-1.799
	c-0.18,0-0.245-0.036-0.359,0.062l-3.139,2.687l-3.141-2.657c-0.113-0.098-0.179-0.091-0.358-0.091h-1.8
	c-0.113,0-0.195-0.004-0.195,0.108c0,0.065,0.033,0.09,0.1,0.14l4.25,3.666l-4.25,3.681c-0.066,0.049-0.1,0.12-0.1,0.188
	c0,0.113,0.082,0.219,0.195,0.219h1.799c0.18,0,0.244-0.08,0.359-0.178l3.14-2.745l3.139,2.743c0.116,0.099,0.181,0.18,0.36,0.18
	h1.799c0.113,0,0.195-0.113,0.195-0.227c0-0.065-0.032-0.146-0.098-0.196L64.639,29.638z"/>
<path fill="#DD6108" d="M52.639,29.638l4.25-3.695c0.065-0.049,0.098-0.014,0.098-0.08c0-0.112-0.082-0.108-0.195-0.108h-1.799
	c-0.18,0-0.245-0.036-0.359,0.062l-3.139,2.687l-3.141-2.657c-0.113-0.098-0.179-0.091-0.358-0.091h-1.8
	c-0.113,0-0.195-0.004-0.195,0.108c0,0.065,0.033,0.09,0.1,0.14l4.25,3.666l-4.25,3.681c-0.066,0.049-0.1,0.12-0.1,0.188
	c0,0.113,0.082,0.219,0.195,0.219h1.799c0.18,0,0.244-0.08,0.359-0.178l3.14-2.745l3.139,2.743c0.116,0.099,0.181,0.18,0.36,0.18
	h1.799c0.113,0,0.195-0.113,0.195-0.227c0-0.065-0.032-0.146-0.098-0.196L52.639,29.638z"/>
<path fill="#DD6108" d="M4.618,32.187l3.207,3.666c0.095,0.11,0.174,0.174,0.174,0.35v1.746c0,0.111-0.11,0.189-0.222,0.189
	c-0.063,0-0.144-0.031-0.19-0.097l-3.588-4.125l-3.587,4.125c-0.047,0.063-0.127,0.097-0.189,0.097c-0.111,0-0.223-0.08-0.223-0.19
	v-1.746c0-0.176,0.08-0.238,0.174-0.35l3.206-3.666c0.224-0.254,0.365-0.365,0.619-0.365S4.396,31.933,4.618,32.187z"/>
<path fill="#5A6065" d="M31.618,32.106l3.207,3.668c0.095,0.109,0.174,0.174,0.174,0.349v1.746c0,0.11-0.11,0.19-0.222,0.19
	c-0.063,0-0.144-0.033-0.19-0.098l-3.588-4.125l-3.587,4.125c-0.047,0.064-0.127,0.098-0.189,0.098c-0.111,0-0.223-0.08-0.223-0.19
	v-1.746c0-0.176,0.08-0.238,0.174-0.351l3.206-3.666c0.224-0.254,0.365-0.364,0.619-0.364S31.396,31.854,31.618,32.106z"/>
<path fill="#007A9E" d="M22.619,32.345l3.207,3.668C25.92,36.122,26,36.185,26,36.36v1.744c0,0.111-0.111,0.19-0.223,0.19
	c-0.062,0-0.143-0.032-0.189-0.096L22,34.075L18.413,38.2c-0.047,0.064-0.127,0.097-0.19,0.097c-0.111,0-0.223-0.08-0.223-0.19
	V36.36c0-0.176,0.08-0.238,0.174-0.351l3.207-3.667c0.223-0.253,0.365-0.365,0.619-0.365S22.396,32.091,22.619,32.345z"/>
<path fill="#B1063A" d="M12.381,31.131l-3.207-3.666C9.08,27.354,9,27.291,9,27.115V25.37c0-0.111,0.111-0.189,0.223-0.189
	c0.062,0,0.143,0.031,0.189,0.096L13,29.399l3.588-4.125c0.047-0.063,0.127-0.097,0.189-0.097c0.111,0,0.223,0.08,0.223,0.19v1.746
	c0,0.175-0.08,0.238-0.174,0.349l-3.207,3.667c-0.223,0.254-0.365,0.366-0.619,0.366S12.604,31.385,12.381,31.131z"/>
<path fill="#B1063A" d="M13.619,32.51l3.207,3.667C16.921,36.287,17,36.351,17,36.524v1.746c0,0.111-0.111,0.19-0.223,0.19
	c-0.062,0-0.143-0.032-0.189-0.097L13,34.24l-3.588,4.125c-0.047,0.062-0.127,0.097-0.19,0.097c-0.11,0-0.222-0.08-0.222-0.189
	v-1.746c0-0.176,0.08-0.238,0.174-0.351l3.207-3.667c0.223-0.254,0.365-0.365,0.619-0.365S13.396,32.256,13.619,32.51z"/>
<g>
	<polygon fill="#8B8F93" points="110.697,15.243 115.686,12.016 110.697,8.789 	"/>
	<path fill="#8B8F93" d="M100.5,0v24h24V0H100.5z M121.311,12.404c-0.013,0.994-0.054,1.945-0.156,2.484
		c-0.26,1.373-0.555,2.971-2.047,3.11c-0.851,0.079-1.853,0.125-3.125,0.153c-0.319,0.023-0.698,0.037-1.146,0.037
		c-0.844,0-1.618,0-2.333-0.002c-0.715,0.002-1.487,0.002-2.334,0.002c-0.446,0-0.827-0.013-1.147-0.037
		c-1.271-0.028-2.273-0.074-3.123-0.153c-1.492-0.14-1.787-1.738-2.049-3.11c-0.104-0.539-0.146-1.49-0.154-2.484
		c-0.002-0.026-0.004-0.051-0.004-0.077c-0.002-1.238,0.029-2.545,0.158-3.216c0.26-1.372,0.555-2.971,2.047-3.11
		c0.851-0.079,1.853-0.125,3.125-0.153c0.319-0.023,0.699-0.037,1.146-0.037c0.846,0,1.619,0,2.334,0.002
		c0.715-0.002,1.486-0.002,2.333-0.002c0.448,0,0.827,0.014,1.147,0.037c1.271,0.027,2.273,0.074,3.123,0.153
		c1.492,0.14,1.787,1.738,2.049,3.11c0.13,0.67,0.16,1.978,0.158,3.216C121.312,12.354,121.311,12.378,121.311,12.404z"/>
</g>
<g>
	<path fill="#8B8F93" d="M60.862,10.066c0.297-0.408,0.447-0.946,0.447-1.621c0-0.406-0.059-0.831-0.172-1.287
		c-0.113-0.455-0.271-0.895-0.478-1.317c-0.2-0.425-0.49-0.774-0.853-1.054c-0.354-0.273-0.754-0.414-1.203-0.414
		c-0.627,0-1.104,0.236-1.453,0.697c-0.346,0.468-0.514,1.022-0.514,1.668c0,0.318,0.043,0.646,0.113,0.998
		c0.078,0.35,0.201,0.701,0.359,1.051c0.162,0.348,0.348,0.668,0.562,0.943c0.223,0.28,0.48,0.506,0.791,0.686
		c0.307,0.168,0.637,0.26,0.987,0.26C60.104,10.676,60.571,10.475,60.862,10.066z"/>
	<path fill="#8B8F93" d="M62.375,16.377c-0.033-0.113-0.097-0.23-0.181-0.35c-0.082-0.123-0.148-0.228-0.209-0.308
		c-0.061-0.084-0.15-0.186-0.268-0.299c-0.121-0.116-0.213-0.198-0.275-0.258c-0.071-0.062-0.18-0.146-0.325-0.263
		c-0.155-0.11-0.255-0.188-0.312-0.225c-0.062-0.045-0.175-0.125-0.343-0.238c-0.159-0.108-0.258-0.186-0.304-0.207
		c-0.105-0.016-0.279-0.022-0.501-0.022c-0.367,0-0.726,0.024-1.072,0.069c-0.347,0.052-0.717,0.132-1.085,0.255
		c-0.38,0.116-0.706,0.274-1,0.461c-0.275,0.19-0.506,0.444-0.688,0.756c-0.188,0.321-0.27,0.685-0.27,1.088
		c0,0.455,0.105,0.861,0.354,1.222c0.242,0.362,0.551,0.643,0.937,0.85c0.388,0.203,0.79,0.359,1.22,0.457
		c0.418,0.102,0.854,0.154,1.283,0.154c0.391,0,0.771-0.043,1.126-0.125c0.363-0.088,0.705-0.218,1.019-0.396
		c0.324-0.181,0.569-0.429,0.759-0.744c0.182-0.315,0.274-0.685,0.274-1.108c0-0.144-0.015-0.277-0.05-0.41
		C62.435,16.604,62.407,16.488,62.375,16.377z"/>
	<path fill="#8B8F93" d="M50.167,0v24h24V0H50.167z M62.521,19.127c-1.015,0.879-2.435,1.324-4.237,1.324
		c-0.39,0-0.798-0.037-1.208-0.105c-0.407-0.063-0.819-0.18-1.229-0.338c-0.41-0.156-0.777-0.352-1.101-0.586
		c-0.31-0.227-0.569-0.527-0.769-0.895c-0.209-0.373-0.306-0.779-0.306-1.229c0-0.407,0.121-0.862,0.372-1.36
		c0.21-0.437,0.543-0.804,0.971-1.117c0.432-0.312,0.916-0.551,1.459-0.719c0.543-0.164,1.068-0.285,1.57-0.363
		c0.5-0.074,0.999-0.121,1.514-0.135c-0.437-0.562-0.65-1.062-0.65-1.506c0-0.076,0.006-0.16,0.025-0.234
		c0.012-0.08,0.024-0.141,0.053-0.195c0.021-0.055,0.041-0.131,0.076-0.221c0.037-0.09,0.061-0.164,0.067-0.217
		c-0.271,0.037-0.498,0.051-0.706,0.051c-0.997,0-1.865-0.33-2.576-0.992c-0.714-0.659-1.07-1.484-1.07-2.479
		c0-0.946,0.317-1.791,0.959-2.537c0.63-0.739,1.416-1.213,2.355-1.422c0.633-0.139,1.266-0.201,1.887-0.201h4.416l-1.361,0.798
		h-1.368c0.481,0.303,0.853,0.721,1.112,1.268c0.259,0.548,0.391,1.114,0.391,1.708c0,0.497-0.078,0.942-0.229,1.327
		c-0.151,0.385-0.342,0.701-0.563,0.931c-0.22,0.241-0.446,0.454-0.665,0.653c-0.229,0.199-0.413,0.405-0.562,0.62
		c-0.164,0.211-0.236,0.436-0.236,0.68c0,0.176,0.052,0.346,0.162,0.512c0.113,0.174,0.262,0.334,0.438,0.488
		c0.182,0.152,0.374,0.314,0.598,0.486c0.209,0.166,0.425,0.355,0.641,0.559c0.217,0.205,0.416,0.426,0.585,0.664
		c0.185,0.24,0.334,0.529,0.437,0.857c0.109,0.334,0.166,0.691,0.166,1.08C63.935,17.354,63.469,18.303,62.521,19.127z
		 M70.474,7.523h-2.592v2.588h-1.295V7.523h-2.572V6.232h2.572V3.65h1.295v2.582h2.592V7.523z"/>
</g>
<path fill="#5A6065" d="M148.742,40.153l-5.088-5.086c0.873-1.075,1.396-2.442,1.396-3.936c0-3.453-2.797-6.25-6.25-6.25
	c-3.452,0-6.25,2.797-6.25,6.25s2.798,6.25,6.25,6.25c1.492,0,2.859-0.523,3.937-1.396l5.086,5.089L148.742,40.153z M133.852,31.133
	c0-2.729,2.221-4.95,4.949-4.95s4.95,2.223,4.95,4.95c0,2.727-2.222,4.95-4.95,4.95C136.073,36.083,133.852,33.86,133.852,31.133z"
	/>
<path fill="#8B8F93" d="M75.167,0v24h24V0H75.167z M82.577,19.777h-0.002c-0.406,0.404-0.962,0.652-1.578,0.652
	s-1.169-0.248-1.575-0.652l0,0h-0.001c0,0,0,0,0.001,0c-0.404-0.404-0.652-0.955-0.652-1.568c0-0.613,0.248-1.167,0.652-1.572l0,0
	c0.406-0.404,0.959-0.652,1.575-0.652s1.172,0.25,1.578,0.652l0,0h0.001c0,0,0,0-0.001,0c0.405,0.407,0.653,0.958,0.655,1.572
	C83.229,18.822,82.98,19.374,82.577,19.777z M86.632,20.451v-0.006h-0.001c-0.003-2.103-0.82-4.086-2.305-5.565
	c-1.482-1.483-3.465-2.307-5.559-2.31V9.363c3.058,0.002,5.821,1.244,7.832,3.254c2.008,2.01,3.25,4.777,3.252,7.833L86.632,20.451
	L86.632,20.451z M92.354,20.451c-0.006-7.493-6.092-13.588-13.578-13.594V3.65c4.629,0.002,8.822,1.887,11.865,4.93
	c3.043,3.044,4.926,7.24,4.928,11.871H92.354z"/>
<path fill="#8B8F93" d="M125.5,0v24h24V0H125.5z M145.832,8.562c-0.077,1.64-1.217,3.883-3.425,6.729
	c-2.283,2.976-4.218,4.462-5.8,4.462c-0.979,0-1.81-0.908-2.481-2.723c-0.453-1.663-0.907-3.326-1.356-4.992
	c-0.502-1.812-1.043-2.721-1.621-2.721c-0.123,0-0.562,0.264-1.314,0.793l-0.79-1.021c0.829-0.729,1.646-1.462,2.45-2.192
	c1.102-0.957,1.928-1.461,2.479-1.512c1.305-0.126,2.106,0.771,2.41,2.686c0.324,2.068,0.551,3.354,0.678,3.857
	c0.377,1.713,0.791,2.57,1.244,2.57c0.35,0,0.875-0.555,1.58-1.664c0.702-1.107,1.078-1.953,1.129-2.534
	c0.1-0.958-0.277-1.437-1.129-1.437c-0.404,0-0.818,0.089-1.244,0.265c0.828-2.698,2.408-4.008,4.744-3.932
	C145.117,5.248,145.934,6.37,145.832,8.562z"/>
<path fill="#8B8F93" d="M24.993,0v24h24V0H24.993z M43.673,8.574c0.008,0.148,0.01,0.297,0.01,0.445
	c0,4.556-3.467,9.808-9.807,9.808c-1.945,0-3.758-0.57-5.283-1.548c0.271,0.031,0.545,0.048,0.822,0.048
	c1.615,0,3.102-0.552,4.28-1.476c-1.509-0.028-2.781-1.024-3.22-2.395c0.211,0.04,0.427,0.062,0.647,0.062
	c0.313,0,0.619-0.043,0.908-0.121c-1.576-0.317-2.765-1.709-2.765-3.379c0-0.016,0-0.029,0-0.043
	c0.465,0.258,0.996,0.412,1.562,0.431c-0.925-0.618-1.533-1.673-1.533-2.869c0-0.632,0.171-1.224,0.468-1.733
	C31.461,7.89,34,9.263,36.866,9.407c-0.059-0.252-0.089-0.517-0.089-0.786c0-1.903,1.543-3.446,3.446-3.446
	c0.99,0,1.888,0.418,2.517,1.089c0.785-0.154,1.522-0.441,2.188-0.837c-0.259,0.806-0.805,1.48-1.517,1.907
	c0.697-0.083,1.36-0.27,1.979-0.543C44.931,7.48,44.347,8.088,43.673,8.574z"/>
<g>
	<polygon fill="#DD6108" points="5,44.685 5,39.685 0,39.685 0,52.684 10,52.684 10,44.685 	"/>
	<polygon fill="#DD6108" points="6,39.685 6,43.685 10.243,43.685 	"/>
</g>
<g>
	<polygon fill="#5A6065" points="39.016,44.685 39.016,39.685 34.016,39.685 34.016,52.684 44.016,52.684 44.016,44.685 	"/>
	<polygon fill="#5A6065" points="40.016,39.685 40.016,43.685 43.759,43.685 	"/>
</g>
<g>
	<polygon fill="#007A9E" points="27,44.685 27,39.685 22,39.685 22,52.684 32,52.684 32,44.685 	"/>
	<polygon fill="#007A9E" points="28,39.685 28,43.685 32.243,43.685 	"/>
</g>
<g>
	<polygon fill="#B1063A" points="16.338,44.685 16.338,39.685 11.338,39.685 11.338,52.684 21.338,52.684 21.338,44.685 	"/>
	<polygon fill="#B1063A" points="17.338,39.685 17.338,43.685 21.326,43.685 	"/>
</g>
<polygon fill="#DD6108" points="53.229,41.685 51.229,39.685 45.354,39.685 45.354,52.685 61.354,52.685 61.354,41.685 "/>
<polygon fill="#5A6065" points="104.003,41.685 102.003,39.685 96.378,39.685 96.378,52.685 112.378,52.685 112.378,41.685 "/>
<polygon fill="#007A9E" points="87.245,41.685 85.245,39.685 79.37,39.685 79.37,52.685 95.37,52.685 95.37,41.685 "/>
<polygon fill="#B1063A" points="70.237,41.685 68.237,39.685 62.362,39.685 62.362,52.685 78.361,52.685 78.361,41.685 "/>
<g>
	<rect y="60" fill="#8B8F93" width="32" height="3"/>
	<rect y="70" fill="#8B8F93" width="32" height="3"/>
	<rect y="80" fill="#8B8F93" width="32" height="3"/>
</g>
<polyline fill="#5A6065" points="92.514,81.5 72.514,106.5 72.514,56.5 "/>
<polyline fill="#5A6065" points="45.543,81.5 65.542,56.5 65.542,106.5 "/>
<path fill="#DEDFE0" d="M109.404,62.793L105.736,66c-0.11,0.095-0.174,0.174-0.348,0.174h-1.746c-0.111,0-0.19-0.111-0.19-0.222
	c0-0.063,0.032-0.144,0.096-0.19l4.126-3.587l-4.127-3.588c-0.064-0.047-0.095-0.127-0.095-0.19c0-0.111,0.08-0.223,0.19-0.223
	h1.746c0.174,0,0.237,0.08,0.348,0.174l3.668,3.207c0.254,0.223,0.365,0.365,0.365,0.619S109.658,62.57,109.404,62.793z"/>
<path fill="#DEDFE0" d="M116.051,61.557l3.667-3.207c0.111-0.096,0.174-0.175,0.35-0.175h1.745c0.111,0,0.19,0.111,0.19,0.222
	c0,0.063-0.032,0.144-0.096,0.19l-4.126,3.588l4.126,3.587c0.063,0.047,0.096,0.127,0.096,0.189c0,0.111-0.08,0.223-0.19,0.223
	h-1.745c-0.176,0-0.238-0.08-0.35-0.174l-3.667-3.207c-0.254-0.223-0.365-0.363-0.365-0.618
	C115.686,61.921,115.797,61.777,116.051,61.557z"/>
<rect x="103.452" y="71.5" fill="#DD6108" width="8" height="8"/>
<rect x="116" y="71.5" fill="#DEDFE0" width="8" height="8"/>
</svg>
